SplineFontDB: 3.2
FontName: BertiogaSans-Light
FullName: Bertioga Sans Light
FamilyName: Bertioga Sans Light
Weight: Light
Copyright: Copyright (c) 2024, Orangepi
UComments: "2024-2-22: Created with FontForge (http://fontforge.org)"
Version: 3.004
ItalicAngle: 0
UnderlinePosition: -100
UnderlineWidth: 50
Ascent: 1638
Descent: 410
InvalidEm: 0
LayerCount: 2
Layer: 0 1 "Back" 1
Layer: 1 1 "Fore" 0
XUID: [1021 531 -1996577725 3139160]
StyleMap: 0x0040
FSType: 0
OS2Version: 4
OS2_WeightWidthSlopeOnly: 0
OS2_UseTypoMetrics: 1
CreationTime: 1708624881
ModificationTime: 1708632856
PfmFamily: 17
TTFWeight: 300
TTFWidth: 5
LineGap: 67
VLineGap: 0
Panose: 2 11 3 4 2 2 2 2 2 4
OS2TypoAscent: 1854
OS2TypoAOffset: 0
OS2TypoDescent: -434
OS2TypoDOffset: 0
OS2TypoLinegap: 67
OS2WinAscent: 2136
OS2WinAOffset: 0
OS2WinDescent: 797
OS2WinDOffset: 0
HheadAscent: 1854
HheadAOffset: 0
HheadDescent: -434
HheadDOffset: 0
OS2SubXSize: 1331
OS2SubYSize: 1229
OS2SubXOff: 0
OS2SubYOff: 154
OS2SupXSize: 1331
OS2SupYSize: 1229
OS2SupXOff: 0
OS2SupYOff: 717
OS2StrikeYSize: 102
OS2StrikeYPos: 530
OS2CapHeight: 1409
OS2XHeight: 1082
OS2Vendor: 'GOOG'
OS2CodePages: e00001bf.dff70000
OS2UnicodeRanges: e0000aff.500078ff.00000029.00000000
Lookup: 4 1 0 "dligDiscretionaryLigaturesinHebrewlookup1" { "dligDiscretionaryLigaturesinHebrewlookup1 subtable"  } ['dlig' ('hebr' <'dflt' > ) ]
Lookup: 4 0 0 "ccmpGlyphCompositionDecompositionlookup2" { "ccmpGlyphCompositionDecompositionlookup2 subtable"  } ['ccmp' ('latn' <'dflt' 'MAH ' > 'grek' <'dflt' > 'cyrl' <'dflt' > ) ]
Lookup: 6 0 0 "ccmpGlyphCompositionDecompositionlookup3" { "ccmpGlyphCompositionDecompositionlookup3 subtable"  } ['ccmp' ('latn' <'dflt' 'MAH ' > 'grek' <'dflt' > 'cyrl' <'dflt' > ) ]
Lookup: 1 0 0 "Single Substitution lookup 3" { "Single Substitution lookup 3 subtable"  } []
Lookup: 4 0 0 "ccmpGlyphCompositionDecompositioninGreeklookup4" { "ccmpGlyphCompositionDecompositioninGreeklookup4 subtable"  } ['ccmp' ('grek' <'dflt' > ) ]

StartChar: .notdef
Encoding: 65536 -1 0
Width: 1536
GlyphClass: 2
Flags: W
LayerCount: 2
Fore
SplineSet
1330 1409 m 1,0,-1
 1330 0 l 1,1,-1
 205 0 l 1,2,-1
 205 1409 l 1,3,-1
 1330 1409 l 1,0,-1
281 76 m 1,4,-1
 1254 76 l 1,5,-1
 1254 1333 l 1,6,-1
 281 1333 l 1,7,-1
 281 76 l 1,4,-1
EndSplineSet
EndChar

StartChar: exclam
Encoding: 33 33 4
Width: 531
GlyphClass: 2
Flags: W
LayerCount: 2
Fore
SplineSet
349 1409 m 1,0,-1
 327 387 l 1,1,-1
 206 387 l 1,2,-1
 185 1409 l 1,3,-1
 349 1409 l 1,0,-1
345 178 m 1,4,-1
 345 0 l 1,5,-1
 182 0 l 1,6,-1
 182 178 l 1,7,-1
 345 178 l 1,4,-1
EndSplineSet
EndChar

StartChar: quotedbl
Encoding: 34 34 5
Width: 646
GlyphClass: 2
Flags: W
LayerCount: 2
Fore
SplineSet
575 1409 m 1,0,-1
 556 988 l 1,1,-1
 439 988 l 1,2,-1
 421 1409 l 1,3,-1
 575 1409 l 1,0,-1
226 1409 m 1,4,-1
 205 988 l 1,5,-1
 90 988 l 1,6,-1
 71 1409 l 1,7,-1
 226 1409 l 1,4,-1
EndSplineSet
EndChar

StartChar: numbersign
Encoding: 35 35 6
Width: 1139
GlyphClass: 2
Flags: W
LayerCount: 2
Fore
SplineSet
312 417 m 1,0,-1
 227 0 l 1,1,-1
 131 0 l 1,2,-1
 217 417 l 1,3,-1
 0 417 l 1,4,-1
 0 511 l 1,5,-1
 238 511 l 1,6,-1
 318 893 l 1,7,-1
 51 893 l 1,8,-1
 51 987 l 1,9,-1
 337 987 l 1,10,-1
 428 1403 l 1,11,-1
 524 1403 l 1,12,-1
 434 987 l 1,13,-1
 815 987 l 1,14,-1
 905 1403 l 1,15,-1
 999 1403 l 1,16,-1
 910 987 l 1,17,-1
 1137 987 l 1,18,-1
 1137 893 l 1,19,-1
 892 893 l 1,20,-1
 811 511 l 1,21,-1
 1086 511 l 1,22,-1
 1086 417 l 1,23,-1
 790 417 l 1,24,-1
 700 0 l 1,25,-1
 606 0 l 1,26,-1
 694 417 l 1,27,-1
 312 417 l 1,0,-1
334 511 m 1,28,-1
 714 511 l 1,29,-1
 795 893 l 1,30,-1
 417 893 l 1,31,-1
 334 511 l 1,28,-1
EndSplineSet
EndChar

StartChar: dollar
Encoding: 36 36 7
Width: 1139
GlyphClass: 2
Flags: W
LayerCount: 2
Fore
SplineSet
517 20 m 1,0,1
 305 29 305 29 180 118 c 128,-1,2
 55 207 55 207 20 369 c 1,3,-1
 162 403 l 1,4,5
 189 282 189 282 276 220 c 128,-1,6
 363 158 363 158 517 149 c 1,7,-1
 517 679 l 1,8,9
 451 696 451 696 407 709 c 0,10,11
 362 722 362 722 333 734 c 0,12,13
 304 745 304 745 284 753 c 0,14,15
 177 807 177 807 133 875 c 0,16,17
 90 943 90 943 91 1051 c 0,18,19
 91 1202 91 1202 202 1289 c 0,20,21
 314 1375 314 1375 517 1385 c 1,22,-1
 517 1515 l 1,23,-1
 646 1515 l 1,24,-1
 646 1385 l 1,25,26
 772 1379 772 1379 857 1343 c 0,27,28
 943 1307 943 1307 996 1240 c 128,-1,29
 1049 1173 1049 1173 1075 1075 c 1,30,-1
 931 1044 l 1,31,32
 909 1140 909 1140 842 1194 c 128,-1,33
 775 1248 775 1248 646 1259 c 1,34,-1
 646 783 l 1,35,36
 757 756 757 756 827 735 c 0,37,38
 897 713 897 713 923 698 c 0,39,40
 1026 643 1026 643 1066 574 c 0,41,42
 1105 505 1105 505 1105 391 c 0,43,44
 1105 231 1105 231 984 131 c 128,-1,45
 863 31 863 31 646 19 c 1,46,-1
 646 -139 l 1,47,-1
 517 -139 l 1,48,-1
 517 20 l 1,0,1
233 1053 m 0,49,50
 233 988 233 988 261 944 c 0,51,52
 288 901 288 901 341 870 c 128,-1,53
 394 839 394 839 517 810 c 1,54,-1
 517 1260 l 1,55,56
 233 1246 233 1246 233 1053 c 0,49,50
962 389 m 0,57,58
 962 459 962 459 933 505 c 0,59,60
 904 550 904 550 850 581 c 0,61,62
 796 610 796 610 646 649 c 1,63,-1
 646 147 l 1,64,65
 797 156 797 156 880 219 c 0,66,67
 962 281 962 281 962 389 c 0,57,58
EndSplineSet
EndChar

StartChar: percent
Encoding: 37 37 8
Width: 1821
GlyphClass: 2
Flags: W
LayerCount: 2
Fore
SplineSet
389 1420 m 0,0,1
 689 1420 689 1420 690 974 c 0,2,3
 690 757 690 757 614 640 c 128,-1,4
 538 523 538 523 386 523 c 0,5,6
 233 523 233 523 157 639 c 128,-1,7
 81 755 81 755 80 974 c 0,8,9
 80 1196 80 1196 154 1308 c 128,-1,10
 228 1420 228 1420 389 1420 c 0,0,1
1443 1409 m 1,11,-1
 519 0 l 1,12,-1
 381 0 l 1,13,-1
 1303 1409 l 1,14,-1
 1443 1409 l 1,11,-1
566 974 m 0,15,16
 566 1156 566 1156 525 1242 c 0,17,18
 485 1327 485 1327 389 1327 c 0,19,20
 290 1327 290 1327 248 1244 c 0,21,22
 205 1161 205 1161 205 974 c 0,23,24
 205 796 205 796 247 709 c 128,-1,25
 289 622 289 622 387 621 c 0,26,27
 478 621 478 621 522 711 c 0,28,29
 566 800 566 800 566 974 c 0,15,16
1742 435 m 0,30,31
 1742 221 1742 221 1664 105 c 128,-1,32
 1586 -11 1586 -11 1433 -11 c 0,33,34
 1284 -11 1284 -11 1207 101 c 0,35,36
 1131 213 1131 213 1131 435 c 0,37,38
 1131 664 1131 664 1204 775 c 128,-1,39
 1277 886 1277 886 1437 886 c 0,40,41
 1596 886 1596 886 1669 771 c 0,42,43
 1742 657 1742 657 1742 435 c 0,30,31
1616 435 m 0,44,45
 1616 620 1616 620 1575 705 c 128,-1,46
 1534 790 1534 790 1437 790 c 0,47,48
 1342 790 1342 790 1299 707 c 0,49,50
 1255 625 1255 625 1255 435 c 0,51,52
 1255 261 1255 261 1297 172 c 0,53,54
 1339 84 1339 84 1435 84 c 0,55,56
 1528 84 1528 84 1572 172 c 0,57,58
 1616 261 1616 261 1616 435 c 0,44,45
EndSplineSet
EndChar

StartChar: ampersand
Encoding: 38 38 9
Width: 1328
GlyphClass: 2
Flags: W
LayerCount: 2
Fore
SplineSet
66 366 m 0,0,1
 66 506 66 506 153 614 c 0,2,3
 240 721 240 721 411 796 c 1,4,5
 379 854 379 854 353 943 c 0,6,7
 327 1033 327 1033 327 1105 c 0,8,9
 327 1253 327 1253 417 1335 c 0,10,11
 506 1417 506 1417 670 1417 c 0,12,13
 815 1417 815 1417 906 1342 c 128,-1,14
 997 1267 997 1267 997 1137 c 0,15,16
 997 1069 997 1069 968 1010 c 0,17,18
 939 950 939 950 868 893 c 0,19,20
 815 852 815 852 745 815 c 128,-1,21
 675 778 675 778 582 744 c 1,22,23
 694 532 694 532 891 307 c 1,24,25
 1007 477 1007 477 1067 732 c 1,26,-1
 1191 698 l 1,27,28
 1131 445 1131 445 972 213 c 1,29,30
 1072 107 1072 107 1190 107 c 0,31,32
 1264 107 1264 107 1307 123 c 1,33,-1
 1307 10 l 1,34,35
 1253 -12 1253 -12 1163 -12 c 0,36,37
 1074 -12 1074 -12 1004 20 c 0,38,39
 933 52 933 52 876 117 c 1,40,41
 726 -20 726 -20 506 -20 c 0,42,43
 296 -20 296 -20 181 83 c 0,44,45
 66 185 66 185 66 366 c 0,0,1
869 1138 m 0,46,47
 869 1215 869 1215 815 1264 c 128,-1,48
 761 1313 761 1313 668 1312 c 0,49,50
 566 1312 566 1312 512 1258 c 0,51,52
 459 1204 459 1204 459 1106 c 0,53,54
 459 985 459 985 528 845 c 1,55,56
 667 901 667 901 735 942 c 0,57,58
 803 984 803 984 836 1032 c 0,59,60
 869 1081 869 1081 869 1138 c 0,46,47
797 207 m 1,61,62
 693 332 693 332 610 453 c 0,63,64
 527 573 527 573 463 691 c 1,65,66
 206 583 206 583 206 368 c 0,67,68
 206 240 206 240 287 165 c 0,69,70
 369 91 369 91 510 92 c 0,71,72
 583 92 583 92 660 120 c 128,-1,73
 737 148 737 148 797 207 c 1,61,62
EndSplineSet
EndChar

StartChar: quotesingle
Encoding: 39 39 10
Width: 359
GlyphClass: 2
Flags: W
LayerCount: 2
Fore
SplineSet
257 1409 m 1,0,-1
 237 988 l 1,1,-1
 122 988 l 1,2,-1
 102 1409 l 1,3,-1
 257 1409 l 1,0,-1
EndSplineSet
EndChar

StartChar: parenleft
Encoding: 40 40 11
Width: 682
GlyphClass: 2
Flags: W
LayerCount: 2
Fore
SplineSet
528 -424 m 1,0,1
 395 -293 395 -293 307 -146 c 0,2,3
 220 1 220 1 178 167 c 0,4,5
 136 334 136 334 135 527 c 0,6,7
 135 725 135 725 178 893 c 128,-1,8
 221 1061 221 1061 309 1207 c 0,9,10
 396 1354 396 1354 528 1484 c 1,11,-1
 667 1484 l 1,12,13
 470 1283 470 1283 377 1046 c 128,-1,14
 284 809 284 809 285 530 c 0,15,16
 285 345 285 345 325 178 c 128,-1,17
 365 11 365 11 450 -138 c 0,18,19
 534 -288 534 -288 667 -424 c 1,20,-1
 528 -424 l 1,0,1
EndSplineSet
EndChar

StartChar: parenright
Encoding: 41 41 12
Width: 682
GlyphClass: 2
Flags: W
LayerCount: 2
Fore
SplineSet
15 -424 m 1,0,1
 147 -289 147 -289 232 -139 c 128,-1,2
 317 11 317 11 357 176 c 0,3,4
 397 342 397 342 397 530 c 0,5,6
 397 810 397 810 305 1045 c 0,7,8
 212 1280 212 1280 15 1484 c 1,9,-1
 154 1484 l 1,10,11
 287 1353 287 1353 374 1207 c 128,-1,12
 461 1061 461 1061 504 894 c 128,-1,13
 547 727 547 727 547 532 c 0,14,15
 547 335 547 335 504 167 c 128,-1,16
 461 -1 461 -1 374 -147 c 128,-1,17
 287 -293 287 -293 154 -424 c 1,18,-1
 15 -424 l 1,0,1
EndSplineSet
EndChar

StartChar: asterisk
Encoding: 42 42 13
Width: 797
GlyphClass: 2
Flags: W
LayerCount: 2
Fore
SplineSet
647 760 m 1,0,-1
 550 704 l 1,1,-1
 398 964 l 1,2,-1
 240 707 l 1,3,-1
 143 762 l 1,4,-1
 332 1022 l 1,5,-1
 42 1099 l 1,6,-1
 79 1212 l 1,7,-1
 356 1104 l 1,8,-1
 346 1409 l 1,9,-1
 455 1409 l 1,10,-1
 444 1107 l 1,11,-1
 718 1210 l 1,12,-1
 755 1099 l 1,13,-1
 463 1022 l 1,14,-1
 647 760 l 1,0,-1
EndSplineSet
EndChar

StartChar: plus
Encoding: 43 43 14
Width: 1196
GlyphClass: 2
Flags: W
LayerCount: 2
Fore
SplineSet
658 621 m 1,0,-1
 658 186 l 1,1,-1
 537 186 l 1,2,-1
 537 621 l 1,3,-1
 105 621 l 1,4,-1
 105 741 l 1,5,-1
 537 741 l 1,6,-1
 537 1176 l 1,7,-1
 658 1176 l 1,8,-1
 658 741 l 1,9,-1
 1089 741 l 1,10,-1
 1089 621 l 1,11,-1
 658 621 l 1,0,-1
EndSplineSet
EndChar

StartChar: comma
Encoding: 44 44 15
Width: 569
GlyphClass: 2
Flags: W
LayerCount: 2
Fore
SplineSet
369 46 m 2,0,1
 369 -55 369 -55 353 -119 c 0,2,3
 336 -183 336 -183 301 -244 c 1,4,-1
 199 -244 l 1,5,6
 242 -177 242 -177 261 -118 c 128,-1,7
 280 -59 280 -59 280 0 c 1,8,-1
 206 0 l 1,9,-1
 206 191 l 1,10,-1
 369 191 l 1,11,-1
 369 46 l 2,0,1
EndSplineSet
EndChar

StartChar: hyphen
Encoding: 45 45 16
Width: 682
GlyphClass: 2
Flags: W
LayerCount: 2
Fore
SplineSet
588 614 m 1,0,-1
 588 482 l 1,1,-1
 95 482 l 1,2,-1
 95 614 l 1,3,-1
 588 614 l 1,0,-1
EndSplineSet
EndChar

StartChar: period
Encoding: 46 46 17
Width: 569
GlyphClass: 2
Flags: W
LayerCount: 2
Fore
SplineSet
367 191 m 1,0,-1
 367 0 l 1,1,-1
 203 0 l 1,2,-1
 203 191 l 1,3,-1
 367 191 l 1,0,-1
EndSplineSet
EndChar

StartChar: slash
Encoding: 47 47 18
Width: 569
GlyphClass: 2
Flags: W
LayerCount: 2
Fore
SplineSet
576 1484 m 1,0,-1
 129 -13 l 1,1,-1
 -7 -13 l 1,2,-1
 444 1484 l 1,3,-1
 576 1484 l 1,0,-1
EndSplineSet
EndChar

StartChar: zero
Encoding: 48 48 19
Width: 1139
GlyphClass: 2
Flags: W
LayerCount: 2
Fore
SplineSet
1060 705 m 0,0,1
 1060 353 1060 353 935 167 c 0,2,3
 810 -20 810 -20 568 -20 c 0,4,5
 325 -20 325 -20 202 166 c 0,6,7
 80 352 80 352 80 705 c 0,8,9
 80 1065 80 1065 199 1248 c 0,10,11
 318 1430 318 1430 573 1430 c 0,12,13
 822 1430 822 1430 941 1246 c 0,14,15
 1060 1063 1060 1063 1060 705 c 0,0,1
910 705 m 0,16,17
 910 914 910 914 875 1047 c 128,-1,18
 840 1180 840 1180 765 1244 c 128,-1,19
 690 1308 690 1308 574 1308 c 0,20,21
 456 1308 456 1308 379 1246 c 0,22,23
 302 1183 302 1183 265 1050 c 0,24,25
 229 917 229 917 229 705 c 0,26,27
 229 501 229 501 266 368 c 0,28,29
 303 234 303 234 380 168 c 0,30,31
 456 102 456 102 570 103 c 0,32,33
 742 103 742 103 826 253 c 0,34,35
 910 404 910 404 910 705 c 0,16,17
EndSplineSet
EndChar

StartChar: one
Encoding: 49 49 20
Width: 1139
GlyphClass: 2
Flags: W
LayerCount: 2
Fore
SplineSet
1025 135 m 1,0,-1
 1025 0 l 1,1,-1
 165 0 l 1,2,-1
 165 135 l 1,3,-1
 527 135 l 1,4,-1
 527 1259 l 1,5,-1
 216 1027 l 1,6,-1
 216 1180 l 1,7,-1
 542 1409 l 1,8,-1
 675 1409 l 1,9,-1
 675 135 l 1,10,-1
 1025 135 l 1,0,-1
EndSplineSet
EndChar

StartChar: two
Encoding: 50 50 21
Width: 1139
GlyphClass: 2
Flags: W
LayerCount: 2
Fore
SplineSet
1029 127 m 1,0,-1
 1029 0 l 1,1,-1
 114 0 l 1,2,-1
 114 105 l 1,3,4
 170 234 170 234 247 328 c 0,5,6
 325 422 325 422 407 492 c 0,7,8
 490 562 490 562 541 600 c 128,-1,9
 592 638 592 638 622 663 c 128,-1,10
 652 688 652 688 706 737 c 128,-1,11
 760 786 760 786 807 863 c 0,12,13
 855 941 855 941 855 1043 c 0,14,15
 855 1167 855 1167 780 1237 c 128,-1,16
 705 1307 705 1307 574 1307 c 0,17,18
 451 1307 451 1307 368 1240 c 128,-1,19
 285 1173 285 1173 272 1055 c 1,20,-1
 120 1072 l 1,21,22
 139 1232 139 1232 263 1331 c 128,-1,23
 387 1430 387 1430 575 1430 c 0,24,25
 783 1430 783 1430 895 1331 c 128,-1,26
 1007 1232 1007 1232 1007 1047 c 0,27,28
 1007 973 1007 973 972 893 c 128,-1,29
 937 813 937 813 883 755 c 0,30,31
 830 696 830 696 758 630 c 0,32,33
 687 564 687 564 564 463 c 128,-1,34
 441 362 441 362 369 281 c 0,35,36
 298 199 298 199 267 127 c 1,37,-1
 1029 127 l 1,0,-1
EndSplineSet
EndChar

StartChar: three
Encoding: 51 51 22
Width: 1139
GlyphClass: 2
Flags: W
LayerCount: 2
Fore
SplineSet
1044 388 m 0,0,1
 1044 194 1044 194 922 88 c 0,2,3
 800 -19 800 -19 573 -19 c 0,4,5
 363 -19 363 -19 238 75 c 128,-1,6
 113 169 113 169 88 355 c 1,7,-1
 241 369 l 1,8,9
 280 103 280 103 573 104 c 0,10,11
 721 104 721 104 805 177 c 0,12,13
 890 250 890 250 890 391 c 0,14,15
 890 513 890 513 795 582 c 128,-1,16
 700 651 700 651 522 651 c 2,17,-1
 418 651 l 1,18,-1
 418 784 l 1,19,-1
 518 784 l 2,20,21
 675 784 675 784 763 853 c 128,-1,22
 851 922 851 922 852 1044 c 0,23,24
 852 1166 852 1166 779 1236 c 0,25,26
 707 1307 707 1307 563 1307 c 0,27,28
 433 1307 433 1307 354 1242 c 0,29,30
 274 1177 274 1177 260 1058 c 1,31,-1
 112 1070 l 1,32,33
 131 1240 131 1240 253 1335 c 128,-1,34
 375 1430 375 1430 564 1430 c 0,35,36
 773 1430 773 1430 889 1332 c 0,37,38
 1004 1234 1004 1234 1004 1058 c 0,39,40
 1004 922 1004 922 929 837 c 0,41,42
 854 753 854 753 711 722 c 1,43,-1
 711 718 l 1,44,45
 868 702 868 702 956 613 c 0,46,47
 1044 523 1044 523 1044 388 c 0,0,1
EndSplineSet
EndChar

StartChar: four
Encoding: 52 52 23
Width: 1139
GlyphClass: 2
Flags: W
LayerCount: 2
Fore
SplineSet
862 330 m 1,0,-1
 862 0 l 1,1,-1
 724 0 l 1,2,-1
 724 330 l 1,3,-1
 52 330 l 1,4,-1
 52 446 l 1,5,-1
 714 1409 l 1,6,-1
 862 1409 l 1,7,-1
 862 449 l 1,8,-1
 1063 449 l 1,9,-1
 1063 330 l 1,10,-1
 862 330 l 1,0,-1
197 449 m 1,11,-1
 724 449 l 1,12,-1
 724 1045 l 2,13,14
 724 1088 724 1088 723 1128 c 0,15,16
 723 1168 723 1168 726 1223 c 1,17,18
 700 1174 700 1174 685 1150 c 0,19,20
 670 1127 670 1127 663 1118 c 2,21,-1
 197 449 l 1,11,-1
EndSplineSet
EndChar

StartChar: five
Encoding: 53 53 24
Width: 1139
GlyphClass: 2
Flags: W
LayerCount: 2
Fore
SplineSet
1043 456 m 0,0,1
 1043 233 1043 233 913 107 c 0,2,3
 783 -20 783 -20 551 -20 c 0,4,5
 359 -20 359 -20 240 63 c 128,-1,6
 121 146 121 146 88 303 c 1,7,-1
 238 323 l 1,8,9
 269 214 269 214 348 158 c 128,-1,10
 427 102 427 102 555 102 c 0,11,12
 713 102 713 102 802 196 c 0,13,14
 890 290 890 290 890 452 c 0,15,16
 890 592 890 592 800 680 c 0,17,18
 710 767 710 767 558 767 c 0,19,20
 480 767 480 767 412 744 c 128,-1,21
 344 721 344 721 273 663 c 1,22,-1
 129 663 l 1,23,-1
 176 1409 l 1,24,-1
 961 1409 l 1,25,-1
 961 1274 l 1,26,-1
 310 1274 l 1,27,-1
 281 797 l 1,28,29
 403 887 403 887 584 887 c 0,30,31
 725 887 725 887 828 832 c 128,-1,32
 931 777 931 777 987 680 c 128,-1,33
 1043 583 1043 583 1043 456 c 0,0,1
EndSplineSet
EndChar

StartChar: six
Encoding: 54 54 25
Width: 1139
GlyphClass: 2
Flags: W
LayerCount: 2
Fore
SplineSet
1044 461 m 0,0,1
 1044 239 1044 239 924 109 c 0,2,3
 805 -20 805 -20 595 -20 c 0,4,5
 361 -20 361 -20 237 158 c 128,-1,6
 113 336 113 336 114 672 c 0,7,8
 114 1034 114 1034 243 1232 c 0,9,10
 373 1430 373 1430 611 1430 c 0,11,12
 765 1430 765 1430 865 1360 c 128,-1,13
 965 1290 965 1290 1004 1155 c 1,14,-1
 863 1126 l 1,15,16
 806 1309 806 1309 611 1309 c 0,17,18
 443 1309 443 1309 352 1156 c 0,19,20
 261 1002 261 1002 261 716 c 1,21,22
 311 812 311 812 403 862 c 128,-1,23
 495 912 495 912 615 912 c 0,24,25
 812 912 812 912 928 790 c 0,26,27
 1044 667 1044 667 1044 461 c 0,0,1
893 453 m 128,-1,29
 893 617 893 617 812 706 c 128,-1,30
 731 795 731 795 584 796 c 0,31,32
 447 796 447 796 363 718 c 0,33,34
 278 640 278 640 278 500 c 0,35,36
 278 383 278 383 319 293 c 0,37,38
 359 202 359 202 429 152 c 0,39,40
 499 101 499 101 590 101 c 0,41,42
 732 101 732 101 812 195 c 0,43,28
 893 289 893 289 893 453 c 128,-1,29
EndSplineSet
EndChar

StartChar: seven
Encoding: 55 55 26
Width: 1139
GlyphClass: 2
Flags: W
LayerCount: 2
Fore
SplineSet
1032 1288 m 1,0,1
 920 1118 920 1118 846 993 c 128,-1,2
 772 868 772 868 734 790 c 0,3,4
 636 588 636 588 589 396 c 128,-1,5
 542 204 542 204 542 0 c 1,6,-1
 389 0 l 1,7,8
 389 133 389 133 416 278 c 0,9,10
 443 422 443 422 503 581 c 0,11,12
 566 745 566 745 662 920 c 0,13,14
 758 1096 758 1096 886 1282 c 1,15,-1
 111 1282 l 1,16,-1
 111 1409 l 1,17,-1
 1032 1409 l 1,18,-1
 1032 1288 l 1,0,1
EndSplineSet
EndChar

StartChar: eight
Encoding: 56 56 27
Width: 1139
GlyphClass: 2
Flags: W
LayerCount: 2
Fore
SplineSet
1041 392 m 0,0,1
 1041 198 1041 198 920 89 c 0,2,3
 798 -20 798 -20 570 -20 c 0,4,5
 349 -20 349 -20 223 86 c 128,-1,6
 97 192 97 192 97 390 c 0,7,8
 97 529 97 529 176 623 c 128,-1,9
 255 717 255 717 376 737 c 1,10,-1
 376 741 l 1,11,12
 261 769 261 769 195 859 c 0,13,14
 130 950 130 950 130 1073 c 0,15,16
 130 1230 130 1230 250 1330 c 128,-1,17
 370 1430 370 1430 566 1430 c 0,18,19
 767 1430 767 1430 887 1332 c 128,-1,20
 1007 1234 1007 1234 1006 1071 c 0,21,22
 1006 948 1006 948 940 857 c 128,-1,23
 874 766 874 766 758 743 c 1,24,-1
 758 739 l 1,25,26
 893 717 893 717 967 624 c 0,27,28
 1041 530 1041 530 1041 392 c 0,0,1
853 1063 m 0,29,30
 853 1317 853 1317 566 1317 c 0,31,32
 280 1317 280 1317 280 1063 c 0,33,34
 280 935 280 935 356 867 c 128,-1,35
 432 799 432 799 568 799 c 0,36,37
 707 799 707 799 780 862 c 0,38,39
 853 924 853 924 853 1063 c 0,29,30
889 407 m 0,40,41
 889 545 889 545 803 615 c 128,-1,42
 717 685 717 685 566 685 c 0,43,44
 417 685 417 685 333 609 c 128,-1,45
 249 533 249 533 249 403 c 0,46,47
 249 251 249 251 330 172 c 0,48,49
 411 94 411 94 572 94 c 0,50,51
 732 94 732 94 810 169 c 0,52,53
 889 244 889 244 889 407 c 0,40,41
EndSplineSet
EndChar

StartChar: nine
Encoding: 57 57 28
Width: 1139
GlyphClass: 2
Flags: W
LayerCount: 2
Fore
SplineSet
1035 735 m 0,0,1
 1035 376 1035 376 904 178 c 128,-1,2
 773 -20 773 -20 530 -20 c 0,3,4
 372 -20 372 -20 275 46 c 0,5,6
 177 112 177 112 135 262 c 1,7,-1
 276 285 l 1,8,9
 335 99 335 99 533 100 c 0,10,11
 700 100 700 100 793 254 c 0,12,13
 885 408 885 408 889 690 c 1,14,15
 848 595 848 595 748 537 c 128,-1,16
 648 479 648 479 527 478 c 0,17,18
 400 478 400 478 305 538 c 0,19,20
 210 597 210 597 157 705 c 128,-1,21
 104 813 104 813 104 955 c 0,22,23
 104 1176 104 1176 227 1303 c 128,-1,24
 350 1430 350 1430 566 1430 c 0,25,26
 795 1430 795 1430 915 1256 c 0,27,28
 1035 1083 1035 1083 1035 735 c 0,0,1
872 901 m 0,29,30
 872 1084 872 1084 788 1196 c 0,31,32
 703 1308 703 1308 560 1308 c 0,33,34
 418 1308 418 1308 336 1213 c 128,-1,35
 254 1118 254 1118 254 956 c 0,36,37
 254 790 254 790 336 694 c 128,-1,38
 418 598 418 598 557 598 c 0,39,40
 641 598 641 598 713 637 c 128,-1,41
 785 676 785 676 828 744 c 0,42,43
 872 813 872 813 872 901 c 0,29,30
EndSplineSet
EndChar

StartChar: colon
Encoding: 58 58 29
Width: 531
GlyphClass: 2
Flags: W
LayerCount: 2
Fore
SplineSet
348 1098 m 1,0,-1
 348 916 l 1,1,-1
 184 916 l 1,2,-1
 184 1098 l 1,3,-1
 348 1098 l 1,0,-1
348 183 m 1,4,-1
 348 0 l 1,5,-1
 184 0 l 1,6,-1
 184 183 l 1,7,-1
 348 183 l 1,4,-1
EndSplineSet
EndChar

StartChar: semicolon
Encoding: 59 59 30
Width: 531
GlyphClass: 2
Flags: W
LayerCount: 2
Fore
SplineSet
351 1098 m 1,0,-1
 351 916 l 1,1,-1
 187 916 l 1,2,-1
 187 1098 l 1,3,-1
 351 1098 l 1,0,-1
351 46 m 2,4,5
 351 -55 351 -55 334 -119 c 128,-1,6
 317 -183 317 -183 283 -244 c 1,7,-1
 180 -244 l 1,8,9
 221 -180 221 -180 242 -120 c 0,10,11
 262 -60 262 -60 262 0 c 1,12,-1
 187 0 l 1,13,-1
 187 183 l 1,14,-1
 351 183 l 1,15,-1
 351 46 l 2,4,5
EndSplineSet
EndChar

StartChar: less
Encoding: 60 60 31
Width: 1196
GlyphClass: 2
Flags: W
LayerCount: 2
Fore
SplineSet
1090 292 m 1,0,-1
 1090 164 l 1,1,-1
 106 589 l 1,2,-1
 106 756 l 1,3,-1
 1090 1182 l 1,4,-1
 1090 1053 l 1,5,-1
 224 673 l 1,6,-1
 1090 292 l 1,0,-1
EndSplineSet
EndChar

StartChar: equal
Encoding: 61 61 32
Width: 1196
GlyphClass: 2
Flags: W
LayerCount: 2
Fore
SplineSet
1089 984 m 1,0,-1
 1089 861 l 1,1,-1
 105 861 l 1,2,-1
 105 984 l 1,3,-1
 1089 984 l 1,0,-1
1089 485 m 1,4,-1
 1089 361 l 1,5,-1
 105 361 l 1,6,-1
 105 485 l 1,7,-1
 1089 485 l 1,4,-1
EndSplineSet
EndChar

StartChar: greater
Encoding: 62 62 33
Width: 1196
GlyphClass: 2
Flags: W
LayerCount: 2
Fore
SplineSet
1090 589 m 1,0,-1
 106 164 l 1,1,-1
 106 292 l 1,2,-1
 973 673 l 1,3,-1
 106 1053 l 1,4,-1
 106 1182 l 1,5,-1
 1090 756 l 1,6,-1
 1090 589 l 1,0,-1
EndSplineSet
EndChar

StartChar: question
Encoding: 63 63 34
Width: 1102
GlyphClass: 2
Flags: W
LayerCount: 2
Fore
SplineSet
1040 1034 m 0,0,1
 1040 916 1040 916 990 836 c 128,-1,2
 940 756 940 756 817 665 c 2,3,-1
 735 604 l 2,4,5
 590 499 590 499 591 361 c 1,6,-1
 446 361 l 1,7,8
 449 461 449 461 484 525 c 0,9,10
 519 590 519 590 571 632 c 0,11,12
 622 674 622 674 671 710 c 0,13,14
 723 748 723 748 774 788 c 128,-1,15
 825 828 825 828 858 884 c 128,-1,16
 891 940 891 940 891 1027 c 0,17,18
 891 1150 891 1150 807 1221 c 128,-1,19
 723 1292 723 1292 572 1292 c 0,20,21
 419 1292 419 1292 332 1218 c 0,22,23
 246 1144 246 1144 231 1014 c 1,24,-1
 81 1026 l 1,25,26
 107 1222 107 1222 233 1326 c 0,27,28
 360 1430 360 1430 570 1430 c 0,29,30
 788 1430 788 1430 914 1325 c 128,-1,31
 1040 1220 1040 1220 1040 1034 c 0,0,1
602 178 m 1,32,-1
 602 0 l 1,33,-1
 438 0 l 1,34,-1
 438 178 l 1,35,-1
 602 178 l 1,32,-1
EndSplineSet
EndChar

StartChar: at
Encoding: 64 64 35
Width: 2106
GlyphClass: 2
Flags: W
LayerCount: 2
Fore
SplineSet
1910 765 m 0,0,1
 1910 578 1910 578 1855 428 c 0,2,3
 1799 277 1799 277 1700 195 c 0,4,5
 1601 114 1601 114 1474 114 c 0,6,7
 1373 114 1373 114 1317 157 c 0,8,9
 1262 201 1262 201 1262 291 c 0,10,11
 1263 307 1263 307 1263 326 c 0,12,13
 1263 344 1263 344 1264 362 c 1,14,-1
 1258 362 l 1,15,16
 1187 233 1187 233 1089 174 c 0,17,18
 992 114 992 114 876 114 c 0,19,20
 719 114 719 114 632 216 c 0,21,22
 546 318 546 318 546 499 c 0,23,24
 546 662 546 662 611 804 c 0,25,26
 676 944 676 944 792 1027 c 128,-1,27
 908 1110 908 1110 1049 1111 c 0,28,29
 1275 1111 1275 1111 1362 926 c 1,30,-1
 1368 926 l 1,31,-1
 1407 1089 l 1,32,-1
 1563 1089 l 1,33,-1
 1447 583 l 2,34,35
 1410 425 1410 425 1410 326 c 0,36,37
 1410 280 1410 280 1430 255 c 0,38,39
 1450 231 1450 231 1492 231 c 0,40,41
 1573 231 1573 231 1638 300 c 0,42,43
 1704 369 1704 369 1742 491 c 0,44,45
 1779 613 1779 613 1779 763 c 0,46,47
 1779 942 1779 942 1702 1084 c 0,48,49
 1625 1223 1625 1223 1479 1298 c 0,50,51
 1334 1373 1334 1373 1139 1373 c 0,52,53
 898 1373 898 1373 710 1265 c 0,54,55
 523 1157 523 1157 416 955 c 0,56,57
 310 752 310 752 310 501 c 0,58,59
 310 307 310 307 388 162 c 0,60,61
 465 14 465 14 616 -67 c 0,62,63
 766 -147 766 -147 965 -147 c 0,64,65
 1109 -147 1109 -147 1259 -110 c 128,-1,66
 1409 -73 1409 -73 1573 18 c 1,67,-1
 1626 -91 l 1,68,69
 1489 -175 1489 -175 1316 -222 c 0,70,71
 1144 -269 1144 -269 968 -269 c 0,72,73
 725 -269 725 -269 545 -173 c 0,74,75
 364 -78 364 -78 269 97 c 0,76,77
 175 272 175 272 176 501 c 0,78,79
 176 779 176 779 300 1009 c 0,80,81
 425 1238 425 1238 644 1366 c 0,82,83
 864 1494 864 1494 1137 1494 c 0,84,85
 1377 1494 1377 1494 1552 1404 c 0,86,87
 1726 1313 1726 1313 1818 1148 c 128,-1,88
 1910 983 1910 983 1910 765 c 0,0,1
1317 756 m 0,89,90
 1317 860 1317 860 1249 923 c 128,-1,91
 1181 986 1181 986 1066 987 c 0,92,93
 963 987 963 987 882 922 c 0,94,95
 803 859 803 859 757 747 c 128,-1,96
 711 635 711 635 711 501 c 0,97,98
 711 379 711 379 758 310 c 128,-1,99
 805 241 805 241 904 242 c 0,100,101
 986 242 986 242 1060 285 c 128,-1,102
 1134 328 1134 328 1192 399 c 0,103,104
 1233 451 1233 451 1260 518 c 0,105,106
 1288 586 1288 586 1303 651 c 0,107,108
 1317 716 1317 716 1317 756 c 0,89,90
EndSplineSet
EndChar

StartChar: A
Encoding: 65 65 36
Width: 1328
GlyphClass: 2
Flags: W
LayerCount: 2
Fore
SplineSet
329 429 m 1,0,-1
 154 0 l 1,1,-1
 -12 0 l 1,2,-1
 584 1409 l 1,3,-1
 757 1409 l 1,4,-1
 1341 0 l 1,5,-1
 1178 0 l 1,6,-1
 1005 429 l 1,7,-1
 329 429 l 1,0,-1
667 1289 m 1,8,9
 648 1228 648 1228 623 1155 c 128,-1,10
 598 1082 598 1082 573 1021 c 2,11,-1
 384 554 l 1,12,-1
 951 554 l 1,13,-1
 761 1026 l 2,14,15
 747 1059 747 1059 720 1130 c 128,-1,16
 693 1201 693 1201 667 1289 c 1,8,9
EndSplineSet
EndChar

StartChar: B
Encoding: 66 66 37
Width: 1328
GlyphClass: 2
Flags: W
LayerCount: 2
Fore
SplineSet
1216 395 m 0,0,1
 1216 208 1216 208 1081 104 c 128,-1,2
 946 0 946 0 706 0 c 2,3,-1
 178 0 l 1,4,-1
 178 1409 l 1,5,-1
 646 1409 l 2,6,7
 891 1409 891 1409 1012 1325 c 128,-1,8
 1133 1241 1133 1241 1133 1071 c 0,9,10
 1133 944 1133 944 1062 858 c 128,-1,11
 991 772 991 772 866 744 c 1,12,13
 1033 724 1033 724 1124 630 c 0,14,15
 1216 535 1216 535 1216 395 c 0,0,1
976 1054 m 0,16,17
 976 1174 976 1174 892 1226 c 128,-1,18
 808 1278 808 1278 651 1278 c 2,19,-1
 335 1278 l 1,20,-1
 335 800 l 1,21,-1
 650 800 l 2,22,23
 812 800 812 800 894 862 c 128,-1,24
 976 924 976 924 976 1054 c 0,16,17
1057 408 m 0,25,26
 1057 674 1057 674 685 674 c 2,27,-1
 335 674 l 1,28,-1
 335 131 l 1,29,-1
 701 131 l 2,30,31
 887 131 887 131 972 201 c 0,32,33
 1057 270 1057 270 1057 408 c 0,25,26
EndSplineSet
EndChar

StartChar: C
Encoding: 67 67 38
Width: 1479
GlyphClass: 2
Flags: W
LayerCount: 2
Fore
SplineSet
802 112 m 0,0,1
 1107 112 1107 112 1271 414 c 1,2,-1
 1394 342 l 1,3,4
 1306 167 1306 167 1149 74 c 0,5,6
 992 -20 992 -20 790 -20 c 0,7,8
 580 -20 580 -20 427 70 c 0,9,10
 275 160 275 160 193 324 c 0,11,12
 111 489 111 489 111 711 c 0,13,14
 111 934 111 934 193 1095 c 0,15,16
 276 1256 276 1256 429 1343 c 128,-1,17
 582 1430 582 1430 793 1430 c 0,18,19
 1010 1430 1010 1430 1159 1346 c 128,-1,20
 1308 1262 1308 1262 1382 1095 c 1,21,-1
 1227 1039 l 1,22,23
 1173 1168 1173 1168 1061 1233 c 0,24,25
 949 1299 949 1299 793 1299 c 0,26,27
 548 1299 548 1299 409 1140 c 128,-1,28
 270 981 270 981 271 711 c 0,29,30
 271 536 271 536 337 400 c 128,-1,31
 403 264 403 264 522 188 c 128,-1,32
 641 112 641 112 802 112 c 0,0,1
EndSplineSet
EndChar

StartChar: D
Encoding: 68 68 39
Width: 1479
GlyphClass: 2
Flags: W
LayerCount: 2
Fore
SplineSet
1377 720 m 0,0,1
 1377 498 1377 498 1291 337 c 128,-1,2
 1205 176 1205 176 1050 88 c 0,3,4
 896 0 896 0 691 0 c 2,5,-1
 178 0 l 1,6,-1
 178 1409 l 1,7,-1
 630 1409 l 2,8,9
 989 1410 989 1410 1183 1230 c 128,-1,10
 1377 1050 1377 1050 1377 720 c 0,0,1
1220 720 m 0,11,12
 1220 994 1220 994 1068 1137 c 128,-1,13
 916 1280 916 1280 626 1281 c 2,14,-1
 335 1281 l 1,15,-1
 335 128 l 1,16,-1
 670 128 l 2,17,18
 837 128 837 128 960 200 c 128,-1,19
 1083 272 1083 272 1151 405 c 0,20,21
 1220 538 1220 538 1220 720 c 0,11,12
EndSplineSet
EndChar

StartChar: E
Encoding: 69 69 40
Width: 1366
GlyphClass: 2
Flags: W
LayerCount: 2
Fore
SplineSet
1275 132 m 1,0,-1
 1275 0 l 1,1,-1
 178 0 l 1,2,-1
 178 1409 l 1,3,-1
 1234 1409 l 1,4,-1
 1234 1277 l 1,5,-1
 335 1277 l 1,6,-1
 335 792 l 1,7,-1
 1175 792 l 1,8,-1
 1175 663 l 1,9,-1
 335 663 l 1,10,-1
 335 132 l 1,11,-1
 1275 132 l 1,0,-1
EndSplineSet
EndChar

StartChar: F
Encoding: 70 70 41
Width: 1251
GlyphClass: 2
Flags: W
LayerCount: 2
Fore
SplineSet
335 589 m 1,0,-1
 335 0 l 1,1,-1
 178 0 l 1,2,-1
 178 1409 l 1,3,-1
 1167 1409 l 1,4,-1
 1167 1277 l 1,5,-1
 335 1277 l 1,6,-1
 335 724 l 1,7,-1
 1142 724 l 1,8,-1
 1142 589 l 1,9,-1
 335 589 l 1,0,-1
EndSplineSet
EndChar

StartChar: G
Encoding: 71 71 42
Width: 1593
GlyphClass: 2
Flags: W
LayerCount: 2
Fore
SplineSet
815 110 m 0,0,1
 961 110 961 110 1084 155 c 128,-1,2
 1207 200 1207 200 1286 278 c 1,3,-1
 1286 552 l 1,4,-1
 840 552 l 1,5,-1
 840 692 l 1,6,-1
 1431 692 l 1,7,-1
 1431 217 l 1,8,9
 1319 103 1319 103 1163 42 c 0,10,11
 1006 -20 1006 -20 818 -20 c 0,12,13
 601 -20 601 -20 442 70 c 128,-1,14
 283 160 283 160 196 325 c 128,-1,15
 109 490 109 490 109 711 c 0,16,17
 109 1052 109 1052 293 1241 c 0,18,19
 476 1430 476 1430 804 1430 c 0,20,21
 1033 1430 1033 1430 1175 1355 c 128,-1,22
 1317 1280 1317 1280 1400 1110 c 1,23,-1
 1248 1065 l 1,24,25
 1183 1189 1183 1189 1073 1244 c 0,26,27
 964 1299 964 1299 797 1299 c 0,28,29
 541 1299 541 1299 405 1144 c 128,-1,30
 269 989 269 989 269 711 c 0,31,32
 269 435 269 435 415 272 c 0,33,34
 560 110 560 110 815 110 c 0,0,1
EndSplineSet
EndChar

StartChar: H
Encoding: 72 72 43
Width: 1479
GlyphClass: 2
Flags: W
LayerCount: 2
Fore
SplineSet
335 669 m 1,0,-1
 335 0 l 1,1,-1
 178 0 l 1,2,-1
 178 1409 l 1,3,-1
 335 1409 l 1,4,-1
 335 801 l 1,5,-1
 1146 801 l 1,6,-1
 1146 1409 l 1,7,-1
 1302 1409 l 1,8,-1
 1302 0 l 1,9,-1
 1146 0 l 1,10,-1
 1146 669 l 1,11,-1
 335 669 l 1,0,-1
EndSplineSet
EndChar

StartChar: I
Encoding: 73 73 44
Width: 569
GlyphClass: 2
Flags: W
LayerCount: 2
Fore
SplineSet
363 1409 m 1,0,-1
 363 0 l 1,1,-1
 206 0 l 1,2,-1
 206 1409 l 1,3,-1
 363 1409 l 1,0,-1
EndSplineSet
EndChar

StartChar: J
Encoding: 74 74 45
Width: 986
GlyphClass: 2
Flags: W
LayerCount: 2
Fore
SplineSet
435 -20 m 0,0,1
 269 -20 269 -20 167 72 c 128,-1,2
 65 164 65 164 32 339 c 1,3,-1
 184 366 l 1,4,5
 202 248 202 248 270 179 c 128,-1,6
 338 110 338 110 436 110 c 0,7,8
 545 110 545 110 610 186 c 128,-1,9
 675 262 675 262 674 408 c 2,10,-1
 674 1409 l 1,11,-1
 830 1409 l 1,12,-1
 830 411 l 2,13,14
 830 211 830 211 724 96 c 0,15,16
 617 -20 617 -20 435 -20 c 0,0,1
EndSplineSet
EndChar

StartChar: K
Encoding: 75 75 46
Width: 1328
GlyphClass: 2
Flags: W
LayerCount: 2
Fore
SplineSet
335 549 m 1,0,-1
 335 0 l 1,1,-1
 178 0 l 1,2,-1
 178 1409 l 1,3,-1
 335 1409 l 1,4,-1
 335 681 l 1,5,-1
 1028 1409 l 1,6,-1
 1214 1409 l 1,7,-1
 615 792 l 1,8,-1
 1304 0 l 1,9,-1
 1104 0 l 1,10,-1
 522 691 l 1,11,-1
 335 549 l 1,0,-1
EndSplineSet
EndChar

StartChar: L
Encoding: 76 76 47
Width: 1102
GlyphClass: 2
Flags: W
LayerCount: 2
Fore
SplineSet
1032 132 m 1,0,-1
 1032 0 l 1,1,-1
 178 0 l 1,2,-1
 178 1409 l 1,3,-1
 335 1409 l 1,4,-1
 335 132 l 1,5,-1
 1032 132 l 1,0,-1
EndSplineSet
EndChar

StartChar: M
Encoding: 77 77 48
Width: 1706
GlyphClass: 2
Flags: W
LayerCount: 2
Fore
SplineSet
318 968 m 2,0,-1
 318 0 l 1,1,-1
 178 0 l 1,2,-1
 178 1409 l 1,3,-1
 382 1409 l 1,4,-1
 797 370 l 2,5,6
 818 313 818 313 837 245 c 128,-1,7
 856 177 856 177 858 159 c 1,8,9
 862 182 862 182 878 233 c 0,10,11
 893 284 893 284 908 330 c 128,-1,12
 923 376 923 376 928 382 c 2,13,-1
 1332 1409 l 1,14,-1
 1528 1409 l 1,15,-1
 1528 0 l 1,16,-1
 1385 0 l 1,17,-1
 1385 968 l 2,18,19
 1385 1062 1385 1062 1388 1133 c 0,20,21
 1390 1204 1390 1204 1394 1266 c 1,22,23
 1372 1192 1372 1192 1353 1129 c 0,24,25
 1333 1066 1333 1066 1312 1017 c 2,26,-1
 911 0 l 1,27,-1
 803 0 l 1,28,-1
 396 1017 l 1,29,-1
 313 1266 l 1,30,31
 314 1205 314 1205 316 1130 c 128,-1,32
 318 1055 318 1055 318 968 c 2,0,-1
EndSplineSet
EndChar

StartChar: N
Encoding: 78 78 49
Width: 1479
GlyphClass: 2
Flags: W
LayerCount: 2
Fore
SplineSet
318 971 m 2,0,-1
 318 0 l 1,1,-1
 178 0 l 1,2,-1
 178 1409 l 1,3,-1
 362 1409 l 1,4,-1
 1170 163 l 1,5,6
 1160 375 1160 375 1160 450 c 2,7,-1
 1160 1409 l 1,8,-1
 1302 1409 l 1,9,-1
 1302 0 l 1,10,-1
 1111 0 l 1,11,-1
 311 1238 l 1,12,13
 311 1176 311 1176 314 1109 c 0,14,15
 318 1043 318 1043 318 971 c 2,0,-1
EndSplineSet
EndChar

StartChar: O
Encoding: 79 79 50
Width: 1593
GlyphClass: 2
Flags: W
LayerCount: 2
Fore
SplineSet
1491 711 m 0,0,1
 1491 483 1491 483 1407 319 c 0,2,3
 1322 155 1322 155 1166 68 c 0,4,5
 1010 -20 1010 -20 796 -20 c 128,-1,6
 582 -20 582 -20 426 68 c 128,-1,7
 270 156 270 156 186 320 c 128,-1,8
 102 484 102 484 101 711 c 0,9,10
 101 937 101 937 184 1097 c 128,-1,11
 267 1257 267 1257 423 1344 c 0,12,13
 579 1430 579 1430 798 1430 c 0,14,15
 1011 1430 1011 1430 1167 1345 c 128,-1,16
 1323 1260 1323 1260 1407 1101 c 0,17,18
 1491 940 1491 940 1491 711 c 0,0,1
1331 711 m 0,19,20
 1331 986 1331 986 1192 1142 c 0,21,22
 1053 1299 1053 1299 798 1299 c 0,23,24
 541 1299 541 1299 401 1145 c 128,-1,25
 261 991 261 991 261 711 c 0,26,27
 261 528 261 528 325 392 c 0,28,29
 388 257 388 257 508 183 c 128,-1,30
 628 109 628 109 796 110 c 0,31,32
 1055 110 1055 110 1193 267 c 128,-1,33
 1331 424 1331 424 1331 711 c 0,19,20
EndSplineSet
EndChar

StartChar: P
Encoding: 80 80 51
Width: 1366
GlyphClass: 2
Flags: W
LayerCount: 2
Fore
SplineSet
1245 992 m 0,0,1
 1245 860 1245 860 1188 765 c 0,2,3
 1130 669 1130 669 1023 618 c 0,4,5
 917 566 917 566 770 566 c 2,6,-1
 335 566 l 1,7,-1
 335 0 l 1,8,-1
 178 0 l 1,9,-1
 178 1409 l 1,10,-1
 758 1409 l 2,11,12
 990 1409 990 1409 1118 1300 c 0,13,14
 1245 1190 1245 1190 1245 992 c 0,0,1
1088 991 m 0,15,16
 1088 1281 1088 1281 738 1281 c 2,17,-1
 335 1281 l 1,18,-1
 335 692 l 1,19,-1
 746 692 l 2,20,21
 919 692 919 692 1003 766 c 0,22,23
 1088 840 1088 840 1088 991 c 0,15,16
EndSplineSet
EndChar

StartChar: Q
Encoding: 81 81 52
Width: 1593
GlyphClass: 2
Flags: W
LayerCount: 2
Fore
SplineSet
1491 711 m 0,0,1
 1491 510 1491 510 1422 355 c 128,-1,2
 1353 200 1353 200 1222 106 c 0,3,4
 1092 12 1092 12 910 -9 c 1,5,6
 953 -144 953 -144 1021 -204 c 128,-1,7
 1089 -264 1089 -264 1188 -264 c 0,8,9
 1243 -264 1243 -264 1302 -250 c 1,10,-1
 1303 -362 l 1,11,12
 1223 -382 1223 -382 1146 -382 c 0,13,14
 999 -382 999 -382 905 -298 c 128,-1,15
 811 -214 811 -214 749 -18 c 1,16,17
 543 -11 543 -11 399 81 c 0,18,19
 254 173 254 173 178 335 c 0,20,21
 102 496 102 496 101 711 c 0,22,23
 101 937 101 937 184 1097 c 128,-1,24
 267 1257 267 1257 423 1344 c 0,25,26
 579 1430 579 1430 798 1430 c 0,27,28
 1019 1430 1019 1430 1174 1342 c 128,-1,29
 1329 1254 1329 1254 1410 1093 c 128,-1,30
 1491 932 1491 932 1491 711 c 0,0,1
1331 711 m 0,31,32
 1331 986 1331 986 1192 1142 c 0,33,34
 1053 1299 1053 1299 798 1299 c 0,35,36
 541 1299 541 1299 401 1145 c 128,-1,37
 261 991 261 991 261 711 c 0,38,39
 261 528 261 528 325 393 c 0,40,41
 388 258 388 258 508 184 c 128,-1,42
 628 110 628 110 796 110 c 0,43,44
 1055 110 1055 110 1193 267 c 128,-1,45
 1331 424 1331 424 1331 711 c 0,31,32
EndSplineSet
EndChar

StartChar: R
Encoding: 82 82 53
Width: 1479
GlyphClass: 2
Flags: W
LayerCount: 2
Fore
SplineSet
335 602 m 1,0,-1
 335 0 l 1,1,-1
 178 0 l 1,2,-1
 178 1409 l 1,3,-1
 828 1409 l 2,4,5
 1061 1409 1061 1409 1188 1303 c 128,-1,6
 1315 1197 1315 1197 1315 1012 c 0,7,8
 1315 852 1315 852 1221 745 c 128,-1,9
 1127 638 1127 638 960 612 c 1,10,-1
 1367 0 l 1,11,-1
 1183 0 l 1,12,-1
 805 602 l 1,13,-1
 335 602 l 1,0,-1
1158 1013 m 0,14,15
 1158 1143 1158 1143 1068 1212 c 128,-1,16
 978 1281 978 1281 813 1281 c 2,17,-1
 335 1281 l 1,18,-1
 335 727 l 1,19,-1
 821 727 l 2,20,21
 981 727 981 727 1069 802 c 0,22,23
 1158 877 1158 877 1158 1013 c 0,14,15
EndSplineSet
EndChar

StartChar: S
Encoding: 83 83 54
Width: 1366
GlyphClass: 2
Flags: W
LayerCount: 2
Fore
SplineSet
1267 383 m 0,0,1
 1267 192 1267 192 1115 86 c 128,-1,2
 963 -20 963 -20 693 -20 c 0,3,4
 185 -20 185 -20 104 328 c 1,5,-1
 256 362 l 1,6,7
 289 230 289 230 400 168 c 128,-1,8
 511 106 511 106 699 105 c 0,9,10
 894 105 894 105 1002 174 c 128,-1,11
 1110 243 1110 243 1111 376 c 0,12,13
 1111 448 1111 448 1080 492 c 0,14,15
 1050 536 1050 536 996 565 c 0,16,17
 931 598 931 598 846 618 c 128,-1,18
 761 638 761 638 664 661 c 0,19,20
 551 686 551 686 472 712 c 128,-1,21
 393 738 393 738 341 768 c 128,-1,22
 289 798 289 798 255 831 c 0,23,24
 213 877 213 877 192 934 c 0,25,26
 171 990 171 990 170 1059 c 0,27,28
 170 1237 170 1237 307 1333 c 0,29,30
 444 1430 444 1430 697 1430 c 0,31,32
 930 1430 930 1430 1055 1359 c 0,33,34
 1181 1288 1181 1288 1236 1116 c 1,35,-1
 1080 1085 l 1,36,37
 1046 1204 1046 1204 953 1255 c 0,38,39
 860 1307 860 1307 696 1307 c 0,40,41
 515 1307 515 1307 419 1247 c 0,42,43
 323 1186 323 1186 323 1066 c 0,44,45
 323 998 323 998 359 953 c 128,-1,46
 395 908 395 908 464 878 c 0,47,48
 528 847 528 847 733 801 c 0,49,50
 807 783 807 783 889 762 c 0,51,52
 970 741 970 741 1048 706 c 0,53,54
 1088 690 1088 690 1127 664 c 0,55,56
 1165 638 1165 638 1194 604 c 0,57,58
 1228 564 1228 564 1248 510 c 0,59,60
 1267 456 1267 456 1267 383 c 0,0,1
EndSplineSet
EndChar

StartChar: T
Encoding: 84 84 55
Width: 1251
GlyphClass: 2
Flags: W
LayerCount: 2
Fore
SplineSet
703 1277 m 1,0,-1
 703 0 l 1,1,-1
 547 0 l 1,2,-1
 547 1277 l 1,3,-1
 54 1277 l 1,4,-1
 54 1409 l 1,5,-1
 1196 1409 l 1,6,-1
 1196 1277 l 1,7,-1
 703 1277 l 1,0,-1
EndSplineSet
EndChar

StartChar: U
Encoding: 85 85 56
Width: 1479
GlyphClass: 2
Flags: W
LayerCount: 2
Fore
SplineSet
734 -20 m 0,0,1
 568 -20 568 -20 440 44 c 0,2,3
 313 108 313 108 241 226 c 128,-1,4
 169 344 169 344 170 507 c 2,5,-1
 170 1409 l 1,6,-1
 326 1409 l 1,7,-1
 326 520 l 2,8,9
 326 318 326 318 430 214 c 128,-1,10
 534 110 534 110 730 110 c 0,11,12
 931 110 931 110 1042 218 c 0,13,14
 1154 326 1154 326 1155 534 c 2,15,-1
 1155 1409 l 1,16,-1
 1310 1409 l 1,17,-1
 1310 526 l 2,18,19
 1310 357 1310 357 1238 235 c 0,20,21
 1166 112 1166 112 1037 46 c 0,22,23
 907 -20 907 -20 734 -20 c 0,0,1
EndSplineSet
EndChar

StartChar: V
Encoding: 86 86 57
Width: 1366
GlyphClass: 2
Flags: W
LayerCount: 2
Fore
SplineSet
1359 1409 m 1,0,-1
 765 0 l 1,1,-1
 600 0 l 1,2,-1
 7 1409 l 1,3,-1
 173 1409 l 1,4,-1
 596 388 l 2,5,6
 623 321 623 321 643 260 c 0,7,8
 663 198 663 198 683 145 c 1,9,10
 699 186 699 186 724 258 c 0,11,12
 748 330 748 330 771 388 c 2,13,-1
 1192 1409 l 1,14,-1
 1359 1409 l 1,0,-1
EndSplineSet
EndChar

StartChar: W
Encoding: 87 87 58
Width: 1933
GlyphClass: 2
Flags: W
LayerCount: 2
Fore
SplineSet
893 908 m 2,0,-1
 631 0 l 1,1,-1
 443 0 l 1,2,-1
 11 1409 l 1,3,-1
 177 1409 l 1,4,-1
 449 503 l 2,5,6
 475 409 475 409 498 319 c 0,7,8
 520 228 520 228 542 131 c 1,9,10
 549 165 549 165 564 231 c 128,-1,11
 579 297 579 297 596 366 c 0,12,13
 613 434 613 434 626 478 c 2,14,-1
 901 1409 l 1,15,-1
 1035 1409 l 1,16,-1
 1296 517 l 2,17,18
 1330 389 1330 389 1355 294 c 0,19,20
 1379 199 1379 199 1396 131 c 1,21,22
 1412 190 1412 190 1430 267 c 0,23,-1
 1464 404 l 0,24,25
 1480 464 1480 464 1484 478 c 2,26,-1
 1758 1409 l 1,27,-1
 1924 1409 l 1,28,-1
 1493 0 l 1,29,-1
 1305 0 l 1,30,-1
 1043 921 l 2,31,32
 1033 952 1033 952 1015 1028 c 0,33,34
 997 1103 997 1103 970 1222 c 1,35,36
 961 1166 961 1166 945 1103 c 0,37,38
 930 1040 930 1040 915 988 c 0,39,40
 901 935 901 935 893 908 c 2,0,-1
EndSplineSet
EndChar

StartChar: X
Encoding: 88 88 59
Width: 1366
GlyphClass: 2
Flags: W
LayerCount: 2
Fore
SplineSet
691 634 m 1,0,-1
 233 0 l 1,1,-1
 55 0 l 1,2,-1
 607 729 l 1,3,-1
 96 1409 l 1,4,-1
 274 1409 l 1,5,-1
 692 838 l 1,6,-1
 1095 1409 l 1,7,-1
 1274 1409 l 1,8,-1
 774 738 l 1,9,-1
 1315 0 l 1,10,-1
 1136 0 l 1,11,-1
 691 634 l 1,0,-1
EndSplineSet
EndChar

StartChar: Y
Encoding: 89 89 60
Width: 1366
GlyphClass: 2
Flags: W
LayerCount: 2
Fore
SplineSet
759 586 m 1,0,-1
 759 0 l 1,1,-1
 604 0 l 1,2,-1
 604 586 l 1,3,-1
 48 1409 l 1,4,-1
 226 1409 l 1,5,-1
 685 713 l 1,6,-1
 1140 1409 l 1,7,-1
 1317 1409 l 1,8,-1
 759 586 l 1,0,-1
EndSplineSet
EndChar

StartChar: Z
Encoding: 90 90 61
Width: 1251
GlyphClass: 2
Flags: W
LayerCount: 2
Fore
SplineSet
1185 131 m 1,0,-1
 1185 0 l 1,1,-1
 66 0 l 1,2,-1
 66 121 l 1,3,-1
 956 1278 l 1,4,-1
 138 1278 l 1,5,-1
 138 1409 l 1,6,-1
 1136 1409 l 1,7,-1
 1136 1292 l 1,8,-1
 247 131 l 1,9,-1
 1185 131 l 1,0,-1
EndSplineSet
EndChar

StartChar: bracketleft
Encoding: 91 91 62
Width: 531
GlyphClass: 2
Flags: W
LayerCount: 2
Fore
SplineSet
519 -316 m 1,0,-1
 519 -425 l 1,1,-1
 156 -425 l 1,2,-1
 156 1484 l 1,3,-1
 519 1484 l 1,4,-1
 519 1375 l 1,5,-1
 300 1375 l 1,6,-1
 300 -316 l 1,7,-1
 519 -316 l 1,0,-1
EndSplineSet
EndChar

StartChar: backslash
Encoding: 92 92 63
Width: 569
GlyphClass: 2
Flags: W
LayerCount: 2
Fore
SplineSet
125 1484 m 1,0,-1
 575 -13 l 1,1,-1
 440 -13 l 1,2,-1
 -7 1484 l 1,3,-1
 125 1484 l 1,0,-1
EndSplineSet
EndChar

StartChar: bracketright
Encoding: 93 93 64
Width: 531
GlyphClass: 2
Flags: W
LayerCount: 2
Fore
SplineSet
375 1484 m 1,0,-1
 375 -425 l 1,1,-1
 13 -425 l 1,2,-1
 13 -316 l 1,3,-1
 231 -316 l 1,4,-1
 231 1375 l 1,5,-1
 13 1375 l 1,6,-1
 13 1484 l 1,7,-1
 375 1484 l 1,0,-1
EndSplineSet
EndChar

StartChar: asciicircum
Encoding: 94 94 65
Width: 883
GlyphClass: 2
Flags: W
LayerCount: 2
Fore
SplineSet
-2 725 m 1,0,-1
 359 1409 l 1,1,-1
 523 1409 l 1,2,-1
 885 725 l 1,3,-1
 742 725 l 1,4,-1
 439 1319 l 1,5,-1
 139 725 l 1,6,-1
 -2 725 l 1,0,-1
EndSplineSet
EndChar

StartChar: underscore
Encoding: 95 95 66
Width: 1139
GlyphClass: 2
Flags: W
LayerCount: 2
Fore
SplineSet
1164 -312 m 1,0,-1
 1164 -459 l 1,1,-1
 -35 -459 l 1,2,-1
 -35 -312 l 1,3,-1
 1164 -312 l 1,0,-1
EndSplineSet
EndChar

StartChar: grave
Encoding: 96 96 67
Width: 682
GlyphClass: 2
Flags: W
LayerCount: 2
Fore
SplineSet
515 1223 m 1,0,-1
 515 1207 l 1,1,-1
 446 1207 l 1,2,-1
 119 1486 l 1,3,-1
 119 1510 l 1,4,-1
 309 1510 l 1,5,-1
 515 1223 l 1,0,-1
EndSplineSet
EndChar

StartChar: a
Encoding: 97 97 68
Width: 1139
GlyphClass: 2
Flags: W
LayerCount: 2
Fore
SplineSet
421 -20 m 0,0,1
 256 -20 256 -20 176 66 c 128,-1,2
 96 152 96 152 96 301 c 0,3,4
 96 469 96 469 207 560 c 128,-1,5
 318 651 318 651 576 657 c 2,6,-1
 822 661 l 1,7,-1
 822 722 l 2,8,9
 822 863 822 863 760 921 c 0,10,11
 698 980 698 980 566 980 c 0,12,13
 431 980 431 980 370 937 c 128,-1,14
 309 894 309 894 297 802 c 1,15,-1
 144 820 l 1,16,17
 187 1102 187 1102 567 1102 c 0,18,19
 771 1102 771 1102 871 1011 c 128,-1,20
 971 920 971 920 972 746 c 2,21,-1
 972 256 l 2,22,23
 972 180 972 180 993 137 c 0,24,25
 1014 95 1014 95 1077 95 c 0,26,27
 1104 95 1104 95 1135 102 c 1,28,-1
 1135 3 l 1,29,30
 1107 -3 1107 -3 1072 -6 c 0,31,32
 1038 -9 1038 -9 1009 -9 c 0,33,34
 911 -9 911 -9 867 43 c 0,35,36
 823 96 823 96 819 212 c 1,37,-1
 813 212 l 1,38,39
 741 82 741 82 648 31 c 0,40,41
 556 -20 556 -20 421 -20 c 0,0,1
822 545 m 1,42,-1
 608 540 l 2,43,44
 473 540 473 540 398 513 c 0,45,46
 324 487 324 487 285 432 c 128,-1,47
 246 377 246 377 245 289 c 0,48,49
 245 197 245 197 297 146 c 0,50,51
 348 95 348 95 446 95 c 0,52,53
 557 95 557 95 640 143 c 0,54,55
 725 191 725 191 773 274 c 0,56,57
 822 357 822 357 822 445 c 2,58,-1
 822 545 l 1,42,-1
EndSplineSet
EndChar

StartChar: b
Encoding: 98 98 69
Width: 1102
GlyphClass: 2
Flags: W
LayerCount: 2
Fore
SplineSet
1015 546 m 0,0,1
 1015 258 1015 258 919 119 c 0,2,3
 822 -20 822 -20 623 -20 c 0,4,5
 497 -20 497 -20 417 23 c 0,6,7
 336 66 336 66 283 166 c 1,8,-1
 281 166 l 1,9,10
 281 147 281 147 279 109 c 128,-1,11
 277 71 277 71 275 38 c 0,12,13
 273 6 273 6 272 0 c 1,14,-1
 131 0 l 1,15,16
 134 20 134 20 135 74 c 128,-1,17
 136 128 136 128 136 215 c 2,18,-1
 136 1484 l 1,19,-1
 283 1484 l 1,20,-1
 283 1058 l 2,21,22
 283 1030 283 1030 282 993 c 128,-1,23
 281 956 281 956 279 913 c 1,24,-1
 283 913 l 1,25,26
 334 1017 334 1017 415 1059 c 0,27,28
 496 1102 496 1102 617 1102 c 0,29,30
 826 1102 826 1102 921 966 c 0,31,32
 1015 831 1015 831 1015 546 c 0,0,1
861 538 m 0,33,34
 861 779 861 779 799 881 c 0,35,36
 737 982 737 982 594 981 c 0,37,38
 429 981 429 981 357 875 c 0,39,40
 284 768 284 768 284 527 c 0,41,42
 284 300 284 300 355 197 c 128,-1,43
 426 94 426 94 592 94 c 0,44,45
 736 94 736 94 799 197 c 0,46,47
 861 299 861 299 861 538 c 0,33,34
EndSplineSet
EndChar

StartChar: c
Encoding: 99 99 70
Width: 986
GlyphClass: 2
Flags: W
LayerCount: 2
Fore
SplineSet
539 -20 m 0,0,1
 318 -20 318 -20 204 123 c 0,2,3
 89 266 89 266 89 544 c 0,4,5
 89 819 89 819 204 960 c 0,6,7
 319 1102 319 1102 535 1102 c 0,8,9
 693 1102 693 1102 798 1019 c 0,10,11
 902 936 902 936 929 792 c 1,12,-1
 776 778 l 1,13,14
 761 870 761 870 701 924 c 128,-1,15
 641 978 641 978 531 978 c 0,16,17
 377 978 377 978 309 882 c 0,18,19
 242 786 242 786 242 546 c 0,20,21
 242 320 242 320 314 213 c 128,-1,22
 386 106 386 106 532 106 c 0,23,24
 633 106 633 106 701 158 c 128,-1,25
 769 210 769 210 785 321 c 1,26,-1
 934 309 l 1,27,28
 920 208 920 208 868 135 c 0,29,30
 816 61 816 61 733 20 c 0,31,32
 649 -20 649 -20 539 -20 c 0,0,1
EndSplineSet
EndChar

StartChar: d
Encoding: 100 100 71
Width: 1102
GlyphClass: 2
Flags: W
LayerCount: 2
Fore
SplineSet
832 0 m 1,0,1
 830 11 830 11 828 41 c 128,-1,2
 826 71 826 71 825 108 c 128,-1,3
 824 145 824 145 824 173 c 1,4,-1
 820 173 l 1,5,6
 769 67 769 67 687 24 c 0,7,8
 606 -20 606 -20 486 -20 c 0,9,10
 276 -20 276 -20 181 115 c 0,11,12
 87 250 87 250 87 535 c 0,13,14
 87 823 87 823 183 962 c 0,15,16
 280 1102 280 1102 479 1102 c 0,17,18
 605 1102 605 1102 686 1058 c 0,19,20
 768 1014 768 1014 819 915 c 1,21,-1
 821 915 l 1,22,-1
 819 1017 l 1,23,-1
 819 1484 l 1,24,-1
 966 1484 l 1,25,-1
 966 219 l 2,26,27
 966 122 966 122 967 68 c 128,-1,28
 968 14 968 14 971 0 c 1,29,-1
 832 0 l 1,0,1
241 543 m 0,30,31
 241 302 241 302 303 201 c 0,32,33
 364 101 364 101 508 102 c 0,34,35
 675 102 675 102 746 210 c 0,36,37
 818 319 818 319 818 556 c 0,38,39
 818 784 818 784 745 886 c 0,40,41
 673 988 673 988 510 988 c 0,42,43
 366 988 366 988 304 885 c 0,44,45
 241 782 241 782 241 543 c 0,30,31
EndSplineSet
EndChar

StartChar: e
Encoding: 101 101 72
Width: 1139
GlyphClass: 2
Flags: W
LayerCount: 2
Fore
SplineSet
243 508 m 1,0,1
 243 313 243 313 326 205 c 128,-1,2
 409 97 409 97 571 98 c 0,3,4
 702 98 702 98 780 149 c 0,5,6
 858 201 858 201 885 276 c 1,7,-1
 1008 223 l 1,8,9
 917 -20 917 -20 575 -20 c 0,10,11
 336 -20 336 -20 213 123 c 0,12,13
 89 266 89 266 89 549 c 0,14,15
 89 817 89 817 212 959 c 0,16,17
 335 1102 335 1102 565 1102 c 0,18,19
 806 1102 806 1102 923 961 c 0,20,21
 1041 820 1041 820 1041 538 c 2,22,-1
 1041 508 l 1,23,-1
 243 508 l 1,0,1
883 634 m 1,24,25
 866 818 866 818 789 901 c 0,26,27
 711 984 711 984 562 984 c 0,28,29
 420 984 420 984 336 890 c 128,-1,30
 252 796 252 796 245 634 c 1,31,-1
 883 634 l 1,24,25
EndSplineSet
EndChar

StartChar: f
Encoding: 102 102 73
Width: 531
GlyphClass: 2
Flags: W
LayerCount: 2
Fore
SplineSet
324 970 m 1,0,-1
 324 0 l 1,1,-1
 177 0 l 1,2,-1
 177 970 l 1,3,-1
 27 970 l 1,4,-1
 27 1082 l 1,5,-1
 177 1082 l 1,6,-1
 177 1207 l 2,7,8
 177 1355 177 1355 238 1418 c 128,-1,9
 299 1481 299 1481 424 1481 c 0,10,11
 497 1481 497 1481 534 1471 c 1,12,-1
 534 1348 l 1,13,14
 483 1356 483 1356 455 1356 c 0,15,16
 387 1356 387 1356 356 1319 c 128,-1,17
 325 1282 325 1282 324 1183 c 2,18,-1
 324 1082 l 1,19,-1
 534 1082 l 1,20,-1
 534 970 l 1,21,-1
 324 970 l 1,0,-1
EndSplineSet
EndChar

StartChar: g
Encoding: 103 103 74
Width: 1102
GlyphClass: 2
Flags: W
LayerCount: 2
Fore
SplineSet
532 -422 m 0,0,1
 362 -422 362 -422 262 -355 c 0,2,3
 162 -287 162 -287 132 -163 c 1,4,-1
 280 -139 l 1,5,6
 299 -217 299 -217 364 -259 c 128,-1,7
 429 -301 429 -301 536 -301 c 0,8,9
 676 -301 676 -301 748 -220 c 128,-1,10
 820 -139 820 -139 820 24 c 2,11,-1
 819 201 l 1,12,-1
 817 201 l 1,13,14
 764 96 764 96 675 42 c 0,15,16
 585 -11 585 -11 469 -11 c 0,17,18
 267 -11 267 -11 177 117 c 0,19,20
 87 246 87 246 87 535 c 0,21,22
 87 829 87 829 185 964 c 0,23,24
 283 1098 283 1098 489 1098 c 0,25,26
 603 1098 603 1098 688 1044 c 128,-1,27
 773 990 773 990 820 893 c 1,28,-1
 821 893 l 1,29,30
 821 912 821 912 823 957 c 128,-1,31
 825 1002 825 1002 828 1041 c 0,32,33
 831 1081 831 1081 832 1082 c 1,34,-1
 972 1082 l 1,35,36
 966 1046 966 1046 966 867 c 2,37,-1
 966 30 l 2,38,39
 966 -197 966 -197 859 -309 c 0,40,41
 751 -422 751 -422 532 -422 c 0,0,1
819 536 m 0,42,43
 819 743 819 743 732 863 c 128,-1,44
 645 983 645 983 514 983 c 0,45,46
 367 983 367 983 302 880 c 128,-1,47
 237 777 237 777 237 538 c 0,48,49
 237 301 237 301 298 201 c 0,50,51
 358 101 358 101 511 101 c 0,52,53
 644 101 644 101 732 219 c 0,54,55
 819 336 819 336 819 536 c 0,42,43
EndSplineSet
EndChar

StartChar: h
Encoding: 104 104 75
Width: 1102
GlyphClass: 2
Flags: W
LayerCount: 2
Fore
SplineSet
283 907 m 1,0,1
 341 1007 341 1007 421 1055 c 0,2,3
 501 1102 501 1102 628 1102 c 0,4,5
 805 1102 805 1102 886 1015 c 128,-1,6
 967 928 967 928 967 733 c 2,7,-1
 967 0 l 1,8,-1
 819 0 l 1,9,-1
 819 712 l 2,10,11
 819 860 819 860 766 924 c 0,12,13
 713 987 713 987 586 987 c 0,14,15
 451 987 451 987 369 899 c 0,16,17
 288 811 288 811 288 657 c 2,18,-1
 288 0 l 1,19,-1
 142 0 l 1,20,-1
 142 1484 l 1,21,-1
 288 1484 l 1,22,-1
 288 1104 l 2,23,24
 288 1063 288 1063 286 1016 c 128,-1,25
 284 969 284 969 282 937 c 128,-1,26
 280 905 280 905 280 907 c 1,27,-1
 283 907 l 1,0,1
EndSplineSet
EndChar

StartChar: i
Encoding: 105 105 76
Width: 417
GlyphClass: 2
Flags: W
LayerCount: 2
Fore
SplineSet
282 1484 m 1,0,-1
 282 1324 l 1,1,-1
 135 1324 l 1,2,-1
 135 1484 l 1,3,-1
 282 1484 l 1,0,-1
282 1082 m 1,4,-1
 282 0 l 1,5,-1
 135 0 l 1,6,-1
 135 1082 l 1,7,-1
 282 1082 l 1,4,-1
EndSplineSet
Substitution2: "Single Substitution lookup 3 subtable" dotlessi
EndChar

StartChar: j
Encoding: 106 106 77
Width: 417
GlyphClass: 2
Flags: W
LayerCount: 2
Fore
SplineSet
281 1484 m 1,0,-1
 281 1324 l 1,1,-1
 135 1324 l 1,2,-1
 135 1484 l 1,3,-1
 281 1484 l 1,0,-1
57 -425 m 0,4,5
 -14 -425 -14 -425 -56 -416 c 1,6,-1
 -56 -296 l 1,7,8
 -39 -298 -39 -298 -23 -301 c 0,9,10
 -7 -303 -7 -303 10 -303 c 0,11,12
 78 -303 78 -303 106 -266 c 128,-1,13
 134 -229 134 -229 135 -123 c 2,14,-1
 135 1082 l 1,15,-1
 281 1082 l 1,16,-1
 281 -136 l 2,17,18
 281 -292 281 -292 225 -359 c 0,19,20
 170 -425 170 -425 57 -425 c 0,4,5
EndSplineSet
Substitution2: "Single Substitution lookup 3 subtable" uni0237
EndChar

StartChar: k
Encoding: 107 107 78
Width: 986
GlyphClass: 2
Flags: W
LayerCount: 2
Fore
SplineSet
283 378 m 1,0,-1
 283 0 l 1,1,-1
 136 0 l 1,2,-1
 136 1484 l 1,3,-1
 283 1484 l 1,4,-1
 283 532 l 1,5,-1
 787 1082 l 1,6,-1
 968 1082 l 1,7,-1
 510 603 l 1,8,-1
 989 0 l 1,9,-1
 810 0 l 1,10,-1
 419 495 l 1,11,-1
 283 378 l 1,0,-1
EndSplineSet
EndChar

StartChar: l
Encoding: 108 108 79
Width: 417
GlyphClass: 2
Flags: W
LayerCount: 2
Fore
SplineSet
283 1484 m 1,0,-1
 283 0 l 1,1,-1
 136 0 l 1,2,-1
 136 1484 l 1,3,-1
 283 1484 l 1,0,-1
EndSplineSet
EndChar

StartChar: m
Encoding: 109 109 80
Width: 1668
GlyphClass: 2
Flags: W
LayerCount: 2
Fore
SplineSet
287 643 m 2,0,-1
 287 0 l 1,1,-1
 142 0 l 1,2,-1
 142 855 l 2,3,4
 142 953 142 953 140 1010 c 0,5,6
 139 1068 139 1068 136 1082 c 1,7,-1
 274 1082 l 1,8,9
 276 1057 276 1057 278 1029 c 128,-1,10
 280 1001 280 1001 280 970 c 0,11,12
 281 939 281 939 280 907 c 1,13,-1
 283 907 l 1,14,15
 343 1019 343 1019 417 1060 c 128,-1,16
 491 1101 491 1101 599 1102 c 0,17,18
 722 1102 722 1102 792 1056 c 128,-1,19
 862 1010 862 1010 891 907 c 1,20,-1
 893 907 l 1,21,22
 949 1010 949 1010 1030 1056 c 0,23,24
 1110 1102 1110 1102 1221 1102 c 0,25,26
 1387 1102 1387 1102 1459 1019 c 128,-1,27
 1531 936 1531 936 1530 732 c 2,28,-1
 1530 0 l 1,29,-1
 1386 0 l 1,30,-1
 1386 712 l 2,31,32
 1386 874 1386 874 1342 930 c 128,-1,33
 1298 986 1298 986 1177 986 c 0,34,35
 1047 986 1047 986 978 896 c 128,-1,36
 909 806 909 806 909 638 c 2,37,-1
 909 0 l 1,38,-1
 764 0 l 1,39,-1
 764 712 l 2,40,41
 764 874 764 874 720 930 c 128,-1,42
 676 986 676 986 555 986 c 0,43,44
 430 986 430 986 358 898 c 0,45,46
 287 810 287 810 287 643 c 2,0,-1
EndSplineSet
EndChar

StartChar: n
Encoding: 110 110 81
Width: 1102
GlyphClass: 2
Flags: W
LayerCount: 2
Fore
SplineSet
288 643 m 2,0,-1
 288 0 l 1,1,-1
 142 0 l 1,2,-1
 142 855 l 2,3,4
 142 953 142 953 140 1010 c 0,5,6
 139 1068 139 1068 136 1082 c 1,7,-1
 274 1082 l 1,8,9
 276 1061 276 1061 277 1037 c 128,-1,10
 278 1013 278 1013 279 982 c 128,-1,11
 280 951 280 951 280 907 c 1,12,-1
 283 907 l 1,13,14
 347 1015 347 1015 427 1058 c 128,-1,15
 507 1101 507 1101 628 1102 c 0,16,17
 808 1102 808 1102 888 1016 c 0,18,19
 967 930 967 930 967 732 c 2,20,-1
 967 0 l 1,21,-1
 819 0 l 1,22,-1
 819 712 l 2,23,24
 819 871 819 871 768 929 c 128,-1,25
 717 987 717 987 586 986 c 0,26,27
 447 986 447 986 367 897 c 0,28,29
 288 808 288 808 288 643 c 2,0,-1
EndSplineSet
EndChar

StartChar: o
Encoding: 111 111 82
Width: 1102
GlyphClass: 2
Flags: W
LayerCount: 2
Fore
SplineSet
1014 542 m 0,0,1
 1014 251 1014 251 896 116 c 0,2,3
 778 -20 778 -20 547 -20 c 0,4,5
 315 -20 315 -20 201 123 c 0,6,7
 88 266 88 266 88 542 c 0,8,9
 88 828 88 828 202 965 c 128,-1,10
 316 1102 316 1102 553 1102 c 0,11,12
 795 1102 795 1102 904 968 c 0,13,14
 1014 834 1014 834 1014 542 c 0,0,1
860 542 m 0,15,16
 860 776 860 776 792 883 c 0,17,18
 724 989 724 989 555 989 c 0,19,20
 387 989 387 989 315 881 c 0,21,22
 242 774 242 774 242 542 c 0,23,24
 242 317 242 317 314 205 c 128,-1,25
 386 93 386 93 545 94 c 0,26,27
 718 94 718 94 789 201 c 0,28,29
 860 309 860 309 860 542 c 0,15,16
EndSplineSet
EndChar

StartChar: p
Encoding: 112 112 83
Width: 1102
GlyphClass: 2
Flags: W
LayerCount: 2
Fore
SplineSet
1015 546 m 0,0,1
 1015 259 1015 259 919 120 c 0,2,3
 822 -20 822 -20 623 -20 c 0,4,5
 368 -20 368 -20 284 167 c 1,6,-1
 280 167 l 1,7,8
 283 168 283 168 283 1 c 2,9,-1
 283 -425 l 1,10,-1
 136 -425 l 1,11,-1
 136 870 l 2,12,13
 136 955 136 955 135 1009 c 0,14,15
 134 1062 134 1062 131 1082 c 1,16,-1
 272 1082 l 1,17,18
 272 1081 272 1081 275 1043 c 0,19,20
 277 1006 277 1006 280 964 c 0,21,22
 282 922 282 922 282 909 c 1,23,-1
 286 909 l 1,24,25
 334 1009 334 1009 410 1054 c 0,26,27
 486 1100 486 1100 617 1100 c 0,28,29
 821 1100 821 1100 918 969 c 0,30,31
 1015 839 1015 839 1015 546 c 0,0,1
861 541 m 0,32,33
 861 782 861 782 798 880 c 0,34,35
 735 979 735 979 595 979 c 0,36,37
 435 979 435 979 360 875 c 128,-1,38
 285 771 285 771 284 525 c 0,39,40
 284 299 284 299 355 196 c 128,-1,41
 426 93 426 93 593 94 c 0,42,43
 734 94 734 94 797 194 c 0,44,45
 861 294 861 294 861 541 c 0,32,33
EndSplineSet
EndChar

StartChar: q
Encoding: 113 113 84
Width: 1102
GlyphClass: 2
Flags: W
LayerCount: 2
Fore
SplineSet
87 535 m 0,0,1
 87 823 87 823 183 962 c 0,2,3
 279 1102 279 1102 478 1102 c 0,4,5
 603 1102 603 1102 684 1060 c 128,-1,6
 765 1018 765 1018 821 916 c 1,7,8
 821 932 821 932 823 977 c 0,9,10
 825 1021 825 1021 827 1061 c 0,11,12
 830 1100 830 1100 832 1101 c 1,13,-1
 973 1101 l 1,14,15
 969 1080 969 1080 967 1002 c 128,-1,16
 965 924 965 924 966 790 c 2,17,-1
 966 -425 l 1,18,-1
 818 -425 l 1,19,-1
 818 10 l 1,20,-1
 822 177 l 1,21,-1
 820 177 l 1,22,23
 763 68 763 68 688 24 c 0,24,25
 612 -20 612 -20 486 -20 c 0,26,27
 274 -20 274 -20 180 116 c 0,28,29
 87 253 87 253 87 535 c 0,0,1
818 557 m 0,30,31
 818 781 818 781 745 884 c 0,32,33
 672 988 672 988 509 988 c 0,34,35
 364 988 364 988 302 883 c 0,36,37
 241 778 241 778 241 543 c 0,38,39
 241 302 241 302 303 201 c 0,40,41
 365 101 365 101 507 102 c 0,42,43
 674 102 674 102 746 214 c 0,44,45
 818 327 818 327 818 557 c 0,30,31
EndSplineSet
EndChar

StartChar: r
Encoding: 114 114 85
Width: 644
GlyphClass: 2
Flags: W
LayerCount: 2
Fore
SplineSet
288 575 m 2,0,-1
 288 0 l 1,1,-1
 142 0 l 1,2,-1
 142 831 l 2,3,4
 142 877 142 877 140 941 c 0,5,6
 139 1005 139 1005 136 1082 c 1,7,-1
 274 1082 l 1,8,9
 276 1024 276 1024 277 985 c 128,-1,10
 278 946 278 946 279 922 c 128,-1,11
 280 898 280 898 280 885 c 128,-1,12
 280 872 280 872 280 864 c 1,13,-1
 284 864 l 1,14,15
 311 957 311 957 348 1013 c 0,16,17
 384 1064 384 1064 429 1083 c 128,-1,18
 474 1102 474 1102 541 1102 c 0,19,20
 572 1102 572 1102 609 1093 c 1,21,-1
 609 951 l 1,22,23
 586 959 586 959 521 960 c 0,24,25
 407 960 407 960 348 859 c 0,26,27
 288 759 288 759 288 575 c 2,0,-1
EndSplineSet
EndChar

StartChar: s
Encoding: 115 115 86
Width: 986
GlyphClass: 2
Flags: W
LayerCount: 2
Fore
SplineSet
915 293 m 0,0,1
 915 141 915 141 804 61 c 0,2,3
 693 -20 693 -20 491 -20 c 0,4,5
 296 -20 296 -20 190 45 c 0,6,7
 83 110 83 110 52 249 c 1,8,-1
 182 278 l 1,9,10
 206 188 206 188 284 144 c 0,11,12
 363 101 363 101 491 101 c 0,13,14
 634 101 634 101 701 147 c 128,-1,15
 768 193 768 193 768 283 c 0,16,17
 768 351 768 351 724 394 c 128,-1,18
 680 437 680 437 583 465 c 0,19,20
 455 501 455 501 385 523 c 128,-1,21
 315 545 315 545 280 559 c 128,-1,22
 245 573 245 573 225 586 c 0,23,24
 165 623 165 623 130 676 c 0,25,26
 95 728 95 728 95 803 c 0,27,28
 95 949 95 949 196 1023 c 0,29,30
 297 1098 297 1098 493 1098 c 0,31,32
 667 1098 667 1098 769 1039 c 128,-1,33
 871 980 871 980 898 842 c 1,34,-1
 765 824 l 1,35,36
 749 898 749 898 677 938 c 128,-1,37
 605 978 605 978 493 979 c 0,38,39
 364 979 364 979 303 938 c 128,-1,40
 242 897 242 897 243 817 c 0,41,42
 243 759 243 759 274 721 c 128,-1,43
 305 683 305 683 399 658 c 0,44,45
 523 627 523 627 641 589 c 128,-1,46
 759 551 759 551 804 517 c 0,47,48
 860 475 860 475 888 421 c 0,49,50
 915 366 915 366 915 293 c 0,0,1
EndSplineSet
EndChar

StartChar: t
Encoding: 116 116 87
Width: 531
GlyphClass: 2
Flags: W
LayerCount: 2
Fore
SplineSet
520 5 m 1,0,1
 437 -16 437 -16 356 -15 c 0,2,3
 253 -15 253 -15 204 44 c 0,4,5
 154 104 154 104 154 221 c 2,6,-1
 154 970 l 1,7,-1
 33 970 l 1,8,-1
 33 1082 l 1,9,-1
 159 1082 l 1,10,-1
 200 1320 l 1,11,-1
 302 1320 l 1,12,-1
 302 1082 l 1,13,-1
 500 1082 l 1,14,-1
 500 970 l 1,15,-1
 302 970 l 1,16,-1
 302 248 l 2,17,18
 302 170 302 170 326 140 c 128,-1,19
 350 110 350 110 413 111 c 0,20,21
 448 111 448 111 520 125 c 1,22,-1
 520 5 l 1,0,1
EndSplineSet
EndChar

StartChar: u
Encoding: 117 117 88
Width: 1102
GlyphClass: 2
Flags: W
LayerCount: 2
Fore
SplineSet
819 175 m 1,0,1
 755 67 755 67 675 23 c 0,2,3
 595 -20 595 -20 474 -20 c 0,4,5
 294 -20 294 -20 214 63 c 0,6,7
 135 146 135 146 135 350 c 2,8,-1
 135 1082 l 1,9,-1
 283 1082 l 1,10,-1
 283 370 l 2,11,12
 283 201 283 201 334 148 c 128,-1,13
 385 95 385 95 516 96 c 0,14,15
 655 96 655 96 735 185 c 0,16,17
 814 274 814 274 814 439 c 2,18,-1
 814 1082 l 1,19,-1
 960 1082 l 1,20,-1
 960 227 l 2,21,22
 960 125 960 125 962 68 c 0,23,24
 963 11 963 11 966 0 c 1,25,-1
 828 0 l 1,26,27
 829 -17 829 -17 826 21 c 0,28,29
 824 59 824 59 821 175 c 1,30,-1
 819 175 l 1,0,1
EndSplineSet
EndChar

StartChar: v
Encoding: 118 118 89
Width: 986
GlyphClass: 2
Flags: W
LayerCount: 2
Fore
SplineSet
980 1082 m 1,0,-1
 574 0 l 1,1,-1
 402 0 l 1,2,-1
 7 1082 l 1,3,-1
 164 1082 l 1,4,-1
 418 345 l 2,5,6
 425 327 425 327 442 268 c 128,-1,7
 459 209 459 209 487 113 c 1,8,9
 503 160 503 160 515 203 c 128,-1,10
 527 246 527 246 539 282 c 0,11,12
 551 319 551 319 562 349 c 2,13,-1
 823 1082 l 1,14,-1
 980 1082 l 1,0,-1
EndSplineSet
EndChar

StartChar: w
Encoding: 119 119 90
Width: 1441
GlyphClass: 2
Flags: W
LayerCount: 2
Fore
SplineSet
690 800 m 2,0,-1
 487 0 l 1,1,-1
 309 0 l 1,2,-1
 -2 1082 l 1,3,-1
 148 1082 l 1,4,-1
 349 297 l 2,5,6
 356 270 356 270 368 220 c 0,7,-1
 389 114 l 1,8,9
 400 161 400 161 413 207 c 0,10,11
 426 254 426 254 438 300 c 2,12,-1
 644 1082 l 1,13,-1
 801 1082 l 1,14,-1
 998 304 l 2,15,16
 1012 250 1012 250 1023 202 c 0,17,18
 1035 154 1035 154 1045 114 c 1,19,20
 1056 162 1056 162 1068 216 c 128,-1,21
 1080 270 1080 270 1090 308 c 2,22,-1
 1298 1082 l 1,23,-1
 1447 1082 l 1,24,-1
 1128 0 l 1,25,-1
 948 0 l 1,26,-1
 754 800 l 2,27,28
 743 848 743 848 735 886 c 0,29,30
 728 924 728 924 721 951 c 1,31,32
 720 940 720 940 710 889 c 0,33,34
 700 837 700 837 690 800 c 2,0,-1
EndSplineSet
EndChar

StartChar: x
Encoding: 120 120 91
Width: 986
GlyphClass: 2
Flags: W
LayerCount: 2
Fore
SplineSet
491 461 m 1,0,-1
 185 0 l 1,1,-1
 26 0 l 1,2,-1
 407 555 l 1,3,-1
 44 1082 l 1,4,-1
 208 1082 l 1,5,-1
 491 639 l 1,6,-1
 772 1082 l 1,7,-1
 938 1082 l 1,8,-1
 575 557 l 1,9,-1
 962 0 l 1,10,-1
 795 0 l 1,11,-1
 491 461 l 1,0,-1
EndSplineSet
EndChar

StartChar: y
Encoding: 121 121 92
Width: 986
GlyphClass: 2
Flags: W
LayerCount: 2
Fore
SplineSet
161 -425 m 0,0,1
 99 -425 99 -425 54 -415 c 1,2,-1
 54 -301 l 1,3,4
 86 -306 86 -306 134 -306 c 0,5,6
 213 -306 213 -306 292 -241 c 0,7,8
 371 -175 371 -175 431 3 c 1,9,-1
 1 1082 l 1,10,-1
 159 1082 l 1,11,-1
 406 454 l 2,12,13
 433 387 433 387 462 307 c 0,14,15
 492 227 492 227 503 181 c 1,16,17
 529 245 529 245 556 313 c 0,18,19
 583 380 583 380 606 446 c 2,20,-1
 829 1082 l 1,21,-1
 984 1082 l 1,22,-1
 572 19 l 2,23,24
 535 -73 535 -73 504 -141 c 0,25,26
 472 -209 472 -209 444 -252 c 0,27,28
 387 -338 387 -338 317 -381 c 0,29,30
 247 -425 247 -425 161 -425 c 0,0,1
EndSplineSet
EndChar

StartChar: z
Encoding: 122 122 93
Width: 1024
GlyphClass: 2
Flags: W
LayerCount: 2
Fore
SplineSet
913 117 m 1,0,-1
 913 0 l 1,1,-1
 83 0 l 1,2,-1
 83 117 l 1,3,-1
 720 964 l 1,4,-1
 115 964 l 1,5,-1
 115 1082 l 1,6,-1
 901 1082 l 1,7,-1
 901 966 l 1,8,-1
 262 117 l 1,9,-1
 913 117 l 1,0,-1
EndSplineSet
EndChar

StartChar: braceleft
Encoding: 123 123 94
Width: 646
GlyphClass: 2
Flags: W
LayerCount: 2
Fore
SplineSet
498 -425 m 2,0,1
 373 -425 373 -425 309 -348 c 0,2,3
 244 -271 244 -271 245 -134 c 2,4,-1
 245 238 l 2,5,6
 245 356 245 356 193 414 c 128,-1,7
 141 472 141 472 34 478 c 1,8,-1
 34 582 l 1,9,10
 139 586 139 586 192 644 c 128,-1,11
 245 702 245 702 245 820 c 2,12,-1
 245 1193 l 2,13,14
 245 1332 245 1332 307 1408 c 0,15,16
 370 1484 370 1484 498 1484 c 2,17,-1
 613 1484 l 1,18,-1
 613 1375 l 1,19,-1
 548 1375 l 2,20,21
 457 1375 457 1375 420 1321 c 0,22,23
 382 1267 382 1267 382 1158 c 2,24,-1
 382 784 l 2,25,26
 382 690 382 690 330 622 c 128,-1,27
 278 554 278 554 192 532 c 1,28,-1
 192 531 l 1,29,30
 279 510 279 510 330 442 c 128,-1,31
 381 374 381 374 382 276 c 2,32,-1
 382 -99 l 2,33,34
 382 -205 382 -205 420 -261 c 0,35,36
 458 -316 458 -316 548 -316 c 2,37,-1
 613 -316 l 1,38,-1
 613 -425 l 1,39,-1
 498 -425 l 2,0,1
EndSplineSet
EndChar

StartChar: bar
Encoding: 124 124 95
Width: 518
GlyphClass: 2
Flags: W
LayerCount: 2
Fore
SplineSet
326 1484 m 1,0,-1
 326 -427 l 1,1,-1
 192 -427 l 1,2,-1
 192 1484 l 1,3,-1
 326 1484 l 1,0,-1
EndSplineSet
EndChar

StartChar: braceright
Encoding: 125 125 96
Width: 646
GlyphClass: 2
Flags: W
LayerCount: 2
Fore
SplineSet
31 -316 m 1,0,-1
 92 -316 l 2,1,2
 182 -316 182 -316 222 -261 c 128,-1,3
 262 -206 262 -206 261 -99 c 2,4,-1
 261 276 l 2,5,6
 261 376 261 376 312 444 c 128,-1,7
 363 512 363 512 450 531 c 1,8,-1
 450 532 l 1,9,10
 366 552 366 552 313 620 c 0,11,12
 261 687 261 687 261 784 c 2,13,-1
 261 1158 l 2,14,15
 261 1267 261 1267 222 1321 c 0,16,17
 182 1375 182 1375 92 1375 c 2,18,-1
 31 1375 l 1,19,-1
 31 1484 l 1,20,-1
 142 1484 l 2,21,22
 271 1484 271 1484 333 1408 c 0,23,24
 396 1332 396 1332 395 1193 c 2,25,-1
 395 820 l 2,26,27
 395 703 395 703 448 644 c 0,28,29
 500 586 500 586 608 582 c 1,30,-1
 608 478 l 1,31,32
 499 473 499 473 447 415 c 128,-1,33
 395 357 395 357 395 238 c 2,34,-1
 395 -134 l 2,35,36
 395 -271 395 -271 331 -348 c 0,37,38
 266 -425 266 -425 142 -425 c 2,39,-1
 31 -425 l 1,40,-1
 31 -316 l 1,0,-1
EndSplineSet
EndChar

StartChar: asciitilde
Encoding: 126 126 97
Width: 1196
GlyphClass: 2
Flags: W
LayerCount: 2
Fore
SplineSet
841 565 m 0,0,1
 774 565 774 565 702 588 c 0,2,3
 630 610 630 610 557 636 c 0,4,5
 430 680 430 680 341 680 c 0,6,7
 275 680 275 680 218 660 c 0,8,9
 160 640 160 640 96 592 c 1,10,-1
 96 712 l 1,11,12
 206 796 206 796 356 796 c 0,13,14
 394 796 394 796 430 794 c 0,15,16
 451 792 451 792 500 778 c 128,-1,17
 549 764 549 764 627 735 c 0,18,19
 660 721 660 721 732 700 c 128,-1,20
 804 679 804 679 856 679 c 0,21,22
 984 679 984 679 1099 771 c 1,23,-1
 1099 645 l 1,24,25
 1043 604 1043 604 985 585 c 0,26,27
 926 565 926 565 841 565 c 0,0,1
EndSplineSet
EndChar

StartChar: exclamdown
Encoding: 161 161 99
Width: 682
GlyphClass: 2
Flags: W
LayerCount: 2
Fore
SplineSet
424 1082 m 1,0,-1
 424 904 l 1,1,-1
 261 904 l 1,2,-1
 261 1082 l 1,3,-1
 424 1082 l 1,0,-1
258 -327 m 1,4,-1
 279 695 l 1,5,-1
 400 695 l 1,6,-1
 422 -327 l 1,7,-1
 258 -327 l 1,4,-1
EndSplineSet
EndChar

StartChar: cent
Encoding: 162 162 100
Width: 1139
GlyphClass: 2
Flags: W
LayerCount: 2
Fore
SplineSet
599 256 m 0,0,1
 698 256 698 256 763 307 c 0,2,3
 829 358 829 358 845 469 c 1,4,-1
 994 457 l 1,5,6
 976 316 976 316 886 229 c 0,7,8
 797 141 797 141 660 129 c 1,9,-1
 660 -31 l 1,10,-1
 549 -31 l 1,11,-1
 549 130 l 1,12,13
 355 147 355 147 259 292 c 128,-1,14
 163 437 163 437 163 701 c 0,15,16
 163 961 163 961 260 1105 c 128,-1,17
 357 1249 357 1249 549 1264 c 1,18,-1
 549 1409 l 1,19,-1
 660 1409 l 1,20,-1
 660 1264 l 1,21,22
 794 1250 794 1250 878 1170 c 128,-1,23
 962 1090 962 1090 989 956 c 1,24,-1
 836 942 l 1,25,26
 822 1032 822 1032 765 1086 c 128,-1,27
 708 1140 708 1140 597 1140 c 0,28,29
 448 1140 448 1140 383 1044 c 0,30,31
 319 948 319 948 319 703 c 0,32,33
 319 472 319 472 388 364 c 128,-1,34
 457 256 457 256 599 256 c 0,0,1
EndSplineSet
EndChar

StartChar: sterling
Encoding: 163 163 101
Width: 1139
GlyphClass: 2
Flags: W
LayerCount: 2
Fore
SplineSet
1045 0 m 1,0,-1
 81 0 l 1,1,-1
 81 137 l 1,2,3
 166 179 166 179 211 262 c 128,-1,4
 256 345 256 345 256 471 c 2,5,-1
 256 632 l 1,6,-1
 70 632 l 1,7,-1
 70 747 l 1,8,-1
 259 747 l 1,9,-1
 259 1038 l 2,10,11
 259 1231 259 1231 361 1330 c 0,12,13
 463 1430 463 1430 653 1430 c 0,14,15
 793 1430 793 1430 894 1372 c 128,-1,16
 995 1314 995 1314 1025 1220 c 1,17,-1
 871 1160 l 1,18,19
 850 1220 850 1220 790 1258 c 128,-1,20
 730 1296 730 1296 657 1296 c 0,21,22
 535 1296 535 1296 474 1239 c 0,23,24
 413 1181 413 1181 412 1056 c 2,25,-1
 412 747 l 1,26,-1
 861 747 l 1,27,-1
 861 632 l 1,28,-1
 412 632 l 1,29,-1
 412 494 l 2,30,31
 412 370 412 370 365 270 c 0,32,33
 317 170 317 170 248 135 c 1,34,-1
 1045 135 l 1,35,-1
 1045 0 l 1,0,-1
EndSplineSet
EndChar

StartChar: currency
Encoding: 164 164 102
Width: 1139
GlyphClass: 2
Flags: W
LayerCount: 2
Fore
SplineSet
138 684 m 128,-1,1
 138 828 138 828 222 946 c 1,2,-1
 133 1035 l 1,3,-1
 219 1121 l 1,4,-1
 308 1030 l 1,5,6
 425 1120 425 1120 573 1120 c 0,7,8
 714 1120 714 1120 835 1033 c 1,9,-1
 919 1118 l 1,10,-1
 1005 1030 l 1,11,-1
 922 947 l 1,12,13
 1009 823 1009 823 1009 684 c 0,14,15
 1009 538 1009 538 919 420 c 1,16,-1
 1008 331 l 1,17,-1
 924 244 l 1,18,-1
 834 334 l 1,19,20
 716 250 716 250 573 250 c 0,21,22
 424 250 424 250 310 338 c 1,23,-1
 215 243 l 1,24,-1
 131 331 l 1,25,-1
 223 421 l 1,26,0
 138 540 138 540 138 684 c 128,-1,1
268 686 m 0,27,28
 268 601 268 601 310 532 c 128,-1,29
 352 463 352 463 422 423 c 0,30,31
 491 383 491 383 573 383 c 128,-1,32
 655 383 655 383 724 423 c 128,-1,33
 793 463 793 463 835 532 c 128,-1,34
 877 601 877 601 877 686 c 128,-1,35
 877 771 877 771 835 840 c 0,36,37
 793 910 793 910 724 950 c 128,-1,38
 655 990 655 990 573 991 c 0,39,40
 491 991 491 991 422 950 c 128,-1,41
 353 909 353 909 311 841 c 0,42,43
 268 772 268 772 268 686 c 0,27,28
EndSplineSet
EndChar

StartChar: yen
Encoding: 165 165 103
Width: 1139
GlyphClass: 2
Flags: W
LayerCount: 2
Fore
SplineSet
643 325 m 1,0,-1
 643 0 l 1,1,-1
 496 0 l 1,2,-1
 496 325 l 1,3,-1
 100 325 l 1,4,-1
 100 446 l 1,5,-1
 496 446 l 1,6,-1
 498 597 l 1,7,-1
 100 597 l 1,8,-1
 100 715 l 1,9,-1
 435 715 l 1,10,-1
 -5 1409 l 1,11,-1
 164 1409 l 1,12,-1
 568 745 l 1,13,-1
 977 1409 l 1,14,-1
 1146 1409 l 1,15,-1
 705 715 l 1,16,-1
 1041 715 l 1,17,-1
 1041 597 l 1,18,-1
 643 597 l 1,19,-1
 643 446 l 1,20,-1
 1041 446 l 1,21,-1
 1041 325 l 1,22,-1
 643 325 l 1,0,-1
EndSplineSet
EndChar

StartChar: brokenbar
Encoding: 166 166 104
Width: 518
GlyphClass: 2
Flags: W
LayerCount: 2
Fore
SplineSet
326 1494 m 1,0,-1
 326 716 l 1,1,-1
 192 716 l 1,2,-1
 192 1494 l 1,3,-1
 326 1494 l 1,0,-1
326 352 m 1,4,-1
 326 -427 l 1,5,-1
 192 -427 l 1,6,-1
 192 352 l 1,7,-1
 326 352 l 1,4,-1
EndSplineSet
EndChar

StartChar: section
Encoding: 167 167 105
Width: 1139
GlyphClass: 2
Flags: W
LayerCount: 2
Fore
SplineSet
592 1503 m 0,0,1
 758 1503 758 1503 861 1438 c 128,-1,2
 964 1373 964 1373 991 1247 c 1,3,-1
 856 1229 l 1,4,5
 843 1308 843 1308 778 1347 c 128,-1,6
 713 1386 713 1386 592 1386 c 0,7,8
 463 1386 463 1386 395 1343 c 128,-1,9
 327 1300 327 1300 326 1227 c 0,10,11
 326 1177 326 1177 358 1140 c 0,12,13
 389 1103 389 1103 446 1075 c 0,14,15
 505 1048 505 1048 633 1016 c 0,16,17
 769 983 769 983 850 941 c 0,18,19
 927 899 927 899 970 841 c 128,-1,20
 1013 783 1013 783 1013 703 c 0,21,22
 1013 602 1013 602 952 526 c 128,-1,23
 891 450 891 450 787 427 c 1,24,25
 906 376 906 376 958 311 c 128,-1,26
 1010 246 1010 246 1011 155 c 0,27,28
 1011 13 1011 13 899 -70 c 128,-1,29
 787 -153 787 -153 584 -153 c 0,30,31
 380 -153 380 -153 274 -88 c 0,32,33
 168 -22 168 -22 135 114 c 1,34,-1
 271 143 l 1,35,36
 291 50 291 50 362 7 c 0,37,38
 432 -35 432 -35 584 -35 c 0,39,40
 725 -35 725 -35 800 13 c 0,41,42
 876 61 876 61 876 143 c 0,43,44
 876 203 876 203 841 244 c 128,-1,45
 806 285 806 285 740 317 c 0,46,47
 676 348 676 348 534 383 c 0,48,49
 344 427 344 427 259 504 c 0,50,51
 174 582 174 582 173 694 c 0,52,53
 173 782 173 782 237 859 c 128,-1,54
 301 936 301 936 406 965 c 1,55,56
 308 995 308 995 251 1062 c 0,57,58
 193 1129 193 1129 193 1215 c 0,59,60
 193 1351 193 1351 295 1427 c 0,61,62
 396 1503 396 1503 592 1503 c 0,0,1
882 684 m 0,63,64
 882 756 882 756 810 813 c 0,65,66
 737 871 737 871 559 913 c 1,67,68
 446 909 446 909 376 851 c 128,-1,69
 306 793 306 793 306 703 c 0,70,71
 306 651 306 651 337 612 c 128,-1,72
 368 573 368 573 425 543 c 0,73,74
 484 514 484 514 608 481 c 1,75,76
 734 482 734 482 808 537 c 0,77,78
 882 593 882 593 882 684 c 0,63,64
EndSplineSet
EndChar

StartChar: dieresis
Encoding: 168 168 106
Width: 682
GlyphClass: 2
Flags: W
LayerCount: 2
Fore
SplineSet
581 1398 m 1,0,-1
 581 1226 l 1,1,-1
 435 1226 l 1,2,-1
 435 1398 l 1,3,-1
 581 1398 l 1,0,-1
203 1398 m 1,4,-1
 203 1226 l 1,5,-1
 55 1226 l 1,6,-1
 55 1398 l 1,7,-1
 203 1398 l 1,4,-1
EndSplineSet
EndChar

StartChar: copyright
Encoding: 169 169 107
Width: 1509
GlyphClass: 2
Flags: W
LayerCount: 2
Fore
SplineSet
1477 707 m 128,-1,1
 1477 514 1477 514 1381 346 c 0,2,3
 1284 176 1284 176 1115 80 c 128,-1,4
 946 -16 946 -16 754 -16 c 0,5,6
 558 -16 558 -16 388 85 c 0,7,8
 219 186 219 186 125 352 c 128,-1,9
 31 518 31 518 31 707 c 0,10,11
 31 901 31 901 128 1068 c 0,12,13
 225 1236 225 1236 393 1333 c 128,-1,14
 561 1430 561 1430 754 1430 c 0,15,16
 948 1430 948 1430 1117 1333 c 0,17,18
 1285 1236 1285 1236 1381 1068 c 128,-1,0
 1477 900 1477 900 1477 707 c 128,-1,1
1391 707 m 128,-1,20
 1391 878 1391 878 1307 1024 c 0,21,22
 1222 1169 1222 1169 1074 1256 c 0,23,24
 926 1342 926 1342 754 1342 c 128,-1,25
 582 1342 582 1342 434 1256 c 0,26,27
 286 1169 286 1169 203 1021 c 0,28,29
 119 874 119 874 119 707 c 0,30,31
 119 535 119 535 205 389 c 0,32,33
 290 242 290 242 437 157 c 0,34,35
 583 72 583 72 754 72 c 128,-1,36
 925 72 925 72 1073 157 c 0,37,38
 1222 242 1222 242 1306 389 c 0,39,19
 1391 536 1391 536 1391 707 c 128,-1,20
483 709 m 0,40,41
 483 547 483 547 558 458 c 128,-1,42
 633 369 633 369 764 369 c 0,43,44
 929 369 929 369 1009 529 c 1,45,-1
 1109 498 l 1,46,47
 1046 378 1046 378 962 328 c 0,48,49
 878 277 878 277 764 277 c 0,50,51
 578 277 578 277 474 391 c 128,-1,52
 370 505 370 505 371 709 c 0,53,54
 371 912 371 912 470 1024 c 128,-1,55
 569 1136 569 1136 758 1136 c 0,56,57
 997 1136 997 1136 1093 934 c 1,58,-1
 993 903 l 1,59,60
 959 975 959 975 898 1009 c 128,-1,61
 837 1043 837 1043 759 1043 c 0,62,63
 626 1043 626 1043 554 959 c 0,64,65
 483 875 483 875 483 709 c 0,40,41
EndSplineSet
EndChar

StartChar: ordfeminine
Encoding: 170 170 108
Width: 758
GlyphClass: 2
Flags: W
LayerCount: 2
Fore
SplineSet
261 627 m 0,0,1
 149 627 149 627 85 686 c 0,2,3
 20 746 20 746 20 851 c 0,4,5
 20 1098 20 1098 341 1103 c 2,6,-1
 529 1108 l 1,7,-1
 529 1174 l 2,8,9
 529 1262 529 1262 491 1302 c 0,10,11
 453 1341 453 1341 363 1341 c 0,12,13
 291 1341 291 1341 246 1309 c 0,14,15
 201 1278 201 1278 191 1192 c 1,16,-1
 55 1203 l 1,17,18
 70 1312 70 1312 151 1374 c 0,19,20
 231 1436 231 1436 360 1436 c 0,21,22
 508 1436 508 1436 584 1373 c 128,-1,23
 660 1310 660 1310 659 1181 c 2,24,-1
 659 850 l 2,25,26
 659 789 659 789 675 764 c 128,-1,27
 691 739 691 739 726 738 c 0,28,29
 735 738 735 738 745 740 c 128,-1,30
 755 742 755 742 767 747 c 1,31,-1
 767 645 l 1,32,33
 724 634 724 634 696 634 c 0,34,35
 622 634 622 634 582 672 c 128,-1,36
 542 710 542 710 538 777 c 1,37,-1
 534 777 l 1,38,39
 460 627 460 627 261 627 c 0,0,1
289 731 m 0,40,41
 389 731 389 731 459 794 c 128,-1,42
 529 857 529 857 529 940 c 2,43,-1
 529 1017 l 1,44,-1
 376 1013 l 2,45,46
 248 1006 248 1006 202 970 c 128,-1,47
 156 934 156 934 157 864 c 0,48,49
 156 731 156 731 289 731 c 0,40,41
EndSplineSet
EndChar

StartChar: guillemotleft
Encoding: 171 171 109
Width: 1139
GlyphClass: 2
Flags: W
LayerCount: 2
Fore
SplineSet
1059 168 m 1,0,-1
 1059 141 l 1,1,-1
 912 141 l 1,2,-1
 547 507 l 1,3,-1
 547 568 l 1,4,-1
 912 940 l 1,5,-1
 1057 940 l 1,6,-1
 1057 911 l 1,7,-1
 691 537 l 1,8,-1
 1059 168 l 1,0,-1
588 168 m 1,9,-1
 588 141 l 1,10,-1
 442 141 l 1,11,-1
 80 507 l 1,12,-1
 80 568 l 1,13,-1
 442 940 l 1,14,-1
 586 940 l 1,15,-1
 586 911 l 1,16,-1
 224 537 l 1,17,-1
 588 168 l 1,9,-1
EndSplineSet
EndChar

StartChar: logicalnot
Encoding: 172 172 110
Width: 1196
GlyphClass: 2
Flags: W
LayerCount: 2
Fore
SplineSet
1090 741 m 1,0,-1
 1090 193 l 1,1,-1
 971 193 l 1,2,-1
 971 621 l 1,3,-1
 105 621 l 1,4,-1
 105 741 l 1,5,-1
 1090 741 l 1,0,-1
EndSplineSet
EndChar

StartChar: registered
Encoding: 174 174 111
Width: 1509
GlyphClass: 2
Flags: W
LayerCount: 2
Fore
SplineSet
1477 707 m 128,-1,1
 1477 514 1477 514 1381 346 c 0,2,3
 1284 176 1284 176 1115 80 c 128,-1,4
 946 -16 946 -16 754 -16 c 0,5,6
 558 -16 558 -16 388 85 c 0,7,8
 219 186 219 186 125 352 c 128,-1,9
 31 518 31 518 31 707 c 0,10,11
 31 901 31 901 128 1068 c 0,12,13
 225 1236 225 1236 393 1333 c 128,-1,14
 561 1430 561 1430 754 1430 c 0,15,16
 948 1430 948 1430 1117 1333 c 0,17,18
 1285 1236 1285 1236 1381 1068 c 128,-1,0
 1477 900 1477 900 1477 707 c 128,-1,1
1391 707 m 128,-1,20
 1391 878 1391 878 1307 1024 c 0,21,22
 1222 1169 1222 1169 1074 1256 c 0,23,24
 926 1342 926 1342 754 1342 c 128,-1,25
 582 1342 582 1342 434 1256 c 0,26,27
 286 1169 286 1169 203 1021 c 0,28,29
 119 874 119 874 119 707 c 0,30,31
 119 535 119 535 205 389 c 0,32,33
 290 242 290 242 437 157 c 0,34,35
 583 72 583 72 754 72 c 128,-1,36
 925 72 925 72 1073 157 c 0,37,38
 1222 242 1222 242 1306 389 c 0,39,19
 1391 536 1391 536 1391 707 c 128,-1,20
584 630 m 1,40,-1
 584 286 l 1,41,-1
 474 286 l 1,42,-1
 474 1123 l 1,43,-1
 773 1123 l 2,44,45
 911 1123 911 1123 987 1060 c 0,46,47
 1062 997 1062 997 1062 887 c 0,48,49
 1062 782 1062 782 1009 720 c 128,-1,50
 956 658 956 658 868 641 c 1,51,-1
 1092 286 l 1,52,-1
 966 286 l 1,53,-1
 760 630 l 1,54,-1
 584 630 l 1,40,-1
953 885 m 0,55,56
 953 958 953 958 902 996 c 128,-1,57
 851 1034 851 1034 766 1034 c 2,58,-1
 584 1034 l 1,59,-1
 584 715 l 1,60,-1
 779 715 l 2,61,62
 864 715 864 715 908 760 c 0,63,64
 953 804 953 804 953 885 c 0,55,56
EndSplineSet
EndChar

StartChar: macron
Encoding: 175 175 112
Width: 1131
GlyphClass: 2
Flags: W
LayerCount: 2
Fore
SplineSet
1148 1546 m 1,0,-1
 1148 1452 l 1,1,-1
 -17 1452 l 1,2,-1
 -17 1546 l 1,3,-1
 1148 1546 l 1,0,-1
EndSplineSet
EndChar

StartChar: degree
Encoding: 176 176 113
Width: 819
GlyphClass: 2
Flags: W
LayerCount: 2
Fore
SplineSet
684 1156 m 0,0,1
 684 1079 684 1079 647 1016 c 0,2,3
 609 953 609 953 547 918 c 0,4,5
 484 882 484 882 409 881 c 0,6,7
 334 881 334 881 271 919 c 128,-1,8
 208 957 208 957 170 1020 c 0,9,10
 132 1082 132 1082 133 1157 c 0,11,12
 133 1232 133 1232 170 1294 c 0,13,14
 207 1357 207 1357 269 1394 c 128,-1,15
 331 1431 331 1431 409 1432 c 0,16,17
 486 1432 486 1432 548 1395 c 0,18,19
 611 1358 611 1358 647 1296 c 0,20,21
 684 1234 684 1234 684 1156 c 0,0,1
592 1157 m 0,22,23
 592 1235 592 1235 538 1288 c 0,24,25
 485 1341 485 1341 409 1341 c 128,-1,26
 333 1341 333 1341 280 1287 c 128,-1,27
 227 1233 227 1233 227 1157 c 128,-1,28
 227 1081 227 1081 280 1027 c 0,29,30
 334 973 334 973 409 973 c 0,31,32
 485 973 485 973 538 1026 c 0,33,34
 592 1080 592 1080 592 1157 c 0,22,23
EndSplineSet
EndChar

StartChar: plusminus
Encoding: 177 177 114
Width: 1124
GlyphClass: 2
Flags: W
LayerCount: 2
Fore
SplineSet
623 671 m 1,0,-1
 623 258 l 1,1,-1
 502 258 l 1,2,-1
 502 671 l 1,3,-1
 70 671 l 1,4,-1
 70 790 l 1,5,-1
 502 790 l 1,6,-1
 502 1202 l 1,7,-1
 623 1202 l 1,8,-1
 623 790 l 1,9,-1
 1055 790 l 1,10,-1
 1055 671 l 1,11,-1
 623 671 l 1,0,-1
1055 119 m 1,12,-1
 1055 0 l 1,13,-1
 70 0 l 1,14,-1
 70 119 l 1,15,-1
 1055 119 l 1,12,-1
EndSplineSet
EndChar

StartChar: uni00B2
Encoding: 178 178 115
Width: 682
GlyphClass: 2
Flags: W
LayerCount: 2
Fore
SplineSet
644 625 m 1,0,-1
 644 520 l 1,1,-1
 40 520 l 1,2,-1
 38 617 l 1,3,4
 70 689 70 689 138 758 c 0,5,6
 206 828 206 828 318 907 c 0,7,8
 419 979 419 979 467 1042 c 128,-1,9
 515 1105 515 1105 514 1168 c 0,10,11
 514 1235 514 1235 474 1278 c 0,12,13
 433 1320 433 1320 348 1320 c 0,14,15
 272 1320 272 1320 221 1280 c 128,-1,16
 170 1240 170 1240 162 1165 c 1,17,-1
 49 1174 l 1,18,19
 62 1284 62 1284 144 1352 c 128,-1,20
 226 1420 226 1420 356 1419 c 0,21,22
 482 1419 482 1419 557 1356 c 128,-1,23
 632 1293 632 1293 631 1179 c 0,24,25
 631 1025 631 1025 432 873 c 0,26,27
 368 824 368 824 322 787 c 128,-1,28
 276 750 276 750 250 724 c 0,29,30
 194 670 194 670 175 625 c 1,31,-1
 644 625 l 1,0,-1
EndSplineSet
EndChar

StartChar: uni00B3
Encoding: 179 179 116
Width: 682
GlyphClass: 2
Flags: W
LayerCount: 2
Fore
SplineSet
643 762 m 0,0,1
 643 640 643 640 565 574 c 0,2,3
 487 507 487 507 343 507 c 0,4,5
 197 507 197 507 118 566 c 0,6,7
 38 625 38 625 21 740 c 1,8,-1
 140 754 l 1,9,10
 160 604 160 604 344 604 c 0,11,12
 523 604 523 604 523 769 c 0,13,14
 523 921 523 921 318 920 c 2,15,-1
 255 920 l 1,16,-1
 255 1024 l 1,17,-1
 314 1024 l 2,18,19
 400 1024 400 1024 451 1064 c 128,-1,20
 502 1104 502 1104 501 1176 c 0,21,22
 501 1243 501 1243 460 1282 c 0,23,24
 418 1321 418 1321 338 1320 c 0,25,26
 262 1320 262 1320 214 1281 c 128,-1,27
 166 1242 166 1242 160 1170 c 1,28,-1
 42 1182 l 1,29,30
 56 1296 56 1296 135 1358 c 128,-1,31
 214 1420 214 1420 341 1419 c 0,32,33
 472 1419 472 1419 547 1357 c 128,-1,34
 622 1295 622 1295 622 1193 c 0,35,36
 622 1114 622 1114 577 1056 c 128,-1,37
 532 998 532 998 438 977 c 1,38,-1
 438 975 l 1,39,40
 532 966 532 966 587 911 c 0,41,42
 643 856 643 856 643 762 c 0,0,1
EndSplineSet
EndChar

StartChar: acute
Encoding: 180 180 117
Width: 682
GlyphClass: 2
Flags: W
LayerCount: 2
Fore
SplineSet
463 1486 m 1,0,-1
 136 1207 l 1,1,-1
 67 1207 l 1,2,-1
 67 1223 l 1,3,-1
 272 1510 l 1,4,-1
 463 1510 l 1,5,-1
 463 1486 l 1,0,-1
EndSplineSet
EndChar

StartChar: mu
Encoding: 181 181 118
Width: 1163
GlyphClass: 2
Flags: W
LayerCount: 2
Fore
SplineSet
142 -425 m 1,0,-1
 142 1082 l 1,1,-1
 290 1082 l 1,2,-1
 290 369 l 2,3,4
 290 235 290 235 347 165 c 128,-1,5
 404 95 404 95 533 95 c 0,6,7
 674 95 674 95 756 185 c 0,8,9
 838 276 838 276 838 439 c 2,10,-1
 838 1082 l 1,11,-1
 985 1082 l 1,12,-1
 986 248 l 2,13,14
 986 177 986 177 1003 143 c 128,-1,15
 1020 109 1020 109 1060 108 c 0,16,17
 1081 108 1081 108 1112 117 c 1,18,-1
 1112 -5 l 1,19,20
 1087 -14 1087 -14 1060 -18 c 0,21,22
 1034 -23 1034 -23 1021 -23 c 0,23,24
 935 -23 935 -23 888 25 c 128,-1,25
 841 73 841 73 838 173 c 1,26,-1
 836 173 l 1,27,28
 776 81 776 81 696 30 c 0,29,30
 615 -20 615 -20 512 -20 c 0,31,32
 440 -20 440 -20 381 -1 c 128,-1,33
 322 18 322 18 289 55 c 1,34,-1
 289 -425 l 1,35,-1
 142 -425 l 1,0,-1
EndSplineSet
EndChar

StartChar: paragraph
Encoding: 182 182 119
Width: 1087
GlyphClass: 2
Flags: W
LayerCount: 2
Fore
SplineSet
544 1321 m 1,0,-1
 544 -264 l 1,1,-1
 445 -264 l 1,2,-1
 445 694 l 1,3,4
 277 694 277 694 180 786 c 128,-1,5
 83 878 83 878 83 1049 c 0,6,7
 83 1218 83 1218 181 1314 c 0,8,9
 280 1410 280 1410 453 1409 c 2,10,-1
 994 1409 l 1,11,-1
 994 1321 l 1,12,-1
 866 1321 l 1,13,-1
 866 -264 l 1,14,-1
 768 -264 l 1,15,-1
 768 1321 l 1,16,-1
 544 1321 l 1,0,-1
EndSplineSet
EndChar

StartChar: periodcentered
Encoding: 183 183 120
Width: 682
GlyphClass: 2
Flags: W
LayerCount: 2
Fore
SplineSet
441 610 m 1,0,-1
 441 418 l 1,1,-1
 277 418 l 1,2,-1
 277 610 l 1,3,-1
 441 610 l 1,0,-1
EndSplineSet
EndChar

StartChar: cedilla
Encoding: 184 184 121
Width: 682
GlyphClass: 2
Flags: W
LayerCount: 2
Fore
SplineSet
477 -259 m 0,0,1
 477 -349 477 -349 412 -393 c 128,-1,2
 347 -437 347 -437 213 -437 c 0,3,4
 147 -437 147 -437 127 -434 c 1,5,-1
 127 -342 l 1,6,7
 183 -348 183 -348 213 -348 c 0,8,9
 363 -348 363 -348 364 -263 c 0,10,11
 364 -224 364 -224 329 -204 c 128,-1,12
 294 -184 294 -184 227 -183 c 0,13,14
 204 -183 204 -183 190 -184 c 0,15,16
 176 -184 176 -184 168 -185 c 1,17,-1
 234 0 l 1,18,-1
 329 0 l 1,19,-1
 288 -106 l 1,20,21
 382 -108 382 -108 430 -149 c 0,22,23
 477 -189 477 -189 477 -259 c 0,0,1
EndSplineSet
EndChar

StartChar: uni00B9
Encoding: 185 185 122
Width: 682
GlyphClass: 2
Flags: W
LayerCount: 2
Fore
SplineSet
643 622 m 1,0,-1
 643 520 l 1,1,-1
 79 520 l 1,2,-1
 79 622 l 1,3,-1
 299 622 l 1,4,-1
 299 1292 l 1,5,-1
 88 1144 l 1,6,-1
 88 1264 l 1,7,-1
 308 1407 l 1,8,-1
 413 1407 l 1,9,-1
 413 622 l 1,10,-1
 643 622 l 1,0,-1
EndSplineSet
EndChar

StartChar: ordmasculine
Encoding: 186 186 123
Width: 748
GlyphClass: 2
Flags: W
LayerCount: 2
Fore
SplineSet
726 1032 m 0,0,1
 726 835 726 835 639 731 c 0,2,3
 551 627 551 627 371 627 c 0,4,5
 198 627 198 627 109 730 c 0,6,7
 21 833 21 833 21 1032 c 0,8,9
 21 1230 21 1230 110 1333 c 128,-1,10
 199 1436 199 1436 375 1436 c 0,11,12
 552 1436 552 1436 639 1336 c 128,-1,13
 726 1236 726 1236 726 1032 c 0,0,1
594 1032 m 0,14,15
 594 1202 594 1202 543 1273 c 128,-1,16
 492 1344 492 1344 378 1344 c 0,17,18
 258 1344 258 1344 208 1270 c 0,19,20
 158 1197 158 1197 158 1032 c 0,21,22
 158 874 158 874 208 797 c 128,-1,23
 258 720 258 720 370 720 c 0,24,25
 493 720 493 720 544 795 c 0,26,27
 594 870 594 870 594 1032 c 0,14,15
EndSplineSet
EndChar

StartChar: guillemotright
Encoding: 187 187 124
Width: 1139
GlyphClass: 2
Flags: W
LayerCount: 2
Fore
SplineSet
694 141 m 1,0,-1
 549 141 l 1,1,-1
 549 168 l 1,2,-1
 914 537 l 1,3,-1
 551 911 l 1,4,-1
 551 940 l 1,5,-1
 694 940 l 1,6,-1
 1059 568 l 1,7,-1
 1059 507 l 1,8,-1
 694 141 l 1,0,-1
227 141 m 1,9,-1
 80 141 l 1,10,-1
 80 168 l 1,11,-1
 445 537 l 1,12,-1
 82 911 l 1,13,-1
 82 940 l 1,14,-1
 227 940 l 1,15,-1
 588 568 l 1,16,-1
 588 507 l 1,17,-1
 227 141 l 1,9,-1
EndSplineSet
EndChar

StartChar: questiondown
Encoding: 191 191 128
Width: 1251
GlyphClass: 2
Flags: W
LayerCount: 2
Fore
SplineSet
739 1082 m 1,0,-1
 739 904 l 1,1,-1
 575 904 l 1,2,-1
 575 1082 l 1,3,-1
 739 1082 l 1,0,-1
137 48 m 0,4,5
 137 166 137 166 189 248 c 128,-1,6
 241 330 241 330 360 417 c 2,7,-1
 442 478 l 2,8,9
 586 582 586 582 586 721 c 1,10,-1
 731 721 l 1,11,12
 730 621 730 621 693 557 c 0,13,14
 657 493 657 493 607 451 c 0,15,16
 556 408 556 408 506 373 c 0,17,18
 454 335 454 335 403 295 c 0,19,20
 353 255 353 255 319 198 c 128,-1,21
 285 141 285 141 285 55 c 0,22,23
 285 -68 285 -68 369 -139 c 128,-1,24
 453 -210 453 -210 605 -210 c 0,25,26
 758 -210 758 -210 844 -136 c 128,-1,27
 930 -62 930 -62 945 68 c 1,28,-1
 1096 56 l 1,29,30
 1070 -140 1070 -140 943 -244 c 128,-1,31
 816 -348 816 -348 606 -348 c 0,32,33
 388 -348 388 -348 262 -243 c 0,34,35
 137 -138 137 -138 137 48 c 0,4,5
EndSplineSet
EndChar

StartChar: AE
Encoding: 198 198 135
Width: 2048
GlyphClass: 2
Flags: W
LayerCount: 2
Fore
SplineSet
401 429 m 1,0,-1
 195 0 l 1,1,-1
 31 0 l 1,2,-1
 712 1409 l 1,3,-1
 1916 1409 l 1,4,-1
 1916 1276 l 1,5,-1
 1138 1276 l 1,6,-1
 1138 792 l 1,7,-1
 1857 792 l 1,8,-1
 1857 661 l 1,9,-1
 1138 661 l 1,10,-1
 1138 133 l 1,11,-1
 1957 133 l 1,12,-1
 1957 0 l 1,13,-1
 982 0 l 1,14,-1
 982 429 l 1,15,-1
 401 429 l 1,0,-1
461 554 m 1,16,-1
 982 554 l 1,17,-1
 982 1285 l 1,18,-1
 801 1285 l 1,19,-1
 461 554 l 1,16,-1
EndSplineSet
EndChar

StartChar: Eth
Encoding: 208 208 145
Width: 1479
GlyphClass: 2
Flags: W
LayerCount: 2
Fore
SplineSet
1377 720 m 0,0,1
 1377 496 1377 496 1291 335 c 128,-1,2
 1205 174 1205 174 1050 87 c 0,3,4
 896 0 896 0 691 0 c 2,5,-1
 178 0 l 1,6,-1
 178 664 l 1,7,-1
 16 664 l 1,8,-1
 16 797 l 1,9,-1
 178 797 l 1,10,-1
 178 1409 l 1,11,-1
 630 1409 l 2,12,13
 989 1410 989 1410 1183 1230 c 128,-1,14
 1377 1050 1377 1050 1377 720 c 0,0,1
1220 720 m 0,15,16
 1220 994 1220 994 1067 1138 c 0,17,18
 915 1282 915 1282 626 1282 c 2,19,-1
 335 1282 l 1,20,-1
 335 797 l 1,21,-1
 757 797 l 1,22,-1
 757 664 l 1,23,-1
 335 664 l 1,24,-1
 335 127 l 1,25,-1
 670 127 l 2,26,27
 839 127 839 127 963 200 c 0,28,29
 1087 272 1087 272 1153 405 c 0,30,31
 1220 538 1220 538 1220 720 c 0,15,16
EndSplineSet
EndChar

StartChar: multiply
Encoding: 215 215 152
Width: 1196
GlyphClass: 2
Flags: W
LayerCount: 2
Fore
SplineSet
600 598 m 1,0,-1
 244 244 l 1,1,-1
 160 331 l 1,2,-1
 514 684 l 1,3,-1
 162 1036 l 1,4,-1
 248 1122 l 1,5,-1
 597 768 l 1,6,-1
 947 1118 l 1,7,-1
 1034 1031 l 1,8,-1
 685 685 l 1,9,-1
 1037 332 l 1,10,-1
 953 245 l 1,11,-1
 600 598 l 1,0,-1
EndSplineSet
EndChar

StartChar: Oslash
Encoding: 216 216 153
Width: 1593
GlyphClass: 2
Flags: W
LayerCount: 2
Fore
SplineSet
1491 711 m 0,0,1
 1491 491 1491 491 1406 327 c 128,-1,2
 1321 163 1321 163 1166 71 c 0,3,4
 1010 -20 1010 -20 796 -20 c 0,5,6
 537 -20 537 -20 364 104 c 1,7,-1
 234 -47 l 1,8,-1
 46 -46 l 1,9,-1
 261 202 l 1,10,11
 101 393 101 393 101 711 c 0,12,13
 101 937 101 937 184 1097 c 128,-1,14
 267 1257 267 1257 423 1344 c 0,15,16
 579 1430 579 1430 798 1430 c 0,17,18
 1062 1430 1062 1430 1231 1308 c 1,19,-1
 1365 1464 l 1,20,-1
 1557 1464 l 1,21,-1
 1337 1209 l 1,22,23
 1414 1114 1414 1114 1452 990 c 0,24,25
 1491 866 1491 866 1491 711 c 0,0,1
261 711 m 0,26,27
 261 474 261 474 368 318 c 1,28,-1
 1130 1199 l 1,29,30
 995 1299 995 1299 798 1299 c 0,31,32
 541 1299 541 1299 401 1145 c 0,33,34
 261 990 261 990 261 711 c 0,26,27
1331 711 m 0,35,36
 1331 941 1331 941 1229 1093 c 1,37,-1
 464 213 l 1,38,39
 595 110 595 110 796 110 c 0,40,41
 1055 110 1055 110 1193 267 c 128,-1,42
 1331 424 1331 424 1331 711 c 0,35,36
EndSplineSet
EndChar

StartChar: Thorn
Encoding: 222 222 159
Width: 1366
GlyphClass: 2
Flags: W
LayerCount: 2
Fore
SplineSet
1245 734 m 0,0,1
 1245 609 1245 609 1188 511 c 128,-1,2
 1131 413 1131 413 1024 358 c 0,3,4
 917 302 917 302 770 302 c 2,5,-1
 335 302 l 1,6,-1
 335 0 l 1,7,-1
 178 0 l 1,8,-1
 178 1409 l 1,9,-1
 335 1409 l 1,10,-1
 335 1151 l 1,11,-1
 758 1151 l 2,12,13
 992 1151 992 1151 1119 1041 c 0,14,15
 1245 930 1245 930 1245 734 c 0,0,1
1088 730 m 0,16,17
 1088 872 1088 872 1001 951 c 128,-1,18
 914 1030 914 1030 738 1030 c 2,19,-1
 335 1030 l 1,20,-1
 335 420 l 1,21,-1
 746 420 l 2,22,23
 910 420 910 420 999 502 c 128,-1,24
 1088 584 1088 584 1088 730 c 0,16,17
EndSplineSet
EndChar

StartChar: germandbls
Encoding: 223 223 160
Width: 1251
GlyphClass: 2
Flags: W
LayerCount: 2
Fore
SplineSet
1158 289 m 0,0,1
 1158 143 1158 143 1067 62 c 0,2,3
 975 -20 975 -20 810 -20 c 0,4,5
 630 -20 630 -20 520 31 c 1,6,-1
 517 181 l 1,7,8
 570 150 570 150 654 129 c 128,-1,9
 738 108 738 108 815 109 c 0,10,11
 911 109 911 109 963 155 c 0,12,13
 1016 201 1016 201 1016 287 c 0,14,15
 1016 355 1016 355 972 408 c 128,-1,16
 928 461 928 461 830 518 c 0,17,18
 736 572 736 572 689 638 c 128,-1,19
 642 704 642 704 642 793 c 0,20,21
 642 856 642 856 671 908 c 0,22,23
 700 959 700 959 753 1002 c 0,24,25
 810 1048 810 1048 837 1090 c 128,-1,26
 864 1132 864 1132 864 1185 c 0,27,28
 864 1266 864 1266 790 1314 c 0,29,30
 716 1363 716 1363 600 1363 c 0,31,32
 437 1363 437 1363 363 1278 c 0,33,34
 288 1193 288 1193 288 1024 c 2,35,-1
 288 0 l 1,36,-1
 142 0 l 1,37,-1
 142 1034 l 2,38,39
 142 1259 142 1259 256 1371 c 0,40,41
 370 1484 370 1484 599 1484 c 0,42,43
 784 1484 784 1484 895 1407 c 0,44,45
 1005 1330 1005 1330 1005 1200 c 0,46,47
 1005 1133 1005 1133 978 1069 c 0,48,49
 951 1006 951 1006 892 950 c 0,50,51
 828 892 828 892 805 865 c 0,52,53
 782 839 782 839 781 826 c 0,54,55
 779 813 779 813 779 794 c 0,56,57
 779 753 779 753 812 717 c 128,-1,58
 845 681 845 681 889 651 c 0,59,60
 933 622 933 622 969 601 c 0,61,62
 1158 476 1158 476 1158 289 c 0,0,1
EndSplineSet
EndChar

StartChar: ae
Encoding: 230 230 167
Width: 1821
GlyphClass: 2
Flags: W
LayerCount: 2
Fore
SplineSet
1695 223 m 1,0,1
 1604 -20 1604 -20 1262 -20 c 0,2,3
 937 -20 937 -20 843 246 c 1,4,5
 760 98 760 98 654 39 c 128,-1,6
 548 -20 548 -20 401 -20 c 0,7,8
 232 -20 232 -20 149 66 c 128,-1,9
 66 152 66 152 66 301 c 0,10,11
 66 652 66 652 559 657 c 2,12,-1
 799 661 l 1,13,-1
 799 722 l 2,14,15
 799 866 799 866 739 923 c 0,16,17
 678 980 678 980 546 980 c 0,18,19
 406 980 406 980 344 939 c 0,20,21
 281 898 281 898 267 802 c 1,22,-1
 114 820 l 1,23,24
 136 962 136 962 244 1032 c 0,25,26
 353 1102 353 1102 549 1102 c 0,27,28
 810 1102 810 1102 903 952 c 1,29,30
 1017 1102 1017 1102 1252 1102 c 0,31,32
 1493 1102 1493 1102 1610 961 c 0,33,34
 1728 820 1728 820 1728 538 c 2,35,-1
 1728 512 l 1,36,-1
 944 512 l 1,37,38
 944 302 944 302 1025 200 c 0,39,40
 1107 98 1107 98 1258 98 c 0,41,42
 1389 98 1389 98 1467 149 c 0,43,44
 1545 201 1545 201 1572 276 c 1,45,-1
 1695 223 l 1,0,1
1570 634 m 1,46,47
 1553 818 1553 818 1475 901 c 128,-1,48
 1397 984 1397 984 1249 984 c 0,49,50
 1113 984 1113 984 1033 893 c 128,-1,51
 953 802 953 802 946 634 c 1,52,-1
 1570 634 l 1,46,47
215 289 m 0,53,54
 215 199 215 199 269 147 c 128,-1,55
 323 95 323 95 427 95 c 0,56,57
 541 95 541 95 623 142 c 0,58,59
 706 188 706 188 753 269 c 0,60,61
 799 351 799 351 799 441 c 2,62,-1
 799 545 l 1,63,-1
 590 540 l 2,64,65
 450 537 450 537 369 509 c 0,66,67
 290 479 290 479 252 423 c 0,68,69
 215 368 215 368 215 289 c 0,53,54
EndSplineSet
EndChar

StartChar: eth
Encoding: 240 240 177
Width: 1102
GlyphClass: 2
Flags: W
LayerCount: 2
Fore
SplineSet
547 -21 m 0,0,1
 321 -21 321 -21 205 107 c 0,2,3
 88 235 88 235 88 482 c 0,4,5
 88 730 88 730 205 855 c 0,6,7
 322 981 322 981 555 981 c 0,8,9
 702 981 702 981 809 913 c 1,10,11
 685 1157 685 1157 547 1276 c 1,12,-1
 243 1139 l 1,13,-1
 243 1230 l 1,14,-1
 478 1332 l 1,15,16
 419 1379 419 1379 361 1417 c 0,17,18
 302 1455 302 1455 241 1484 c 1,19,-1
 423 1484 l 1,20,21
 499 1451 499 1451 596 1379 c 1,22,-1
 914 1518 l 1,23,-1
 913 1431 l 1,24,-1
 672 1325 l 1,25,26
 847 1170 847 1170 938 960 c 0,27,28
 1028 750 1028 750 1027 508 c 0,29,30
 1027 243 1027 243 909 111 c 128,-1,31
 791 -21 791 -21 547 -21 c 0,0,1
873 482 m 0,32,33
 873 685 873 685 800 776 c 128,-1,34
 727 867 727 867 559 868 c 0,35,36
 392 868 392 868 317 777 c 128,-1,37
 242 686 242 686 242 482 c 128,-1,38
 242 278 242 278 317 186 c 128,-1,39
 392 94 392 94 546 94 c 0,40,41
 719 94 719 94 796 186 c 128,-1,42
 873 278 873 278 873 482 c 0,32,33
EndSplineSet
EndChar

StartChar: divide
Encoding: 247 247 184
Width: 1124
GlyphClass: 2
Flags: W
LayerCount: 2
Fore
SplineSet
635 1124 m 1,0,-1
 635 957 l 1,1,-1
 490 957 l 1,2,-1
 490 1124 l 1,3,-1
 635 1124 l 1,0,-1
1055 741 m 1,4,-1
 1055 621 l 1,5,-1
 70 621 l 1,6,-1
 70 741 l 1,7,-1
 1055 741 l 1,4,-1
635 407 m 1,8,-1
 635 240 l 1,9,-1
 490 240 l 1,10,-1
 490 407 l 1,11,-1
 635 407 l 1,8,-1
EndSplineSet
EndChar

StartChar: oslash
Encoding: 248 248 185
Width: 1251
GlyphClass: 2
Flags: W
LayerCount: 2
Fore
SplineSet
1093 542 m 0,0,1
 1093 251 1093 251 974 116 c 0,2,3
 856 -20 856 -20 625 -20 c 0,4,5
 430 -20 430 -20 316 81 c 1,6,-1
 220 -32 l 1,7,-1
 58 -32 l 1,8,-1
 238 181 l 1,9,10
 167 318 167 318 166 542 c 0,11,12
 166 828 166 828 281 965 c 0,13,14
 395 1102 395 1102 631 1102 c 0,15,16
 833 1102 833 1102 942 1008 c 1,17,-1
 1030 1110 l 1,18,-1
 1191 1110 l 1,19,-1
 1022 911 l 1,20,21
 1093 781 1093 781 1093 542 c 0,0,1
320 542 m 0,22,23
 320 400 320 400 347 310 c 1,24,-1
 854 904 l 1,25,26
 785 989 785 989 634 989 c 0,27,28
 466 989 466 989 393 881 c 0,29,30
 320 774 320 774 320 542 c 0,22,23
938 542 m 0,31,32
 938 679 938 679 913 782 c 1,33,-1
 405 187 l 1,34,35
 474 94 474 94 623 94 c 0,36,37
 796 94 796 94 867 201 c 0,38,39
 938 309 938 309 938 542 c 0,31,32
EndSplineSet
EndChar

StartChar: thorn
Encoding: 254 254 191
Width: 1102
GlyphClass: 2
Flags: W
LayerCount: 2
Fore
SplineSet
283 1 m 2,0,-1
 283 -425 l 1,1,-1
 136 -425 l 1,2,-1
 136 1484 l 1,3,-1
 283 1484 l 1,4,-1
 283 1074 l 2,5,6
 283 1045 283 1045 282 1008 c 128,-1,7
 281 971 281 971 279 926 c 1,8,-1
 286 926 l 1,9,10
 334 1026 334 1026 410 1071 c 0,11,12
 486 1117 486 1117 617 1117 c 0,13,14
 820 1117 820 1117 918 985 c 128,-1,15
 1016 853 1016 853 1015 555 c 0,16,17
 1015 264 1015 264 919 122 c 0,18,19
 822 -20 822 -20 623 -20 c 0,20,21
 368 -20 368 -20 284 167 c 1,22,-1
 280 167 l 1,23,24
 283 168 283 168 283 1 c 2,0,-1
861 549 m 0,25,26
 861 793 861 793 798 895 c 128,-1,27
 735 997 735 997 595 996 c 0,28,29
 431 996 431 996 358 890 c 0,30,31
 284 784 284 784 284 533 c 0,32,33
 284 303 284 303 355 199 c 0,34,35
 426 94 426 94 593 94 c 0,36,37
 734 94 734 94 797 196 c 0,38,39
 861 298 861 298 861 549 c 0,25,26
EndSplineSet
EndChar

StartChar: dcroat
Encoding: 273 273 210
Width: 1102
GlyphClass: 2
Flags: W
LayerCount: 2
Fore
SplineSet
819 1334 m 1,0,-1
 819 1484 l 1,1,-1
 965 1484 l 1,2,-1
 965 1334 l 1,3,-1
 1097 1334 l 1,4,-1
 1097 1216 l 1,5,-1
 965 1216 l 1,6,-1
 965 219 l 2,7,8
 965 122 965 122 967 68 c 0,9,10
 968 14 968 14 971 0 c 1,11,-1
 832 0 l 1,12,13
 830 11 830 11 828 41 c 128,-1,14
 826 71 826 71 825 108 c 128,-1,15
 824 145 824 145 823 173 c 1,16,-1
 819 173 l 1,17,18
 768 67 768 67 687 24 c 0,19,20
 606 -20 606 -20 486 -20 c 0,21,22
 275 -20 275 -20 181 117 c 128,-1,23
 87 254 87 254 87 541 c 0,24,25
 87 832 87 832 183 973 c 0,26,27
 280 1115 280 1115 479 1115 c 0,28,29
 605 1115 605 1115 686 1071 c 0,30,31
 768 1027 768 1027 819 928 c 1,32,-1
 821 928 l 1,33,-1
 819 1030 l 1,34,-1
 819 1216 l 1,35,-1
 514 1216 l 1,36,-1
 514 1334 l 1,37,-1
 819 1334 l 1,0,-1
241 549 m 0,38,39
 241 305 241 305 303 203 c 0,40,41
 364 102 364 102 508 102 c 0,42,43
 674 102 674 102 746 212 c 128,-1,44
 818 322 818 322 818 562 c 0,45,46
 818 793 818 793 745 897 c 128,-1,47
 672 1001 672 1001 510 1000 c 0,48,49
 366 1000 366 1000 304 895 c 0,50,51
 241 790 241 790 241 549 c 0,38,39
EndSplineSet
EndChar

StartChar: Hbar
Encoding: 294 294 231
Width: 1479
GlyphClass: 2
Flags: W
LayerCount: 2
Fore
SplineSet
335 669 m 1,0,-1
 335 0 l 1,1,-1
 178 0 l 1,2,-1
 178 1018 l 1,3,-1
 14 1018 l 1,4,-1
 14 1167 l 1,5,-1
 178 1167 l 1,6,-1
 178 1409 l 1,7,-1
 335 1409 l 1,8,-1
 335 1167 l 1,9,-1
 1149 1167 l 1,10,-1
 1149 1409 l 1,11,-1
 1302 1409 l 1,12,-1
 1302 1167 l 1,13,-1
 1465 1167 l 1,14,-1
 1465 1018 l 1,15,-1
 1302 1018 l 1,16,-1
 1302 0 l 1,17,-1
 1149 0 l 1,18,-1
 1149 669 l 1,19,-1
 335 669 l 1,0,-1
335 801 m 1,20,-1
 1149 801 l 1,21,-1
 1149 1018 l 1,22,-1
 335 1018 l 1,23,-1
 335 801 l 1,20,-1
EndSplineSet
EndChar

StartChar: hbar
Encoding: 295 295 232
Width: 1102
GlyphClass: 2
Flags: W
LayerCount: 2
Fore
SplineSet
283 867 m 1,0,1
 341 967 341 967 421 1015 c 0,2,3
 501 1062 501 1062 628 1062 c 0,4,5
 805 1062 805 1062 886 972 c 128,-1,6
 967 882 967 882 967 693 c 2,7,-1
 967 0 l 1,8,-1
 819 0 l 1,9,-1
 819 672 l 2,10,11
 819 818 819 818 771 882 c 0,12,13
 724 946 724 946 586 947 c 0,14,15
 451 947 451 947 369 859 c 0,16,17
 288 771 288 771 288 617 c 2,18,-1
 288 0 l 1,19,-1
 142 0 l 1,20,-1
 142 1216 l 1,21,-1
 10 1216 l 1,22,-1
 10 1334 l 1,23,-1
 142 1334 l 1,24,-1
 142 1484 l 1,25,-1
 288 1484 l 1,26,-1
 288 1334 l 1,27,-1
 586 1334 l 1,28,-1
 586 1216 l 1,29,-1
 288 1216 l 1,30,-1
 288 1064 l 2,31,32
 288 1023 288 1023 286 976 c 128,-1,33
 284 929 284 929 282 897 c 128,-1,34
 280 865 280 865 280 867 c 1,35,-1
 283 867 l 1,0,1
EndSplineSet
EndChar

StartChar: dotlessi
Encoding: 305 305 242
Width: 569
GlyphClass: 2
Flags: W
LayerCount: 2
Fore
SplineSet
357 1082 m 1,0,-1
 357 0 l 1,1,-1
 210 0 l 1,2,-1
 210 1082 l 1,3,-1
 357 1082 l 1,0,-1
EndSplineSet
EndChar

StartChar: jcircumflex
Encoding: 309 309 246
Width: 417
GlyphClass: 2
Flags: W
LayerCount: 2
Fore
SplineSet
217 1368 m 1,0,-1
 -22 1207 l 1,1,-1
 -107 1207 l 1,2,-1
 -107 1224 l 1,3,-1
 119 1478 l 1,4,-1
 315 1478 l 1,5,-1
 530 1224 l 1,6,-1
 530 1207 l 1,7,-1
 443 1207 l 1,8,-1
 218 1368 l 1,9,-1
 217 1368 l 1,0,-1
57 -425 m 0,10,11
 -14 -425 -14 -425 -56 -416 c 1,12,-1
 -56 -296 l 1,13,-1
 10 -303 l 1,14,15
 78 -303 78 -303 106 -266 c 128,-1,16
 134 -229 134 -229 135 -123 c 2,17,-1
 135 1082 l 1,18,-1
 281 1082 l 1,19,-1
 281 -136 l 2,20,21
 281 -292 281 -292 225 -359 c 0,22,23
 170 -425 170 -425 57 -425 c 0,10,11
EndSplineSet
EndChar

StartChar: kgreenlandic
Encoding: 312 312 249
Width: 986
GlyphClass: 2
Flags: W
LayerCount: 2
Fore
SplineSet
283 379 m 1,0,-1
 283 0 l 1,1,-1
 136 0 l 1,2,-1
 136 1082 l 1,3,-1
 283 1082 l 1,4,-1
 283 532 l 1,5,-1
 787 1082 l 1,6,-1
 968 1082 l 1,7,-1
 510 603 l 1,8,-1
 989 0 l 1,9,-1
 810 0 l 1,10,-1
 419 495 l 1,11,-1
 283 379 l 1,0,-1
EndSplineSet
EndChar

StartChar: Lslash
Encoding: 321 321 258
Width: 1102
GlyphClass: 2
Flags: W
LayerCount: 2
Fore
SplineSet
179 0 m 1,0,-1
 178 556 l 1,1,-1
 27 465 l 1,2,-1
 27 600 l 1,3,-1
 178 692 l 1,4,-1
 178 1409 l 1,5,-1
 335 1409 l 1,6,-1
 335 791 l 1,7,-1
 575 940 l 1,8,-1
 575 805 l 1,9,-1
 335 655 l 1,10,-1
 335 131 l 1,11,-1
 1032 131 l 1,12,-1
 1032 0 l 1,13,-1
 179 0 l 1,0,-1
EndSplineSet
EndChar

StartChar: lslash
Encoding: 322 322 259
Width: 417
GlyphClass: 2
Flags: W
LayerCount: 2
Fore
SplineSet
136 0 m 1,0,-1
 136 536 l 1,1,-1
 15 468 l 1,2,-1
 15 607 l 1,3,-1
 136 675 l 1,4,-1
 136 1484 l 1,5,-1
 283 1484 l 1,6,-1
 283 762 l 1,7,-1
 405 833 l 1,8,-1
 405 692 l 1,9,-1
 283 623 l 1,10,-1
 283 0 l 1,11,-1
 136 0 l 1,0,-1
EndSplineSet
EndChar

StartChar: eng
Encoding: 331 331 267
Width: 1102
GlyphClass: 2
Flags: W
LayerCount: 2
Fore
SplineSet
747 -425 m 0,0,1
 677 -425 677 -425 634 -416 c 1,2,-1
 634 -296 l 1,3,-1
 699 -303 l 1,4,5
 766 -303 766 -303 795 -266 c 128,-1,6
 824 -229 824 -229 824 -123 c 2,7,-1
 824 712 l 2,8,9
 824 859 824 859 780 923 c 128,-1,10
 736 987 736 987 591 986 c 0,11,12
 452 986 452 986 373 897 c 128,-1,13
 294 808 294 808 294 643 c 2,14,-1
 294 0 l 1,15,-1
 147 0 l 1,16,-1
 147 855 l 2,17,18
 147 953 147 953 146 1010 c 0,19,20
 145 1068 145 1068 142 1082 c 1,21,-1
 279 1082 l 1,22,23
 280 1082 280 1082 280 1071 c 128,-1,24
 280 1060 280 1060 282 1022 c 0,25,26
 284 985 284 985 286 907 c 1,27,-1
 288 907 l 1,28,29
 352 1015 352 1015 432 1058 c 128,-1,30
 512 1101 512 1101 634 1102 c 0,31,32
 814 1102 814 1102 893 1019 c 128,-1,33
 972 936 972 936 972 732 c 2,34,-1
 972 -136 l 2,35,36
 972 -290 972 -290 917 -357 c 0,37,38
 861 -425 861 -425 747 -425 c 0,0,1
EndSplineSet
EndChar

StartChar: OE
Encoding: 338 338 274
Width: 2048
GlyphClass: 2
Flags: W
LayerCount: 2
Fore
SplineSet
1001 0 m 1,0,1
 968 -6 968 -6 917 -8 c 0,2,3
 865 -10 865 -10 788 -10 c 0,4,5
 575 -10 575 -10 421 77 c 128,-1,6
 267 164 267 164 184 327 c 0,7,8
 101 489 101 489 101 711 c 0,9,10
 101 932 101 932 184 1090 c 0,11,12
 267 1249 267 1249 421 1335 c 0,13,14
 575 1420 575 1420 790 1420 c 0,15,16
 849 1420 849 1420 903 1417 c 128,-1,17
 957 1414 957 1414 1005 1409 c 1,18,-1
 1914 1409 l 1,19,-1
 1914 1276 l 1,20,-1
 1066 1276 l 1,21,-1
 1066 792 l 1,22,-1
 1854 792 l 1,23,-1
 1854 661 l 1,24,-1
 1066 661 l 1,25,-1
 1066 133 l 1,26,-1
 1955 133 l 1,27,-1
 1955 0 l 1,28,-1
 1001 0 l 1,0,1
910 1290 m 1,29,30
 862 1292 862 1292 827 1291 c 0,31,32
 793 1290 793 1290 790 1289 c 0,33,34
 530 1289 530 1289 396 1140 c 128,-1,35
 262 991 262 991 261 711 c 0,36,37
 261 430 261 430 400 275 c 128,-1,38
 539 120 539 120 788 120 c 0,39,40
 823 120 823 120 854 119 c 0,41,42
 885 119 885 119 910 118 c 1,43,-1
 910 1290 l 1,29,30
EndSplineSet
EndChar

StartChar: oe
Encoding: 339 339 275
Width: 1933
GlyphClass: 2
Flags: W
LayerCount: 2
Fore
SplineSet
1036 512 m 1,0,1
 1036 313 1036 313 1119 205 c 128,-1,2
 1202 97 1202 97 1363 98 c 0,3,4
 1494 98 1494 98 1573 149 c 0,5,6
 1651 201 1651 201 1678 276 c 1,7,-1
 1800 223 l 1,8,9
 1709 -20 1709 -20 1368 -20 c 0,10,11
 1082 -20 1082 -20 963 171 c 1,12,13
 846 -20 846 -20 560 -20 c 0,14,15
 327 -20 327 -20 207 123 c 0,16,17
 88 266 88 266 88 542 c 0,18,19
 88 827 88 827 209 964 c 0,20,21
 330 1102 330 1102 566 1102 c 0,22,23
 855 1102 855 1102 965 917 c 1,24,25
 1088 1102 1088 1102 1357 1102 c 0,26,27
 1598 1102 1598 1102 1716 961 c 128,-1,28
 1834 820 1834 820 1834 538 c 2,29,-1
 1834 512 l 1,30,-1
 1036 512 l 1,0,1
882 542 m 0,31,32
 882 770 882 770 811 879 c 0,33,34
 740 989 740 989 568 989 c 0,35,36
 395 989 395 989 319 877 c 0,37,38
 242 766 242 766 242 542 c 0,39,40
 242 317 242 317 320 205 c 128,-1,41
 398 93 398 93 558 94 c 0,42,43
 733 94 733 94 808 201 c 0,44,45
 882 309 882 309 882 542 c 0,31,32
1355 984 m 0,46,47
 1213 984 1213 984 1129 890 c 128,-1,48
 1045 796 1045 796 1038 634 c 1,49,-1
 1676 634 l 1,50,51
 1659 818 1659 818 1581 901 c 0,52,53
 1504 984 1504 984 1355 984 c 0,46,47
EndSplineSet
EndChar

StartChar: Tbar
Encoding: 358 358 294
Width: 1251
GlyphClass: 2
Flags: W
LayerCount: 2
Fore
SplineSet
703 654 m 1,0,-1
 703 0 l 1,1,-1
 547 0 l 1,2,-1
 547 654 l 1,3,-1
 251 654 l 1,4,-1
 251 796 l 1,5,-1
 547 796 l 1,6,-1
 547 1277 l 1,7,-1
 54 1277 l 1,8,-1
 54 1409 l 1,9,-1
 1196 1409 l 1,10,-1
 1196 1277 l 1,11,-1
 703 1277 l 1,12,-1
 703 796 l 1,13,-1
 1001 796 l 1,14,-1
 1001 654 l 1,15,-1
 703 654 l 1,0,-1
EndSplineSet
EndChar

StartChar: tbar
Encoding: 359 359 295
Width: 531
GlyphClass: 2
Flags: W
LayerCount: 2
Fore
SplineSet
356 -15 m 0,0,1
 253 -15 253 -15 204 44 c 0,2,3
 154 104 154 104 154 221 c 2,4,-1
 154 530 l 1,5,-1
 30 530 l 1,6,-1
 30 642 l 1,7,-1
 154 642 l 1,8,-1
 154 970 l 1,9,-1
 33 970 l 1,10,-1
 33 1082 l 1,11,-1
 159 1082 l 1,12,-1
 200 1320 l 1,13,-1
 302 1320 l 1,14,-1
 302 1082 l 1,15,-1
 500 1082 l 1,16,-1
 500 970 l 1,17,-1
 302 970 l 1,18,-1
 302 642 l 1,19,-1
 507 642 l 1,20,-1
 507 530 l 1,21,-1
 302 530 l 1,22,-1
 302 248 l 2,23,24
 302 170 302 170 326 140 c 128,-1,25
 350 110 350 110 413 111 c 0,26,27
 448 111 448 111 520 125 c 1,28,-1
 520 5 l 1,29,30
 436 -15 436 -15 356 -15 c 0,0,1
EndSplineSet
EndChar

StartChar: longs
Encoding: 383 383 319
Width: 417
GlyphClass: 2
Flags: W
LayerCount: 2
Fore
SplineSet
284 1183 m 2,0,-1
 284 0 l 1,1,-1
 137 0 l 1,2,-1
 137 1207 l 2,3,4
 137 1355 137 1355 197 1418 c 0,5,6
 258 1481 258 1481 384 1481 c 0,7,8
 457 1481 457 1481 494 1471 c 1,9,-1
 494 1348 l 1,10,11
 443 1356 443 1356 415 1356 c 0,12,13
 347 1356 347 1356 315 1319 c 0,14,15
 284 1282 284 1282 284 1183 c 2,0,-1
EndSplineSet
EndChar

StartChar: uni0180
Encoding: 384 384 320
Width: 1102
GlyphClass: 2
Flags: W
LayerCount: 2
Fore
SplineSet
1015 553 m 0,0,1
 1015 264 1015 264 918 122 c 128,-1,2
 821 -20 821 -20 623 -20 c 0,3,4
 498 -20 498 -20 417 23 c 128,-1,5
 336 66 336 66 283 166 c 1,6,-1
 281 166 l 1,7,8
 281 147 281 147 279 109 c 128,-1,9
 277 71 277 71 275 38 c 0,10,11
 273 6 273 6 272 0 c 1,12,-1
 131 0 l 1,13,14
 134 20 134 20 135 74 c 128,-1,15
 136 128 136 128 136 215 c 2,16,-1
 136 1216 l 1,17,-1
 11 1216 l 1,18,-1
 11 1334 l 1,19,-1
 136 1334 l 1,20,-1
 136 1484 l 1,21,-1
 283 1484 l 1,22,-1
 283 1334 l 1,23,-1
 586 1334 l 1,24,-1
 586 1216 l 1,25,-1
 283 1216 l 1,26,-1
 283 1071 l 2,27,28
 283 1043 283 1043 282 1007 c 0,29,30
 281 970 281 970 279 926 c 1,31,-1
 283 926 l 1,32,33
 334 1030 334 1030 415 1073 c 128,-1,34
 496 1116 496 1116 617 1115 c 0,35,36
 826 1115 826 1115 921 977 c 0,37,38
 1015 839 1015 839 1015 553 c 0,0,1
861 545 m 0,39,40
 861 788 861 788 798 891 c 0,41,42
 736 994 736 994 594 995 c 0,43,44
 431 995 431 995 358 886 c 0,45,46
 284 777 284 777 284 533 c 0,47,48
 284 305 284 305 356 199 c 128,-1,49
 428 93 428 93 592 94 c 0,50,51
 735 94 735 94 798 199 c 128,-1,52
 861 304 861 304 861 545 c 0,39,40
EndSplineSet
EndChar

StartChar: uni0181
Encoding: 385 385 321
Width: 1500
GlyphClass: 2
Flags: W
LayerCount: 2
Fore
SplineSet
1374 395 m 0,0,1
 1374 208 1374 208 1240 104 c 0,2,3
 1105 0 1105 0 865 0 c 2,4,-1
 337 0 l 1,5,-1
 337 1283 l 1,6,-1
 307 1283 l 2,7,8
 227 1283 227 1283 194 1247 c 128,-1,9
 161 1211 161 1211 161 1134 c 0,10,11
 161 1086 161 1086 175 1039 c 1,12,-1
 39 1022 l 1,13,14
 26 1088 26 1088 27 1135 c 0,15,16
 27 1266 27 1266 111 1337 c 0,17,18
 195 1409 195 1409 350 1409 c 2,19,-1
 805 1409 l 2,20,21
 1292 1409 1292 1409 1292 1071 c 0,22,23
 1292 944 1292 944 1221 858 c 128,-1,24
 1150 772 1150 772 1024 744 c 1,25,26
 1191 724 1191 724 1283 630 c 0,27,28
 1374 535 1374 535 1374 395 c 0,0,1
1135 1054 m 0,29,30
 1135 1174 1135 1174 1051 1226 c 128,-1,31
 967 1278 967 1278 809 1278 c 2,32,-1
 493 1278 l 1,33,-1
 493 800 l 1,34,-1
 809 800 l 2,35,36
 971 800 971 800 1053 862 c 128,-1,37
 1135 924 1135 924 1135 1054 c 0,29,30
1215 408 m 0,38,39
 1216 674 1216 674 844 674 c 2,40,-1
 493 674 l 1,41,-1
 493 131 l 1,42,-1
 860 131 l 2,43,44
 1046 131 1046 131 1131 201 c 0,45,46
 1215 270 1215 270 1215 408 c 0,38,39
EndSplineSet
EndChar

StartChar: uni0182
Encoding: 386 386 322
Width: 1301
GlyphClass: 2
Flags: W
LayerCount: 2
Fore
SplineSet
1221 407 m 0,0,1
 1221 284 1221 284 1165 193 c 0,2,3
 1109 101 1109 101 1003 51 c 0,4,5
 897 0 897 0 748 0 c 2,6,-1
 178 0 l 1,7,-1
 178 1409 l 1,8,-1
 1093 1409 l 1,9,-1
 1093 1276 l 1,10,-1
 335 1276 l 1,11,-1
 335 804 l 1,12,-1
 721 804 l 2,13,14
 957 804 957 804 1089 700 c 0,15,16
 1221 595 1221 595 1221 407 c 0,0,1
1064 406 m 0,17,18
 1064 536 1064 536 978 605 c 0,19,20
 892 673 892 673 719 674 c 2,21,-1
 335 674 l 1,22,-1
 335 129 l 1,23,-1
 728 129 l 2,24,25
 902 129 902 129 983 202 c 128,-1,26
 1064 275 1064 275 1064 406 c 0,17,18
EndSplineSet
EndChar

StartChar: uni0183
Encoding: 387 387 323
Width: 1102
GlyphClass: 2
Flags: W
LayerCount: 2
Fore
SplineSet
1015 553 m 0,0,1
 1015 262 1015 262 919 121 c 128,-1,2
 823 -20 823 -20 623 -20 c 0,3,4
 498 -20 498 -20 417 23 c 128,-1,5
 336 66 336 66 283 166 c 1,6,-1
 281 166 l 1,7,8
 281 147 281 147 279 109 c 128,-1,9
 277 71 277 71 275 38 c 0,10,11
 273 6 273 6 272 0 c 1,12,-1
 131 0 l 1,13,14
 134 20 134 20 135 74 c 128,-1,15
 136 128 136 128 136 215 c 2,16,-1
 136 1484 l 1,17,-1
 881 1484 l 1,18,-1
 881 1343 l 1,19,-1
 283 1343 l 1,20,-1
 283 1071 l 2,21,22
 283 1043 283 1043 282 1007 c 0,23,24
 281 970 281 970 279 926 c 1,25,-1
 283 926 l 1,26,27
 334 1030 334 1030 415 1073 c 128,-1,28
 496 1116 496 1116 617 1115 c 0,29,30
 828 1115 828 1115 922 978 c 0,31,32
 1015 841 1015 841 1015 553 c 0,0,1
861 545 m 0,33,34
 861 790 861 790 799 893 c 0,35,36
 738 995 738 995 594 995 c 0,37,38
 428 995 428 995 357 886 c 0,39,40
 285 778 285 778 284 533 c 0,41,42
 284 304 284 304 355 199 c 128,-1,43
 426 94 426 94 592 94 c 0,44,45
 736 94 736 94 799 198 c 0,46,47
 861 302 861 302 861 545 c 0,33,34
EndSplineSet
EndChar

StartChar: uni0184
Encoding: 388 388 324
Width: 1301
GlyphClass: 2
Flags: W
LayerCount: 2
Fore
SplineSet
1221 414 m 0,0,1
 1221 291 1221 291 1164 198 c 0,2,3
 1107 104 1107 104 1000 52 c 128,-1,4
 893 0 893 0 748 0 c 2,5,-1
 178 0 l 1,6,-1
 178 1014 l 1,7,-1
 13 1186 l 1,8,-1
 13 1218 l 1,9,-1
 285 1409 l 1,10,-1
 335 1409 l 1,11,-1
 335 817 l 1,12,-1
 721 817 l 2,13,14
 958 817 958 817 1090 710 c 0,15,16
 1221 602 1221 602 1221 414 c 0,0,1
1064 413 m 0,17,18
 1064 542 1064 542 977 614 c 128,-1,19
 890 686 890 686 719 687 c 2,20,-1
 335 687 l 1,21,-1
 335 129 l 1,22,-1
 728 129 l 2,23,24
 902 129 902 129 983 205 c 0,25,26
 1064 282 1064 282 1064 413 c 0,17,18
EndSplineSet
EndChar

StartChar: uni0185
Encoding: 389 389 325
Width: 1102
GlyphClass: 2
Flags: W
LayerCount: 2
Fore
SplineSet
1015 546 m 0,0,1
 1015 258 1015 258 919 119 c 0,2,3
 822 -20 822 -20 623 -20 c 0,4,5
 498 -20 498 -20 417 23 c 128,-1,6
 336 66 336 66 283 166 c 1,7,-1
 281 166 l 1,8,9
 281 147 281 147 279 109 c 128,-1,10
 277 71 277 71 275 38 c 0,11,12
 273 6 273 6 272 0 c 1,13,-1
 131 0 l 1,14,15
 134 20 134 20 135 74 c 128,-1,16
 136 128 136 128 136 215 c 2,17,-1
 136 1082 l 1,18,-1
 13 1275 l 1,19,-1
 13 1307 l 1,20,-1
 240 1484 l 1,21,-1
 283 1484 l 1,22,-1
 283 1058 l 2,23,24
 283 1030 283 1030 282 993 c 128,-1,25
 281 956 281 956 279 913 c 1,26,-1
 283 913 l 1,27,28
 334 1017 334 1017 415 1059 c 0,29,30
 496 1102 496 1102 617 1102 c 0,31,32
 826 1102 826 1102 921 966 c 0,33,34
 1015 831 1015 831 1015 546 c 0,0,1
861 538 m 0,35,36
 861 779 861 779 799 881 c 0,37,38
 737 982 737 982 594 981 c 0,39,40
 429 981 429 981 357 875 c 0,41,42
 284 768 284 768 284 527 c 0,43,44
 284 300 284 300 355 197 c 128,-1,45
 426 94 426 94 592 94 c 0,46,47
 736 94 736 94 799 197 c 0,48,49
 861 299 861 299 861 538 c 0,35,36
EndSplineSet
EndChar

StartChar: uni0186
Encoding: 390 390 326
Width: 1479
GlyphClass: 2
Flags: W
LayerCount: 2
Fore
SplineSet
699 111 m 0,0,1
 943 111 943 111 1080 268 c 128,-1,2
 1217 425 1217 425 1218 699 c 0,3,4
 1218 877 1218 877 1152 1012 c 0,5,6
 1087 1147 1087 1147 969 1222 c 0,7,8
 851 1298 851 1298 691 1298 c 0,9,10
 394 1298 394 1298 225 996 c 1,11,-1
 103 1068 l 1,12,13
 193 1243 193 1243 346 1336 c 0,14,15
 500 1430 500 1430 703 1430 c 0,16,17
 914 1430 914 1430 1065 1341 c 128,-1,18
 1216 1252 1216 1252 1297 1088 c 128,-1,19
 1378 924 1378 924 1378 699 c 0,20,21
 1378 475 1378 475 1296 314 c 128,-1,22
 1214 153 1214 153 1062 67 c 0,23,24
 910 -20 910 -20 700 -20 c 0,25,26
 481 -20 481 -20 334 63 c 128,-1,27
 187 146 187 146 114 315 c 1,28,-1
 269 371 l 1,29,30
 318 246 318 246 430 179 c 0,31,32
 541 111 541 111 699 111 c 0,0,1
EndSplineSet
EndChar

StartChar: uni0187
Encoding: 391 391 327
Width: 1479
GlyphClass: 2
Flags: W
LayerCount: 2
Fore
SplineSet
1227 1039 m 1,0,1
 1173 1168 1173 1168 1061 1233 c 0,2,3
 949 1299 949 1299 793 1299 c 0,4,5
 548 1299 548 1299 409 1140 c 128,-1,6
 270 981 270 981 271 711 c 0,7,8
 271 536 271 536 337 400 c 128,-1,9
 403 264 403 264 522 188 c 128,-1,10
 641 112 641 112 802 112 c 0,11,12
 957 112 957 112 1074 189 c 0,13,14
 1192 266 1192 266 1271 414 c 1,15,-1
 1394 342 l 1,16,17
 1305 167 1305 167 1148 73 c 0,18,19
 992 -20 992 -20 790 -20 c 0,20,21
 580 -20 580 -20 427 70 c 0,22,23
 275 160 275 160 193 324 c 0,24,25
 111 489 111 489 111 711 c 0,26,27
 111 934 111 934 193 1095 c 0,28,29
 276 1256 276 1256 429 1343 c 128,-1,30
 582 1430 582 1430 793 1430 c 0,31,32
 1090 1430 1090 1430 1260 1277 c 1,33,-1
 1260 1288 l 2,34,35
 1260 1425 1260 1425 1324 1505 c 0,36,37
 1388 1586 1388 1586 1501 1586 c 0,38,39
 1549 1586 1549 1586 1610 1572 c 1,40,-1
 1610 1430 l 1,41,42
 1556 1450 1556 1450 1522 1450 c 0,43,44
 1447 1450 1447 1450 1415 1414 c 128,-1,45
 1383 1378 1383 1378 1382 1300 c 2,46,-1
 1382 1095 l 1,47,-1
 1227 1039 l 1,0,1
EndSplineSet
EndChar

StartChar: uni0188
Encoding: 392 392 328
Width: 986
GlyphClass: 2
Flags: W
LayerCount: 2
Fore
SplineSet
776 778 m 1,0,1
 761 870 761 870 701 924 c 128,-1,2
 641 978 641 978 531 978 c 0,3,4
 377 978 377 978 309 882 c 0,5,6
 242 786 242 786 242 546 c 0,7,8
 242 320 242 320 314 213 c 128,-1,9
 386 106 386 106 532 106 c 0,10,11
 633 106 633 106 701 158 c 128,-1,12
 769 210 769 210 785 321 c 1,13,-1
 934 309 l 1,14,15
 920 207 920 207 868 134 c 0,16,17
 815 60 815 60 732 20 c 128,-1,18
 649 -20 649 -20 539 -20 c 0,19,20
 318 -20 318 -20 204 123 c 0,21,22
 89 266 89 266 89 544 c 0,23,24
 89 819 89 819 204 960 c 0,25,26
 319 1102 319 1102 535 1102 c 0,27,28
 697 1102 697 1102 805 1019 c 1,29,30
 814 1137 814 1137 876 1202 c 0,31,32
 937 1268 937 1268 1047 1268 c 0,33,34
 1085 1268 1085 1268 1129 1258 c 1,35,-1
 1129 1125 l 1,36,37
 1102 1142 1102 1142 1053 1142 c 0,38,39
 985 1142 985 1142 957 1106 c 128,-1,40
 929 1070 929 1070 929 992 c 2,41,-1
 929 792 l 1,42,-1
 776 778 l 1,0,1
EndSplineSet
EndChar

StartChar: uni018A
Encoding: 394 394 330
Width: 1639
GlyphClass: 2
Flags: W
LayerCount: 2
Fore
SplineSet
1536 720 m 0,0,1
 1536 502 1536 502 1451 339 c 128,-1,2
 1366 176 1366 176 1210 88 c 128,-1,3
 1054 0 1054 0 850 0 c 2,4,-1
 337 0 l 1,5,-1
 337 1283 l 1,6,-1
 307 1283 l 2,7,8
 227 1283 227 1283 194 1247 c 128,-1,9
 161 1211 161 1211 161 1134 c 0,10,11
 161 1086 161 1086 175 1039 c 1,12,-1
 39 1022 l 1,13,14
 26 1088 26 1088 27 1135 c 0,15,16
 27 1266 27 1266 111 1337 c 0,17,18
 195 1409 195 1409 350 1409 c 2,19,-1
 788 1409 l 2,20,21
 1147 1409 1147 1409 1341 1230 c 0,22,23
 1536 1050 1536 1050 1536 720 c 0,0,1
1378 720 m 0,24,25
 1378 994 1378 994 1226 1137 c 128,-1,26
 1074 1280 1074 1280 785 1281 c 2,27,-1
 493 1281 l 1,28,-1
 493 128 l 1,29,-1
 829 128 l 2,30,31
 993 128 993 128 1117 200 c 128,-1,32
 1241 272 1241 272 1309 405 c 0,33,34
 1378 538 1378 538 1378 720 c 0,24,25
EndSplineSet
EndChar

StartChar: uni018B
Encoding: 395 395 331
Width: 1301
GlyphClass: 2
Flags: W
LayerCount: 2
Fore
SplineSet
79 407 m 0,0,1
 79 595 79 595 211 700 c 0,2,3
 343 804 343 804 578 804 c 2,4,-1
 965 804 l 1,5,-1
 965 1276 l 1,6,-1
 207 1276 l 1,7,-1
 207 1409 l 1,8,-1
 1122 1409 l 1,9,-1
 1122 0 l 1,10,-1
 552 0 l 2,11,12
 330 0 330 0 204 112 c 0,13,14
 79 224 79 224 79 407 c 0,0,1
235 406 m 0,15,16
 235 275 235 275 317 202 c 0,17,18
 398 129 398 129 572 129 c 2,19,-1
 965 129 l 1,20,-1
 965 674 l 1,21,-1
 581 674 l 2,22,23
 408 674 408 674 322 605 c 0,24,25
 235 536 235 536 235 406 c 0,15,16
EndSplineSet
EndChar

StartChar: uni018C
Encoding: 396 396 332
Width: 1102
GlyphClass: 2
Flags: W
LayerCount: 2
Fore
SplineSet
81 553 m 0,0,1
 81 841 81 841 175 978 c 128,-1,2
 269 1115 269 1115 480 1115 c 0,3,4
 601 1115 601 1115 682 1073 c 0,5,6
 763 1030 763 1030 814 926 c 1,7,-1
 818 926 l 1,8,9
 816 970 816 970 815 1007 c 128,-1,10
 814 1044 814 1044 814 1071 c 2,11,-1
 814 1343 l 1,12,-1
 216 1343 l 1,13,-1
 216 1484 l 1,14,-1
 960 1484 l 1,15,-1
 960 215 l 2,16,17
 960 127 960 127 962 74 c 0,18,19
 963 20 963 20 966 0 c 1,20,-1
 824 0 l 1,21,22
 824 4 824 4 822 38 c 0,23,24
 820 71 820 71 818 109 c 128,-1,25
 816 147 816 147 816 166 c 1,26,-1
 814 166 l 1,27,28
 761 66 761 66 680 23 c 128,-1,29
 599 -20 599 -20 474 -20 c 0,30,31
 274 -20 274 -20 177 121 c 0,32,33
 81 262 81 262 81 553 c 0,0,1
236 545 m 0,34,35
 236 304 236 304 298 199 c 128,-1,36
 360 94 360 94 504 94 c 0,37,38
 668 94 668 94 740 198 c 128,-1,39
 812 302 812 302 812 533 c 0,40,41
 812 775 812 775 741 885 c 0,42,43
 669 995 669 995 502 995 c 0,44,45
 359 995 359 995 298 892 c 0,46,47
 236 789 236 789 236 545 c 0,34,35
EndSplineSet
EndChar

StartChar: uni018D
Encoding: 397 397 333
Width: 1106
GlyphClass: 2
Flags: W
LayerCount: 2
Fore
SplineSet
1014 559 m 0,0,1
 1014 282 1014 282 903 146 c 128,-1,2
 792 10 792 10 565 4 c 1,3,-1
 924 -309 l 1,4,-1
 924 -425 l 1,5,-1
 197 -425 l 1,6,-1
 197 -299 l 1,7,-1
 710 -299 l 1,8,-1
 279 69 l 2,9,10
 170 162 170 162 129 276 c 0,11,12
 88 391 88 391 88 559 c 0,13,14
 88 751 88 751 138 870 c 0,15,16
 188 990 188 990 291 1046 c 128,-1,17
 394 1102 394 1102 553 1102 c 0,18,19
 800 1102 800 1102 907 974 c 0,20,21
 1014 847 1014 847 1014 559 c 0,0,1
860 559 m 0,22,23
 860 793 860 793 794 890 c 0,24,25
 728 988 728 988 555 989 c 0,26,27
 383 989 383 989 313 888 c 0,28,29
 242 787 242 787 242 559 c 0,30,31
 242 335 242 335 312 227 c 128,-1,32
 382 119 382 119 545 119 c 0,33,34
 724 119 724 119 792 230 c 0,35,36
 860 342 860 342 860 559 c 0,22,23
EndSplineSet
EndChar

StartChar: uni018E
Encoding: 398 398 334
Width: 1366
GlyphClass: 2
Flags: W
LayerCount: 2
Fore
SplineSet
1189 1409 m 1,0,-1
 1189 0 l 1,1,-1
 92 0 l 1,2,-1
 92 132 l 1,3,-1
 1032 132 l 1,4,-1
 1032 663 l 1,5,-1
 193 663 l 1,6,-1
 193 792 l 1,7,-1
 1032 792 l 1,8,-1
 1032 1277 l 1,9,-1
 133 1277 l 1,10,-1
 133 1409 l 1,11,-1
 1189 1409 l 1,0,-1
EndSplineSet
EndChar

StartChar: uni018F
Encoding: 399 399 335
Width: 1558
GlyphClass: 2
Flags: W
LayerCount: 2
Fore
SplineSet
1308 797 m 1,0,1
 1281 1031 1281 1031 1140 1164 c 0,2,3
 999 1296 999 1296 785 1297 c 0,4,5
 619 1297 619 1297 502 1225 c 128,-1,6
 385 1153 385 1153 324 1028 c 1,7,-1
 169 1079 l 1,8,9
 251 1243 251 1243 407 1337 c 0,10,11
 563 1430 563 1430 784 1430 c 0,12,13
 984 1430 984 1430 1132 1352 c 0,14,15
 1292 1266 1292 1266 1377 1099 c 128,-1,16
 1462 932 1462 932 1462 711 c 0,17,18
 1462 491 1462 491 1379 327 c 0,19,20
 1296 161 1296 161 1142 70 c 0,21,22
 988 -20 988 -20 782 -20 c 0,23,24
 573 -20 573 -20 417 69 c 0,25,26
 261 159 261 159 179 326 c 128,-1,27
 97 493 97 493 97 711 c 0,28,29
 97 724 97 724 98 745 c 128,-1,30
 99 766 99 766 101 797 c 1,31,-1
 1308 797 l 1,0,1
782 110 m 132,-1,33
 1031 110 1031 110 1168 253 c 128,-1,34
 1305 396 1305 396 1315 665 c 1,35,-1
 240 665 l 1,36,37
 259.160170911 398.774467348 259.160170911 398.774467348 400 250 c 0,38,39
 533 110 533 110 782 110 c 132,-1,33
EndSplineSet
EndChar

StartChar: uni0190
Encoding: 400 400 336
Width: 1221
GlyphClass: 2
Flags: W
LayerCount: 2
Fore
SplineSet
599 -20 m 0,0,1
 453 -20 453 -20 337 34 c 128,-1,2
 221 88 221 88 153 180 c 0,3,4
 86 273 86 273 86 388 c 0,5,6
 86 533 86 533 167 624 c 128,-1,7
 248 715 248 715 410 739 c 1,8,9
 130 789 130 789 130 1051 c 0,10,11
 130 1166 130 1166 188 1251 c 128,-1,12
 246 1336 246 1336 347 1382 c 0,13,14
 449 1429 449 1429 585 1429 c 0,15,16
 778 1429 778 1429 909 1349 c 128,-1,17
 1040 1269 1040 1269 1111 1105 c 1,18,-1
 962 1044 l 1,19,20
 908 1176 908 1176 817 1235 c 128,-1,21
 726 1294 726 1294 593 1294 c 0,22,23
 456 1294 456 1294 373 1233 c 128,-1,24
 290 1172 290 1172 290 1068 c 0,25,26
 290 794 290 794 663 793 c 2,27,-1
 738 793 l 1,28,-1
 738 671 l 1,29,-1
 663 671 l 2,30,31
 450 671 450 671 349 607 c 128,-1,32
 248 543 248 543 248 400 c 0,33,34
 248 262 248 262 345 185 c 128,-1,35
 442 108 442 108 605 108 c 0,36,37
 877 108 877 108 1005 387 c 1,38,-1
 1137 315 l 1,39,40
 1046 133 1046 133 919 56 c 0,41,42
 791 -20 791 -20 599 -20 c 0,0,1
EndSplineSet
EndChar

StartChar: uni0191
Encoding: 401 401 337
Width: 1251
GlyphClass: 2
Flags: W
LayerCount: 2
Fore
SplineSet
335 -162 m 2,0,1
 335 -288 335 -288 268 -356 c 0,2,3
 201 -425 201 -425 84 -425 c 0,4,5
 30 -425 30 -425 -52 -405 c 1,6,-1
 -6 -270 l 1,7,8
 43 -288 43 -288 79 -288 c 0,9,10
 127 -288 127 -288 152 -249 c 0,11,12
 178 -210 178 -210 178 -131 c 2,13,-1
 178 1409 l 1,14,-1
 1167 1409 l 1,15,-1
 1167 1277 l 1,16,-1
 335 1277 l 1,17,-1
 335 724 l 1,18,-1
 1142 724 l 1,19,-1
 1142 589 l 1,20,-1
 335 589 l 1,21,-1
 335 -162 l 2,0,1
EndSplineSet
EndChar

StartChar: florin
Encoding: 402 402 338
Width: 1139
GlyphClass: 2
Flags: W
LayerCount: 2
Fore
SplineSet
844 1324 m 1,0,1
 829 1328 829 1328 798 1333 c 128,-1,2
 767 1338 767 1338 730 1338 c 0,3,4
 665 1338 665 1338 633 1296 c 0,5,6
 602 1254 602 1254 602 1156 c 2,7,-1
 602 1002 l 1,8,-1
 812 1002 l 1,9,-1
 812 891 l 1,10,-1
 599 891 l 1,11,-1
 599 -466 l 1,12,-1
 452 -466 l 1,13,-1
 452 891 l 1,14,-1
 302 891 l 1,15,-1
 302 1002 l 1,16,-1
 453 1002 l 1,17,-1
 453 1140 l 2,18,19
 453 1303 453 1303 514 1374 c 0,20,21
 575 1444 575 1444 701 1444 c 0,22,23
 732 1444 732 1444 770 1440 c 128,-1,24
 808 1436 808 1436 844 1426 c 1,25,-1
 844 1324 l 1,0,1
EndSplineSet
EndChar

StartChar: uni0193
Encoding: 403 403 339
Width: 1593
GlyphClass: 2
Flags: W
LayerCount: 2
Fore
SplineSet
1248 1065 m 1,0,1
 1183 1189 1183 1189 1073 1244 c 0,2,3
 964 1299 964 1299 797 1299 c 0,4,5
 541 1299 541 1299 405 1144 c 128,-1,6
 269 989 269 989 269 711 c 0,7,8
 269 435 269 435 415 272 c 0,9,10
 560 110 560 110 815 110 c 0,11,12
 961 110 961 110 1084 155 c 128,-1,13
 1207 200 1207 200 1286 278 c 1,14,-1
 1286 552 l 1,15,-1
 840 552 l 1,16,-1
 840 692 l 1,17,-1
 1431 692 l 1,18,-1
 1431 217 l 1,19,20
 1319 103 1319 103 1163 42 c 0,21,22
 1006 -20 1006 -20 818 -20 c 0,23,24
 601 -20 601 -20 442 70 c 128,-1,25
 283 160 283 160 196 325 c 128,-1,26
 109 490 109 490 109 711 c 0,27,28
 109 1052 109 1052 293 1241 c 0,29,30
 476 1430 476 1430 804 1430 c 0,31,32
 1118 1430 1118 1430 1278 1290 c 1,33,-1
 1278 1311 l 2,34,35
 1278 1448 1278 1448 1341 1528 c 0,36,37
 1405 1609 1405 1609 1519 1609 c 0,38,39
 1567 1609 1567 1609 1628 1594 c 1,40,-1
 1628 1453 l 1,41,42
 1574 1473 1574 1473 1540 1473 c 0,43,44
 1465 1473 1465 1473 1433 1437 c 128,-1,45
 1401 1401 1401 1401 1400 1322 c 2,46,-1
 1400 1110 l 1,47,-1
 1248 1065 l 1,0,1
EndSplineSet
EndChar

StartChar: uni0194
Encoding: 404 404 340
Width: 1269
GlyphClass: 2
Flags: W
LayerCount: 2
Fore
SplineSet
9 1409 m 1,0,-1
 174 1409 l 1,1,-1
 635 363 l 1,2,-1
 1093 1409 l 1,3,-1
 1260 1409 l 1,4,-1
 716 239 l 1,5,6
 758 162 758 162 787 101 c 128,-1,7
 816 40 816 40 833 -5 c 0,8,9
 864 -94 864 -94 863 -163 c 0,10,11
 863 -280 863 -280 802 -353 c 0,12,13
 741 -425 741 -425 636 -425 c 0,14,15
 532 -425 532 -425 471 -354 c 128,-1,16
 410 -283 410 -283 410 -163 c 0,17,18
 410 -93 410 -93 448 10 c 0,19,20
 465 55 465 55 490 112 c 0,21,22
 516 169 516 169 552 239 c 1,23,-1
 9 1409 l 1,0,-1
725 -177 m 0,24,25
 725 -113 725 -113 696 -21 c 128,-1,26
 667 71 667 71 636 142 c 1,27,28
 603 69 603 69 575 -23 c 0,29,30
 547 -114 547 -114 547 -177 c 0,31,32
 547 -232 547 -232 571 -264 c 0,33,34
 594 -296 594 -296 636 -295 c 0,35,36
 678 -295 678 -295 701 -264 c 0,37,38
 725 -233 725 -233 725 -177 c 0,24,25
EndSplineSet
EndChar

StartChar: uni0195
Encoding: 405 405 341
Width: 1770
GlyphClass: 2
Flags: W
LayerCount: 2
Fore
SplineSet
1237 -20 m 0,0,1
 1052 -20 1052 -20 948 75 c 0,2,3
 845 170 845 170 845 330 c 2,4,-1
 845 712 l 2,5,6
 845 868 845 868 785 928 c 0,7,8
 724 987 724 987 586 987 c 0,9,10
 451 987 451 987 369 899 c 0,11,12
 288 811 288 811 288 657 c 2,13,-1
 288 0 l 1,14,-1
 142 0 l 1,15,-1
 142 1484 l 1,16,-1
 288 1484 l 1,17,-1
 288 1104 l 2,18,19
 288 1063 288 1063 286 1016 c 128,-1,20
 284 969 284 969 282 937 c 128,-1,21
 280 905 280 905 280 907 c 1,22,-1
 283 907 l 1,23,24
 331 1003 331 1003 417 1053 c 0,25,26
 503 1102 503 1102 628 1102 c 0,27,28
 815 1102 815 1102 904 1013 c 128,-1,29
 993 924 993 924 994 733 c 2,30,-1
 994 376 l 2,31,32
 994 212 994 212 1051 152 c 128,-1,33
 1108 92 1108 92 1238 93 c 0,34,35
 1369 93 1369 93 1425 152 c 128,-1,36
 1481 211 1481 211 1481 376 c 2,37,-1
 1481 1082 l 1,38,-1
 1629 1082 l 1,39,-1
 1629 335 l 2,40,41
 1629 174 1629 174 1527 77 c 0,42,43
 1424 -20 1424 -20 1237 -20 c 0,0,1
EndSplineSet
EndChar

StartChar: uni0196
Encoding: 406 406 342
Width: 417
GlyphClass: 2
Flags: W
LayerCount: 2
Fore
SplineSet
199 0 m 1,0,1
 170 31 170 31 154 98 c 128,-1,2
 138 165 138 165 137 236 c 2,3,-1
 137 1484 l 1,4,-1
 283 1484 l 1,5,-1
 283 227 l 2,6,7
 283 162 283 162 305 100 c 128,-1,8
 327 38 327 38 363 0 c 1,9,-1
 199 0 l 1,0,1
EndSplineSet
EndChar

StartChar: uni0197
Encoding: 407 407 343
Width: 569
GlyphClass: 2
Flags: W
LayerCount: 2
Fore
SplineSet
213 0 m 1,0,-1
 213 696 l 1,1,-1
 37 696 l 1,2,-1
 37 808 l 1,3,-1
 213 808 l 1,4,-1
 213 1484 l 1,5,-1
 360 1484 l 1,6,-1
 360 808 l 1,7,-1
 540 808 l 1,8,-1
 540 696 l 1,9,-1
 360 696 l 1,10,-1
 360 0 l 1,11,-1
 213 0 l 1,0,-1
EndSplineSet
EndChar

StartChar: uni0198
Encoding: 408 408 344
Width: 1328
GlyphClass: 2
Flags: W
LayerCount: 2
Fore
SplineSet
335 549 m 1,0,-1
 335 0 l 1,1,-1
 178 0 l 1,2,-1
 178 1409 l 1,3,-1
 335 1409 l 1,4,-1
 335 681 l 1,5,-1
 850 1219 l 2,6,7
 888 1260 888 1260 935 1307 c 0,8,9
 983 1355 983 1355 1038 1389 c 128,-1,10
 1093 1423 1093 1423 1158 1423 c 0,11,12
 1182 1423 1182 1423 1208 1421 c 0,13,14
 1234 1418 1234 1418 1271 1410 c 1,15,-1
 1271 1263 l 1,16,17
 1246 1273 1246 1273 1217 1278 c 0,18,19
 1187 1283 1187 1283 1165 1283 c 0,20,21
 1101 1283 1101 1283 1054 1239 c 0,22,23
 1007 1196 1007 1196 932 1118 c 2,24,-1
 615 792 l 1,25,-1
 1304 0 l 1,26,-1
 1104 0 l 1,27,-1
 522 691 l 1,28,-1
 335 549 l 1,0,-1
EndSplineSet
EndChar

StartChar: uni0199
Encoding: 409 409 345
Width: 986
GlyphClass: 2
Flags: W
LayerCount: 2
Fore
SplineSet
810 0 m 1,0,-1
 419 495 l 1,1,-1
 283 378 l 1,2,-1
 283 0 l 1,3,-1
 136 0 l 1,4,-1
 136 1202 l 2,5,6
 136 1347 136 1347 209 1423 c 0,7,8
 281 1500 281 1500 416 1500 c 0,9,10
 473 1500 473 1500 532 1485 c 1,11,-1
 532 1332 l 1,12,13
 505 1342 505 1342 478 1347 c 0,14,15
 452 1352 452 1352 415 1352 c 0,16,17
 283 1352 283 1352 283 1202 c 2,18,-1
 283 532 l 1,19,-1
 787 1082 l 1,20,-1
 968 1082 l 1,21,-1
 510 603 l 1,22,-1
 989 0 l 1,23,-1
 810 0 l 1,0,-1
EndSplineSet
EndChar

StartChar: uni019A
Encoding: 410 410 346
Width: 417
GlyphClass: 2
Flags: W
LayerCount: 2
Fore
SplineSet
128 0 m 1,0,-1
 128 683 l 1,1,-1
 20 683 l 1,2,-1
 20 809 l 1,3,-1
 128 809 l 1,4,-1
 128 1484 l 1,5,-1
 275 1484 l 1,6,-1
 275 809 l 1,7,-1
 379 809 l 1,8,-1
 379 683 l 1,9,-1
 275 683 l 1,10,-1
 275 0 l 1,11,-1
 128 0 l 1,0,-1
EndSplineSet
EndChar

StartChar: uni019B
Encoding: 411 411 347
Width: 986
GlyphClass: 2
Flags: W
LayerCount: 2
Fore
SplineSet
202 1227 m 1,0,-1
 358 1279 l 1,1,-1
 288 1484 l 1,2,-1
 425 1484 l 1,3,-1
 485 1320 l 1,4,-1
 634 1370 l 1,5,-1
 670 1269 l 1,6,-1
 521 1218 l 1,7,-1
 966 0 l 1,8,-1
 810 0 l 1,9,-1
 530 781 l 1,10,-1
 164 0 l 1,11,-1
 13 0 l 1,12,-1
 476 937 l 1,13,-1
 390 1176 l 1,14,-1
 238 1127 l 1,15,-1
 202 1227 l 1,0,-1
EndSplineSet
EndChar

StartChar: uni019C
Encoding: 412 412 348
Width: 1755
GlyphClass: 2
Flags: W
LayerCount: 2
Fore
SplineSet
946 1409 m 1,0,-1
 946 449 l 2,1,2
 946 281 946 281 997 199 c 0,3,4
 1047 117 1047 117 1172 117 c 0,5,6
 1301 117 1301 117 1362 195 c 0,7,8
 1424 274 1424 274 1423 443 c 2,9,-1
 1423 1409 l 1,10,-1
 1576 1409 l 1,11,-1
 1576 0 l 1,12,-1
 1426 0 l 1,13,-1
 1425 112 l 1,14,-1
 1425 112 l 1,15,16
 1392 52 1392 52 1329 16 c 128,-1,17
 1266 -20 1266 -20 1179 -20 c 0,18,19
 986 -20 986 -20 890 136 c 1,20,21
 834 62 834 62 757 21 c 128,-1,22
 680 -20 680 -20 589 -20 c 0,23,24
 375 -20 375 -20 270 108 c 128,-1,25
 165 236 165 236 165 497 c 2,26,-1
 165 1409 l 1,27,-1
 318 1409 l 1,28,-1
 318 492 l 2,29,30
 318 299 318 299 370 208 c 0,31,32
 423 117 423 117 564 117 c 0,33,34
 687 117 687 117 740 192 c 0,35,36
 793 268 793 268 794 424 c 2,37,-1
 794 1409 l 1,38,-1
 946 1409 l 1,0,-1
EndSplineSet
EndChar

StartChar: uni019D
Encoding: 413 413 349
Width: 1479
GlyphClass: 2
Flags: W
LayerCount: 2
Fore
SplineSet
318 -156 m 2,0,1
 318 -282 318 -282 252 -353 c 0,2,3
 186 -425 186 -425 68 -425 c 0,4,5
 0 -425 0 -425 -39 -417 c 1,6,-1
 -39 -277 l 1,7,8
 -1 -291 -1 -291 63 -292 c 0,9,10
 119 -292 119 -292 148 -253 c 128,-1,11
 177 -214 177 -214 177 -134 c 2,12,-1
 178 1409 l 1,13,-1
 362 1409 l 1,14,-1
 1170 163 l 1,15,16
 1160 375 1160 375 1160 450 c 2,17,-1
 1160 1409 l 1,18,-1
 1302 1409 l 1,19,-1
 1302 0 l 1,20,-1
 1111 0 l 1,21,-1
 311 1238 l 1,22,23
 311 1176 311 1176 314 1109 c 0,24,25
 318 1042 318 1042 318 971 c 2,26,-1
 318 -156 l 2,0,1
EndSplineSet
EndChar

StartChar: uni019E
Encoding: 414 414 350
Width: 1102
GlyphClass: 2
Flags: W
LayerCount: 2
Fore
SplineSet
967 732 m 2,0,-1
 967 -427 l 1,1,-1
 819 -427 l 1,2,-1
 819 712 l 2,3,4
 819 863 819 863 775 925 c 128,-1,5
 731 987 731 987 586 986 c 0,6,7
 447 986 447 986 367 897 c 0,8,9
 288 808 288 808 288 643 c 2,10,-1
 288 0 l 1,11,-1
 142 0 l 1,12,-1
 142 855 l 2,13,14
 142 959 142 959 140 1015 c 0,15,16
 139 1072 139 1072 136 1082 c 1,17,-1
 274 1082 l 1,18,19
 275 1082 275 1082 275 1071 c 128,-1,20
 275 1060 275 1060 277 1022 c 0,21,22
 279 985 279 985 280 907 c 1,23,-1
 283 907 l 1,24,25
 347 1015 347 1015 427 1058 c 128,-1,26
 507 1101 507 1101 628 1102 c 0,27,28
 808 1102 808 1102 888 1019 c 0,29,30
 967 936 967 936 967 732 c 2,0,-1
EndSplineSet
EndChar

StartChar: Ohorn
Encoding: 416 416 352
Width: 1758
GlyphClass: 2
Flags: W
LayerCount: 2
Fore
SplineSet
1491 711 m 0,0,1
 1491 491 1491 491 1408 324 c 0,2,3
 1324 158 1324 158 1167 69 c 128,-1,4
 1010 -20 1010 -20 796 -20 c 128,-1,5
 582 -20 582 -20 426 71 c 128,-1,6
 270 162 270 162 186 326 c 128,-1,7
 102 490 102 490 101 711 c 0,8,9
 101 937 101 937 184 1097 c 128,-1,10
 267 1257 267 1257 423 1344 c 0,11,12
 579 1430 579 1430 798 1430 c 0,13,14
 1032 1430 1032 1430 1193 1330 c 128,-1,15
 1354 1230 1354 1230 1432 1049 c 1,16,17
 1529 1097 1529 1097 1565 1149 c 128,-1,18
 1601 1201 1601 1201 1601 1273 c 1,19,-1
 1525 1273 l 1,20,-1
 1525 1409 l 1,21,-1
 1697 1409 l 1,22,-1
 1697 1337 l 2,23,24
 1697 1226 1697 1226 1641 1138 c 0,25,26
 1584 1050 1584 1050 1458 984 c 1,27,28
 1475 920 1475 920 1483 851 c 0,29,30
 1491 783 1491 783 1491 711 c 0,0,1
1331 711 m 0,31,32
 1331 986 1331 986 1192 1142 c 0,33,34
 1053 1299 1053 1299 798 1299 c 0,35,36
 541 1299 541 1299 401 1145 c 128,-1,37
 261 991 261 991 261 711 c 0,38,39
 261 528 261 528 325 392 c 0,40,41
 388 257 388 257 508 183 c 128,-1,42
 628 109 628 109 796 110 c 0,43,44
 1055 110 1055 110 1193 267 c 128,-1,45
 1331 424 1331 424 1331 711 c 0,31,32
EndSplineSet
EndChar

StartChar: ohorn
Encoding: 417 417 353
Width: 1305
GlyphClass: 2
Flags: W
LayerCount: 2
Fore
SplineSet
1013 665 m 1,0,1
 1029 407 1029 407 977 258 c 0,2,3
 926 108 926 108 816 44 c 128,-1,4
 706 -20 706 -20 547 -20 c 0,5,6
 315 -20 315 -20 201 123 c 0,7,8
 88 266 88 266 88 542 c 0,9,10
 88 828 88 828 202 965 c 128,-1,11
 316 1102 316 1102 553 1102 c 0,12,13
 752 1102 752 1102 858 1013 c 0,14,15
 965 924 965 924 1000 740 c 1,16,17
 1129 808 1129 808 1129 954 c 1,18,-1
 1053 954 l 1,19,-1
 1053 1090 l 1,20,-1
 1226 1090 l 1,21,-1
 1226 1018 l 2,22,23
 1226 903 1226 903 1169 810 c 0,24,25
 1112 716 1112 716 1013 665 c 1,0,1
860 542 m 0,26,27
 860 776 860 776 792 883 c 0,28,29
 724 989 724 989 555 989 c 0,30,31
 387 989 387 989 315 881 c 0,32,33
 242 774 242 774 242 542 c 0,34,35
 242 317 242 317 314 205 c 128,-1,36
 386 93 386 93 545 94 c 0,37,38
 717 94 717 94 788 202 c 0,39,40
 860 310 860 310 860 542 c 0,26,27
EndSplineSet
EndChar

StartChar: uni01A2
Encoding: 418 418 354
Width: 1765
GlyphClass: 2
Flags: W
LayerCount: 2
Fore
SplineSet
1448 -424 m 1,0,-1
 1448 1234 l 1,1,-1
 1211 1237 l 1,2,-1
 1211 86 l 1,3,4
 1089 31 1089 31 1000 6 c 0,5,6
 911 -20 911 -20 790 -20 c 0,7,8
 580 -20 580 -20 425 69 c 128,-1,9
 270 158 270 158 186 323 c 0,10,11
 102 487 102 487 101 711 c 0,12,13
 101 928 101 928 184 1090 c 0,14,15
 267 1251 267 1251 421 1341 c 0,16,17
 575 1430 575 1430 791 1430 c 0,18,19
 941 1430 941 1430 1158 1363 c 1,20,-1
 1561 1422 l 1,21,-1
 1594 1422 l 1,22,-1
 1594 -424 l 1,23,-1
 1448 -424 l 1,0,-1
1064 1241 m 1,24,25
 952 1297 952 1297 789 1297 c 0,26,27
 541 1297 541 1297 401 1140 c 0,28,29
 261 982 261 982 261 711 c 0,30,31
 261 530 261 530 325 395 c 128,-1,32
 389 260 389 260 507 186 c 0,33,34
 624 112 624 112 784 111 c 0,35,36
 950 111 950 111 1064 168 c 1,37,-1
 1064 1241 l 1,24,25
EndSplineSet
EndChar

StartChar: uni01A3
Encoding: 419 419 355
Width: 1315
GlyphClass: 2
Flags: W
LayerCount: 2
Fore
SplineSet
1168 1090 m 1,0,-1
 1168 -425 l 1,1,-1
 1018 -425 l 1,2,-1
 1018 932 l 1,3,-1
 822 932 l 1,4,-1
 822 62 l 1,5,6
 767 24 767 24 696 2 c 0,7,8
 624 -20 624 -20 550 -20 c 0,9,10
 317 -20 317 -20 202 123 c 0,11,12
 88 266 88 266 88 542 c 0,13,14
 88 827 88 827 204 965 c 0,15,16
 320 1102 320 1102 556 1102 c 0,17,18
 634 1102 634 1102 706 1081 c 128,-1,19
 778 1060 778 1060 823 1033 c 1,20,-1
 1136 1090 l 1,21,-1
 1168 1090 l 1,0,-1
677 119 m 1,22,-1
 676 966 l 1,23,24
 616 989 616 989 558 989 c 0,25,26
 390 989 390 989 316 881 c 128,-1,27
 242 773 242 773 242 542 c 0,28,29
 242 317 242 317 314 205 c 0,30,31
 387 93 387 93 547 94 c 0,32,33
 619 94 619 94 677 119 c 1,22,-1
EndSplineSet
EndChar

StartChar: uni01A4
Encoding: 420 420 356
Width: 1526
GlyphClass: 2
Flags: W
LayerCount: 2
Fore
SplineSet
907 1409 m 2,0,1
 1139 1409 1139 1409 1267 1300 c 128,-1,2
 1395 1191 1395 1191 1395 992 c 0,3,4
 1395 861 1395 861 1337 765 c 128,-1,5
 1279 669 1279 669 1173 618 c 0,6,7
 1067 566 1067 566 919 566 c 2,8,-1
 484 566 l 1,9,-1
 484 0 l 1,10,-1
 327 0 l 1,11,-1
 327 1283 l 1,12,-1
 307 1283 l 2,13,14
 227 1283 227 1283 194 1247 c 128,-1,15
 161 1211 161 1211 161 1134 c 0,16,17
 161 1086 161 1086 175 1039 c 1,18,-1
 39 1022 l 1,19,20
 26 1088 26 1088 27 1135 c 0,21,22
 27 1266 27 1266 111 1337 c 0,23,24
 195 1409 195 1409 350 1409 c 2,25,-1
 907 1409 l 2,0,1
1237 991 m 0,26,27
 1237 1281 1237 1281 888 1281 c 2,28,-1
 484 1281 l 1,29,-1
 484 692 l 1,30,-1
 896 692 l 2,31,32
 1069 692 1069 692 1153 766 c 128,-1,33
 1237 840 1237 840 1237 991 c 0,26,27
EndSplineSet
EndChar

StartChar: uni01A5
Encoding: 421 421 357
Width: 1102
GlyphClass: 2
Flags: W
LayerCount: 2
Fore
SplineSet
1015 546 m 0,0,1
 1015 259 1015 259 919 120 c 0,2,3
 822 -20 822 -20 623 -20 c 0,4,5
 495 -20 495 -20 412 26 c 0,6,7
 328 72 328 72 284 167 c 1,8,-1
 280 167 l 1,9,10
 283 168 283 168 283 1 c 2,11,-1
 283 -425 l 1,12,-1
 136 -425 l 1,13,-1
 136 1202 l 2,14,15
 136 1350 136 1350 205 1424 c 0,16,17
 273 1499 273 1499 411 1500 c 0,18,19
 431 1500 431 1500 448 1498 c 0,20,21
 465 1497 465 1497 520 1484 c 1,22,-1
 520 1333 l 1,23,24
 489 1345 489 1345 463 1350 c 128,-1,25
 437 1355 437 1355 404 1355 c 0,26,27
 282 1355 282 1355 282 1203 c 2,28,-1
 282 910 l 1,29,-1
 286 910 l 1,30,31
 334 1010 334 1010 410 1055 c 0,32,33
 486 1101 486 1101 617 1101 c 0,34,35
 821 1101 821 1101 918 970 c 0,36,37
 1015 840 1015 840 1015 546 c 0,0,1
861 541 m 0,38,39
 861 782 861 782 798 880 c 0,40,41
 735 979 735 979 595 979 c 0,42,43
 430 979 430 979 357 875 c 128,-1,44
 284 771 284 771 284 525 c 0,45,46
 284 299 284 299 355 196 c 128,-1,47
 426 93 426 93 593 94 c 0,48,49
 734 94 734 94 797 194 c 0,50,51
 861 294 861 294 861 541 c 0,38,39
EndSplineSet
EndChar

StartChar: uni01A6
Encoding: 422 422 358
Width: 1366
GlyphClass: 2
Flags: W
LayerCount: 2
Fore
SplineSet
915 465 m 1,0,-1
 1350 -315 l 1,1,-1
 1162 -315 l 1,2,-1
 756 455 l 1,3,-1
 335 455 l 1,4,-1
 335 0 l 1,5,-1
 178 0 l 1,6,-1
 178 1409 l 1,7,-1
 330 1409 l 1,8,-1
 330 1262 l 1,9,-1
 783 1262 l 2,10,11
 1016 1262 1016 1262 1143 1156 c 128,-1,12
 1270 1050 1270 1050 1270 865 c 0,13,14
 1270 705 1270 705 1176 598 c 128,-1,15
 1082 491 1082 491 915 465 c 1,0,-1
1113 866 m 0,16,17
 1113 996 1113 996 1023 1065 c 128,-1,18
 933 1134 933 1134 768 1134 c 2,19,-1
 335 1134 l 1,20,-1
 335 580 l 1,21,-1
 776 580 l 2,22,23
 936 580 936 580 1024 655 c 0,24,25
 1113 730 1113 730 1113 866 c 0,16,17
EndSplineSet
EndChar

StartChar: uni01A7
Encoding: 423 423 359
Width: 1366
GlyphClass: 2
Flags: W
LayerCount: 2
Fore
SplineSet
104 374 m 0,0,1
 104 453 104 453 130 521 c 128,-1,2
 156 589 156 589 210 643 c 0,3,4
 264 696 264 696 360 737 c 0,5,6
 455 779 455 779 630 810 c 0,7,8
 788 839 788 839 869 871 c 0,9,10
 953 904 953 904 997 952 c 0,11,12
 1041 999 1041 999 1040 1066 c 0,13,14
 1040 1307 1040 1307 677 1307 c 0,15,16
 512 1307 512 1307 415 1243 c 128,-1,17
 318 1179 318 1179 285 1038 c 1,18,-1
 129 1069 l 1,19,20
 184 1261 184 1261 308 1346 c 0,21,22
 432 1430 432 1430 674 1430 c 0,23,24
 928 1430 928 1430 1060 1333 c 0,25,26
 1193 1236 1193 1236 1193 1059 c 0,27,28
 1193 982 1193 982 1166 923 c 128,-1,29
 1139 864 1139 864 1089 822 c 0,30,31
 1070 807 1070 807 1045 792 c 0,32,33
 1019 777 1019 777 985 762 c 0,34,35
 941 743 941 743 870 723 c 0,36,37
 799 702 799 702 699 682 c 0,38,39
 586 658 586 658 508 635 c 128,-1,40
 430 612 430 612 389 591 c 0,41,42
 322 551 322 551 291 498 c 0,43,44
 261 445 261 445 261 366 c 0,45,46
 261 105 261 105 656 105 c 0,47,48
 776 105 776 105 866 135 c 128,-1,49
 956 165 956 165 1018 243 c 128,-1,50
 1080 321 1080 321 1114 463 c 1,51,-1
 1266 430 l 1,52,53
 1211 193 1211 193 1063 86 c 0,54,55
 916 -20 916 -20 665 -20 c 0,56,57
 394 -20 394 -20 249 82 c 0,58,59
 104 183 104 183 104 374 c 0,0,1
EndSplineSet
EndChar

StartChar: uni01A8
Encoding: 424 424 360
Width: 986
GlyphClass: 2
Flags: W
LayerCount: 2
Fore
SplineSet
77 293 m 0,0,1
 77 356 77 356 97 405 c 0,2,3
 116 454 116 454 153 495 c 0,4,5
 205 543 205 543 316 578 c 0,6,7
 426 614 426 614 521 636 c 0,8,9
 641 665 641 665 694 707 c 0,10,11
 747 750 747 750 747 817 c 0,12,13
 747 896 747 896 693 937 c 0,14,15
 638 978 638 978 529 979 c 0,16,17
 415 979 415 979 344 932 c 0,18,19
 273 886 273 886 250 780 c 1,20,-1
 117 798 l 1,21,22
 149 952 149 952 249 1025 c 128,-1,23
 349 1098 349 1098 528 1098 c 0,24,25
 700 1098 700 1098 797 1022 c 0,26,27
 895 946 895 946 895 803 c 0,28,29
 895 727 895 727 865 676 c 128,-1,30
 835 625 835 625 770 585 c 0,31,32
 730 561 730 561 663 540 c 128,-1,33
 596 519 596 519 528 501 c 128,-1,34
 460 483 460 483 416 468 c 0,35,36
 307 434 307 434 266 393 c 0,37,38
 225 353 225 353 225 283 c 0,39,40
 225 193 225 193 288 147 c 128,-1,41
 351 101 351 101 475 101 c 0,42,43
 598 101 598 101 682 160 c 0,44,45
 767 219 767 219 799 331 c 1,46,-1
 929 302 l 1,47,48
 891 142 891 142 775 61 c 0,49,50
 660 -20 660 -20 476 -20 c 128,-1,51
 292 -20 292 -20 185 62 c 0,52,53
 77 143 77 143 77 293 c 0,0,1
EndSplineSet
EndChar

StartChar: uni01AA
Encoding: 426 426 362
Width: 792
GlyphClass: 2
Flags: W
LayerCount: 2
Fore
SplineSet
81 1307 m 0,0,1
 81 1396 81 1396 134 1445 c 128,-1,2
 187 1494 187 1494 277 1494 c 0,3,4
 400 1494 400 1494 460 1425 c 128,-1,5
 520 1356 520 1356 521 1236 c 2,6,-1
 521 -142 l 2,7,8
 521 -286 521 -286 637 -286 c 0,9,10
 667 -286 667 -286 689 -283 c 0,11,12
 712 -280 712 -280 740 -273 c 1,13,-1
 740 -413 l 1,14,15
 675 -425 675 -425 622 -425 c 0,16,17
 506 -425 506 -425 439 -350 c 128,-1,18
 372 -275 372 -275 373 -140 c 2,19,-1
 373 1162 l 1,20,21
 360 1151 360 1151 328 1141 c 0,22,23
 295 1131 295 1131 268 1131 c 0,24,25
 186 1131 186 1131 133 1181 c 0,26,27
 81 1231 81 1231 81 1307 c 0,0,1
144 1314 m 0,28,29
 144 1262 144 1262 175 1230 c 128,-1,30
 206 1198 206 1198 259 1198 c 128,-1,31
 312 1198 312 1198 344 1230 c 128,-1,32
 376 1262 376 1262 376 1314 c 0,33,34
 376 1365 376 1365 345 1397 c 128,-1,35
 314 1429 314 1429 259 1429 c 0,36,37
 207 1429 207 1429 175 1397 c 0,38,39
 144 1365 144 1365 144 1314 c 0,28,29
EndSplineSet
EndChar

StartChar: uni01AB
Encoding: 427 427 363
Width: 531
GlyphClass: 2
Flags: W
LayerCount: 2
Fore
SplineSet
520 -150 m 2,0,1
 520 -290 520 -290 461 -358 c 0,2,3
 402 -425 402 -425 285 -425 c 0,4,5
 223 -425 223 -425 161 -409 c 1,6,-1
 161 -263 l 1,7,8
 212 -282 212 -282 265 -282 c 0,9,10
 378 -282 378 -282 378 -146 c 2,11,-1
 378 -15 l 1,12,13
 248 -17 248 -17 201 43 c 128,-1,14
 154 103 154 103 154 221 c 2,15,-1
 154 970 l 1,16,-1
 33 970 l 1,17,-1
 33 1082 l 1,18,-1
 159 1082 l 1,19,-1
 200 1320 l 1,20,-1
 302 1320 l 1,21,-1
 302 1082 l 1,22,-1
 500 1082 l 1,23,-1
 500 970 l 1,24,-1
 302 970 l 1,25,-1
 302 248 l 2,26,27
 302 170 302 170 326 140 c 128,-1,28
 350 110 350 110 413 111 c 0,29,30
 448 111 448 111 520 125 c 1,31,-1
 520 -150 l 2,0,1
EndSplineSet
EndChar

StartChar: uni01AC
Encoding: 428 428 364
Width: 1251
GlyphClass: 2
Flags: W
LayerCount: 2
Fore
SplineSet
703 1277 m 1,0,-1
 703 0 l 1,1,-1
 547 0 l 1,2,-1
 547 1277 l 1,3,-1
 307 1277 l 2,4,5
 227 1277 227 1277 194 1245 c 128,-1,6
 161 1213 161 1213 161 1134 c 0,7,8
 161 1086 161 1086 175 1039 c 1,9,-1
 39 1022 l 1,10,11
 26 1088 26 1088 27 1135 c 0,12,13
 27 1272 27 1272 102 1340 c 0,14,15
 178 1409 178 1409 330 1409 c 2,16,-1
 1196 1409 l 1,17,-1
 1196 1277 l 1,18,-1
 703 1277 l 1,0,-1
EndSplineSet
EndChar

StartChar: uni01AD
Encoding: 429 429 365
Width: 531
GlyphClass: 2
Flags: W
LayerCount: 2
Fore
SplineSet
520 5 m 1,0,1
 437 -16 437 -16 356 -15 c 0,2,3
 253 -15 253 -15 204 44 c 0,4,5
 154 104 154 104 154 221 c 2,6,-1
 154 970 l 1,7,-1
 33 970 l 1,8,-1
 33 1082 l 1,9,-1
 164 1082 l 1,10,-1
 164 1188 l 2,11,12
 164 1345 164 1345 229 1422 c 0,13,14
 293 1499 293 1499 420 1500 c 0,15,16
 474 1500 474 1500 520 1487 c 1,17,-1
 520 1330 l 1,18,19
 489 1342 489 1342 467 1347 c 128,-1,20
 445 1352 445 1352 422 1352 c 0,21,22
 358 1352 358 1352 330 1315 c 128,-1,23
 302 1278 302 1278 302 1202 c 2,24,-1
 302 1082 l 1,25,-1
 500 1082 l 1,26,-1
 500 970 l 1,27,-1
 302 970 l 1,28,-1
 302 248 l 2,29,30
 302 170 302 170 326 140 c 128,-1,31
 350 110 350 110 413 111 c 0,32,33
 448 111 448 111 520 125 c 1,34,-1
 520 5 l 1,0,1
EndSplineSet
EndChar

StartChar: uni01AE
Encoding: 430 430 366
Width: 1251
GlyphClass: 2
Flags: W
LayerCount: 2
Fore
SplineSet
912 -409 m 1,0,1
 846 -425 846 -425 790 -425 c 0,2,3
 676 -425 676 -425 612 -358 c 128,-1,4
 548 -291 548 -291 547 -176 c 2,5,-1
 547 1277 l 1,6,-1
 54 1277 l 1,7,-1
 54 1409 l 1,8,-1
 1196 1409 l 1,9,-1
 1196 1277 l 1,10,-1
 703 1277 l 1,11,-1
 703 -131 l 2,12,13
 703 -213 703 -213 726 -251 c 128,-1,14
 749 -289 749 -289 797 -288 c 0,15,16
 870 -288 870 -288 912 -271 c 1,17,-1
 912 -409 l 1,0,1
EndSplineSet
EndChar

StartChar: Uhorn
Encoding: 431 431 367
Width: 1765
GlyphClass: 2
Flags: W
LayerCount: 2
Fore
SplineSet
736 -20 m 0,0,1
 571 -20 571 -20 443 44 c 128,-1,2
 315 108 315 108 242 227 c 0,3,4
 169 345 169 345 170 507 c 2,5,-1
 170 1409 l 1,6,-1
 326 1409 l 1,7,-1
 326 520 l 2,8,9
 326 319 326 319 431 215 c 0,10,11
 536 110 536 110 732 110 c 0,12,13
 933 110 933 110 1046 218 c 128,-1,14
 1159 326 1159 326 1160 534 c 2,15,-1
 1160 1409 l 1,16,-1
 1315 1409 l 1,17,-1
 1315 1042 l 1,18,19
 1441 1071 1441 1071 1498 1126 c 0,20,21
 1556 1182 1556 1182 1556 1273 c 1,22,-1
 1480 1273 l 1,23,-1
 1480 1409 l 1,24,-1
 1652 1409 l 1,25,-1
 1652 1337 l 2,26,27
 1652 1184 1652 1184 1568 1087 c 128,-1,28
 1484 990 1484 990 1315 966 c 1,29,-1
 1315 526 l 2,30,31
 1315 358 1315 358 1243 235 c 0,32,33
 1171 113 1171 113 1040 47 c 0,34,35
 910 -20 910 -20 736 -20 c 0,0,1
EndSplineSet
EndChar

StartChar: uhorn
Encoding: 432 432 368
Width: 1334
GlyphClass: 2
Flags: W
LayerCount: 2
Fore
SplineSet
819 175 m 1,0,1
 754 65 754 65 674 23 c 0,2,3
 594 -20 594 -20 474 -20 c 0,4,5
 294 -20 294 -20 214 63 c 0,6,7
 135 146 135 146 135 350 c 2,8,-1
 135 1082 l 1,9,-1
 283 1082 l 1,10,-1
 283 370 l 2,11,12
 283 228 283 228 327 162 c 128,-1,13
 371 96 371 96 516 96 c 0,14,15
 655 96 655 96 735 185 c 0,16,17
 814 274 814 274 814 439 c 2,18,-1
 814 1082 l 1,19,-1
 960 1082 l 1,20,-1
 960 703 l 1,21,22
 1077 746 1077 746 1115 797 c 128,-1,23
 1153 848 1153 848 1153 946 c 1,24,-1
 1078 946 l 1,25,-1
 1078 1082 l 1,26,-1
 1250 1082 l 1,27,-1
 1250 1010 l 2,28,29
 1250 863 1250 863 1185 771 c 128,-1,30
 1120 679 1120 679 960 625 c 1,31,-1
 960 227 l 2,32,33
 960 131 960 131 962 72 c 0,34,35
 963 13 963 13 966 0 c 1,36,-1
 828 0 l 1,37,38
 829 0 829 0 828 12 c 128,-1,39
 827 24 827 24 825 62 c 128,-1,40
 823 100 823 100 821 175 c 1,41,-1
 819 175 l 1,0,1
EndSplineSet
EndChar

StartChar: uni01B1
Encoding: 433 433 369
Width: 1494
GlyphClass: 2
Flags: W
LayerCount: 2
Fore
SplineSet
747 -21 m 0,0,1
 547 -21 547 -21 404 55 c 0,2,3
 262 131 262 131 185 272 c 0,4,5
 109 414 109 414 109 614 c 128,-1,6
 109 814 109 814 218 992 c 0,7,8
 326 1169 326 1169 531 1288 c 1,9,10
 450 1283 450 1283 396 1280 c 128,-1,11
 342 1277 342 1277 316 1277 c 2,12,-1
 81 1277 l 1,13,-1
 81 1409 l 1,14,-1
 650 1409 l 1,15,-1
 650 1213 l 1,16,17
 466 1113 466 1113 368 961 c 0,18,19
 271 809 271 809 271 617 c 0,20,21
 271 374 271 374 395 242 c 128,-1,22
 519 110 519 110 745 110 c 0,23,24
 974 110 974 110 1098 242 c 0,25,26
 1221 374 1221 374 1221 617 c 0,27,28
 1221 808 1221 808 1124 960 c 128,-1,29
 1027 1112 1027 1112 841 1213 c 1,30,-1
 841 1409 l 1,31,-1
 1412 1409 l 1,32,-1
 1412 1277 l 1,33,-1
 1176 1277 l 2,34,35
 1150 1277 1150 1277 1096 1280 c 128,-1,36
 1042 1283 1042 1283 961 1288 c 1,37,38
 1166 1172 1166 1172 1275 994 c 128,-1,39
 1384 816 1384 816 1384 614 c 0,40,41
 1384 414 1384 414 1308 272 c 128,-1,42
 1232 130 1232 130 1089 54 c 0,43,44
 947 -22 947 -22 747 -21 c 0,0,1
EndSplineSet
EndChar

StartChar: uni01B2
Encoding: 434 434 370
Width: 1479
GlyphClass: 2
Flags: W
LayerCount: 2
Fore
SplineSet
710 -20 m 0,0,1
 468 -20 468 -20 319 129 c 128,-1,2
 170 278 170 278 170 547 c 2,3,-1
 170 1409 l 1,4,-1
 326 1409 l 1,5,-1
 326 560 l 2,6,7
 326 348 326 348 433 229 c 0,8,9
 539 110 539 110 731 110 c 0,10,11
 864 110 864 110 958 205 c 128,-1,12
 1052 300 1052 300 1102 488 c 128,-1,13
 1152 676 1152 676 1152 953 c 0,14,15
 1152 1134 1152 1134 1115 1208 c 0,16,17
 1077 1282 1077 1282 987 1282 c 0,18,19
 921 1282 921 1282 880 1273 c 1,20,-1
 870 1409 l 1,21,22
 930 1418 930 1418 987 1419 c 0,23,24
 1145 1419 1145 1419 1226 1310 c 0,25,26
 1308 1201 1308 1201 1308 989 c 0,27,28
 1308 646 1308 646 1273 451 c 0,29,30
 1151 -20 1151 -20 710 -20 c 0,0,1
EndSplineSet
EndChar

StartChar: uni01B3
Encoding: 435 435 371
Width: 1583
GlyphClass: 2
Flags: W
LayerCount: 2
Fore
SplineSet
689 713 m 1,0,-1
 1061 1272 l 2,1,2
 1116 1353 1116 1353 1175 1386 c 0,3,4
 1234 1418 1234 1418 1311 1418 c 0,5,6
 1365 1418 1365 1418 1429 1399 c 128,-1,7
 1493 1380 1493 1380 1548 1333 c 1,8,-1
 1472 1213 l 1,9,10
 1449 1235 1449 1235 1397 1260 c 128,-1,11
 1345 1285 1345 1285 1306 1284 c 0,12,13
 1270 1284 1270 1284 1246 1272 c 0,14,15
 1222 1259 1222 1259 1188 1210 c 2,16,-1
 759 586 l 1,17,-1
 759 0 l 1,18,-1
 604 0 l 1,19,-1
 604 586 l 1,20,-1
 48 1409 l 1,21,-1
 231 1409 l 1,22,-1
 689 713 l 1,0,-1
EndSplineSet
EndChar

StartChar: uni01B4
Encoding: 436 436 372
Width: 986
GlyphClass: 2
Flags: W
LayerCount: 2
Fore
SplineSet
161 -425 m 0,0,1
 99 -425 99 -425 54 -415 c 1,2,-1
 54 -301 l 1,3,4
 86 -306 86 -306 134 -306 c 0,5,6
 217 -306 217 -306 289 -238 c 128,-1,7
 361 -170 361 -170 414 -38 c 2,8,-1
 431 3 l 1,9,-1
 1 1082 l 1,10,-1
 159 1082 l 1,11,-1
 406 454 l 2,12,13
 409 446 409 446 424 405 c 128,-1,14
 439 364 439 364 456 315 c 0,15,16
 474 265 474 265 488 226 c 128,-1,17
 502 187 502 187 503 181 c 1,18,-1
 566 334 l 1,19,-1
 893 1256 l 2,20,21
 934 1372 934 1372 994 1432 c 0,22,23
 1053 1492 1053 1492 1180 1492 c 0,24,25
 1312 1492 1312 1492 1415 1392 c 1,26,-1
 1337 1287 l 1,27,28
 1265 1358 1265 1358 1187 1357 c 0,29,30
 1136 1357 1136 1357 1097 1321 c 0,31,32
 1057 1285 1057 1285 1027 1210 c 2,33,-1
 572 19 l 2,34,35
 505 -147 505 -147 444 -244 c 0,36,37
 382 -341 382 -341 314 -383 c 128,-1,38
 246 -425 246 -425 161 -425 c 0,0,1
EndSplineSet
EndChar

StartChar: uni01B5
Encoding: 437 437 373
Width: 1251
GlyphClass: 2
Flags: W
LayerCount: 2
Fore
SplineSet
1185 131 m 1,0,-1
 1185 0 l 1,1,-1
 66 0 l 1,2,-1
 66 121 l 1,3,-1
 508 695 l 1,4,-1
 65 695 l 1,5,-1
 65 807 l 1,6,-1
 594 807 l 1,7,-1
 956 1278 l 1,8,-1
 138 1278 l 1,9,-1
 138 1409 l 1,10,-1
 1136 1409 l 1,11,-1
 1136 1292 l 1,12,-1
 765 807 l 1,13,-1
 1198 807 l 1,14,-1
 1198 695 l 1,15,-1
 679 695 l 1,16,-1
 247 131 l 1,17,-1
 1185 131 l 1,0,-1
EndSplineSet
EndChar

StartChar: uni01B6
Encoding: 438 438 374
Width: 1024
GlyphClass: 2
Flags: W
LayerCount: 2
Fore
SplineSet
944 117 m 1,0,-1
 944 0 l 1,1,-1
 43 0 l 1,2,-1
 43 117 l 1,3,-1
 350 493 l 1,4,-1
 41 493 l 1,5,-1
 41 612 l 1,6,-1
 452 612 l 1,7,-1
 744 964 l 1,8,-1
 82 964 l 1,9,-1
 82 1082 l 1,10,-1
 911 1082 l 1,11,-1
 911 966 l 1,12,-1
 619 612 l 1,13,-1
 957 612 l 1,14,-1
 957 493 l 1,15,-1
 519 493 l 1,16,-1
 208 117 l 1,17,-1
 944 117 l 1,0,-1
EndSplineSet
EndChar

StartChar: uni01B7
Encoding: 439 439 375
Width: 1251
GlyphClass: 2
Flags: W
LayerCount: 2
Fore
SplineSet
620 -423 m 0,0,1
 414 -423 414 -423 275 -343 c 128,-1,2
 136 -263 136 -263 51 -84 c 1,3,-1
 182 -22 l 1,4,5
 243 -160 243 -160 352 -231 c 128,-1,6
 461 -302 461 -302 613 -302 c 0,7,8
 805 -302 805 -302 916 -177 c 0,9,10
 1027 -53 1027 -53 1027 170 c 0,11,12
 1027 400 1027 400 888 524 c 0,13,14
 749 649 749 649 490 649 c 2,15,-1
 437 649 l 1,16,-1
 437 760 l 1,17,-1
 965 1278 l 1,18,-1
 122 1278 l 1,19,-1
 122 1409 l 1,20,-1
 1129 1409 l 1,21,-1
 1129 1263 l 1,22,-1
 614 765 l 1,23,24
 893 745 893 745 1037 594 c 128,-1,25
 1181 443 1181 443 1182 166 c 0,26,27
 1182 -3 1182 -3 1111 -138 c 0,28,29
 1039 -272 1039 -272 909 -348 c 0,30,31
 779 -423 779 -423 620 -423 c 0,0,1
EndSplineSet
EndChar

StartChar: uni01B8
Encoding: 440 440 376
Width: 1251
GlyphClass: 2
Flags: W
LayerCount: 2
Fore
SplineSet
631 -423 m 0,0,1
 462 -423 462 -423 337 -351 c 0,2,3
 211 -279 211 -279 140 -145 c 0,4,5
 70 -11 70 -11 69 172 c 0,6,7
 69 340 69 340 136 464 c 0,8,9
 202 588 202 588 329 665 c 128,-1,10
 456 742 456 742 637 765 c 1,11,-1
 122 1263 l 1,12,-1
 122 1409 l 1,13,-1
 1129 1409 l 1,14,-1
 1129 1278 l 1,15,-1
 286 1278 l 1,16,-1
 814 760 l 1,17,-1
 814 649 l 1,18,-1
 761 649 l 2,19,20
 503 649 503 649 364 525 c 0,21,22
 224 401 224 401 224 170 c 0,23,24
 224 25 224 25 278 -81 c 128,-1,25
 332 -187 332 -187 426 -244 c 128,-1,26
 520 -301 520 -301 638 -302 c 0,27,28
 790 -302 790 -302 899 -231 c 128,-1,29
 1008 -160 1008 -160 1069 -22 c 1,30,-1
 1200 -84 l 1,31,32
 1114 -262 1114 -262 975 -343 c 0,33,34
 835 -423 835 -423 631 -423 c 0,0,1
EndSplineSet
EndChar

StartChar: uni01B9
Encoding: 441 441 377
Width: 1128
GlyphClass: 2
Flags: W
LayerCount: 2
Fore
SplineSet
574 -301 m 0,0,1
 730 -301 730 -301 813 -237 c 0,2,3
 895 -173 895 -173 915 -35 c 1,4,-1
 1061 -46 l 1,5,6
 1038 -235 1038 -235 911 -330 c 128,-1,7
 784 -425 784 -425 567 -425 c 0,8,9
 418 -425 418 -425 316 -357 c 128,-1,10
 214 -289 214 -289 163 -175 c 0,11,12
 111 -61 111 -61 110 75 c 0,13,14
 110 266 110 266 218 394 c 0,15,16
 325 522 325 522 509 549 c 1,17,-1
 139 911 l 1,18,-1
 139 1083 l 1,19,-1
 1015 1083 l 1,20,-1
 1015 963 l 1,21,-1
 280 963 l 1,22,-1
 679 566 l 1,23,-1
 679 436 l 1,24,-1
 603 436 l 2,25,26
 456 436 456 436 356 338 c 128,-1,27
 256 240 256 240 257 89 c 0,28,29
 257 -3 257 -3 296 -93 c 0,30,31
 336 -182 336 -182 407 -242 c 0,32,33
 478 -301 478 -301 574 -301 c 0,0,1
EndSplineSet
EndChar

StartChar: uni01BA
Encoding: 442 442 378
Width: 1128
GlyphClass: 2
Flags: W
LayerCount: 2
Fore
SplineSet
1060 -102 m 1,0,1
 1018 -257 1018 -257 886 -340 c 0,2,3
 754 -424 754 -424 547 -423 c 0,4,5
 476 -423 476 -423 409 -416 c 0,6,7
 342 -408 342 -408 289 -389 c 0,8,9
 179 -351 179 -351 132 -282 c 0,10,11
 85 -212 85 -212 86 -123 c 0,12,13
 86 -47 86 -47 126 5 c 0,14,15
 154 40 154 40 192 69 c 0,16,17
 230 97 230 97 296 124 c 0,18,19
 362 150 362 150 469 178 c 0,20,21
 662 227 662 227 719 271 c 0,22,23
 778 313 778 313 778 377 c 0,24,25
 778 448 778 448 682 481 c 0,26,27
 587 514 587 514 434 518 c 2,28,-1
 402 519 l 1,29,-1
 402 657 l 1,30,-1
 776 963 l 1,31,-1
 121 963 l 1,32,-1
 121 1082 l 1,33,-1
 977 1082 l 1,34,-1
 977 978 l 1,35,-1
 565 647 l 1,36,37
 733 631 733 631 824 561 c 128,-1,38
 915 491 915 491 915 378 c 0,39,40
 915 296 915 296 877 243 c 0,41,42
 839 191 839 191 777 157 c 0,43,44
 718 125 718 125 548 82 c 0,45,46
 403 45 403 45 358 26 c 0,47,48
 300 1 300 1 270 -36 c 128,-1,49
 240 -73 240 -73 240 -131 c 0,50,51
 240 -210 240 -210 315 -253 c 0,52,53
 390 -297 390 -297 538 -297 c 0,54,55
 688 -297 688 -297 781 -245 c 128,-1,56
 874 -193 874 -193 914 -89 c 1,57,-1
 1060 -102 l 1,0,1
EndSplineSet
EndChar

StartChar: uni01BB
Encoding: 443 443 379
Width: 1139
GlyphClass: 2
Flags: W
LayerCount: 2
Fore
SplineSet
1029 127 m 1,0,-1
 1029 0 l 1,1,-1
 114 0 l 1,2,-1
 114 105 l 1,3,4
 153 197 153 197 204 269 c 0,5,6
 244 324 244 324 287 372 c 0,7,8
 330 421 330 421 396 480 c 128,-1,9
 462 539 462 539 572 628 c 1,10,-1
 91 628 l 1,11,-1
 91 745 l 1,12,-1
 712 745 l 1,13,14
 855 881 855 881 855 1043 c 0,15,16
 855 1167 855 1167 780 1237 c 128,-1,17
 705 1307 705 1307 574 1307 c 0,18,19
 451 1307 451 1307 368 1240 c 128,-1,20
 285 1173 285 1173 272 1055 c 1,21,-1
 120 1072 l 1,22,23
 139 1232 139 1232 263 1331 c 128,-1,24
 387 1430 387 1430 575 1430 c 0,25,26
 783 1430 783 1430 895 1331 c 128,-1,27
 1007 1232 1007 1232 1007 1047 c 0,28,29
 1007 900 1007 900 877 745 c 1,30,-1
 1028 745 l 1,31,-1
 1028 628 l 1,32,-1
 761 628 l 1,33,34
 737 605 737 605 683 560 c 0,35,36
 630 515 630 515 571 466 c 128,-1,37
 512 417 512 417 471 380 c 0,38,39
 405 322 405 322 351 260 c 128,-1,40
 297 198 297 198 267 127 c 1,41,-1
 1029 127 l 1,0,-1
EndSplineSet
EndChar

StartChar: uni01BC
Encoding: 444 444 380
Width: 1139
GlyphClass: 2
Flags: W
LayerCount: 2
Fore
SplineSet
160 1409 m 1,0,-1
 957 1409 l 1,1,-1
 957 1277 l 1,2,-1
 485 1277 l 1,3,-1
 485 952 l 1,4,-1
 577 952 l 2,5,6
 799 952 799 952 928 823 c 128,-1,7
 1057 694 1057 694 1057 477 c 0,8,9
 1057 245 1057 245 924 112 c 0,10,11
 791 -20 791 -20 564 -20 c 0,12,13
 379 -20 379 -20 257 76 c 128,-1,14
 135 172 135 172 98 339 c 1,15,-1
 243 362 l 1,16,17
 283 223 283 223 364 160 c 128,-1,18
 445 97 445 97 566 97 c 0,19,20
 723 97 723 97 813 195 c 0,21,22
 903 294 903 294 903 479 c 0,23,24
 903 651 903 651 808 737 c 128,-1,25
 713 823 713 823 542 824 c 2,26,-1
 332 824 l 1,27,-1
 332 1277 l 1,28,-1
 160 1277 l 1,29,-1
 160 1409 l 1,0,-1
EndSplineSet
EndChar

StartChar: uni01BD
Encoding: 445 445 381
Width: 912
GlyphClass: 2
Flags: W
LayerCount: 2
Fore
SplineSet
57 1082 m 1,0,-1
 813 1082 l 1,1,-1
 813 963 l 1,2,-1
 367 963 l 1,3,-1
 367 686 l 1,4,-1
 422 686 l 2,5,6
 616 686 616 686 726 594 c 128,-1,7
 836 502 836 502 836 346 c 0,8,9
 836 172 836 172 736 76 c 128,-1,10
 636 -20 636 -20 460 -20 c 0,11,12
 286 -20 286 -20 187 59 c 128,-1,13
 88 138 88 138 56 310 c 1,14,-1
 198 320 l 1,15,16
 209 224 209 224 278 159 c 128,-1,17
 347 94 347 94 440 94 c 0,18,19
 684 94 684 94 684 343 c 0,20,21
 684 450 684 450 604 507 c 0,22,23
 524 563 524 563 370 563 c 2,24,-1
 233 563 l 1,25,-1
 233 963 l 1,26,-1
 57 963 l 1,27,-1
 57 1082 l 1,0,-1
EndSplineSet
EndChar

StartChar: uni01BE
Encoding: 446 446 382
Width: 934
GlyphClass: 2
Flags: W
LayerCount: 2
Fore
SplineSet
167 970 m 1,0,-1
 38 970 l 1,1,-1
 38 1082 l 1,2,-1
 163 1082 l 1,3,-1
 134 1460 l 1,4,-1
 314 1563 l 1,5,-1
 314 1082 l 1,6,-1
 493 1082 l 1,7,-1
 493 970 l 1,8,-1
 314 970 l 1,9,-1
 314 854 l 2,10,11
 314 765 314 765 311 732 c 0,12,13
 327 690 327 690 365 664 c 0,14,15
 404 638 404 638 482 619 c 0,16,17
 580 594 580 594 630 577 c 128,-1,18
 680 560 680 560 707 544 c 0,19,20
 734 530 734 530 758 512 c 0,21,22
 805 475 805 475 832 423 c 0,23,24
 858 372 858 372 858 293 c 0,25,26
 858 143 858 143 767 62 c 0,27,28
 676 -20 676 -20 473 -20 c 0,29,30
 278 -20 278 -20 172 45 c 0,31,32
 65 110 65 110 34 249 c 1,33,-1
 164 278 l 1,34,35
 188 188 188 188 267 144 c 0,36,37
 346 101 346 101 473 101 c 0,38,39
 605 101 605 101 658 150 c 128,-1,40
 711 199 711 199 710 283 c 0,41,42
 710 376 710 376 656 414 c 0,43,44
 602 451 602 451 503 481 c 0,45,46
 461 496 461 496 393 517 c 128,-1,47
 325 538 325 538 278 570 c 0,48,49
 213 615 213 615 190 679 c 128,-1,50
 167 743 167 743 167 832 c 2,51,-1
 167 970 l 1,0,-1
EndSplineSet
EndChar

StartChar: uni01BF
Encoding: 447 447 383
Width: 1102
GlyphClass: 2
Flags: W
LayerCount: 2
Fore
SplineSet
1014 609 m 0,0,1
 1014 540 1014 540 997 475 c 128,-1,2
 980 410 980 410 949 349 c 0,3,4
 877 216 877 216 722 110 c 0,5,6
 568 4 568 4 283 -97 c 1,7,-1
 283 -426 l 1,8,-1
 136 -426 l 1,9,-1
 136 1082 l 1,10,-1
 272 1082 l 1,11,12
 277 1021 277 1021 280 977 c 0,13,14
 282 933 282 933 282 905 c 1,15,-1
 286 905 l 1,16,17
 328 1004 328 1004 411 1052 c 128,-1,18
 494 1100 494 1100 605 1100 c 0,19,20
 803 1100 803 1100 909 977 c 0,21,22
 1014 854 1014 854 1014 609 c 0,0,1
855 619 m 0,23,24
 855 979 855 979 587 979 c 0,25,26
 434 979 434 979 358 872 c 0,27,28
 283 764 283 764 283 528 c 2,29,-1
 283 27 l 1,30,31
 486 94 486 94 605 172 c 0,32,33
 855 347 855 347 855 619 c 0,23,24
EndSplineSet
EndChar

StartChar: uni01C0
Encoding: 448 448 384
Width: 518
GlyphClass: 2
Flags: W
LayerCount: 2
Fore
SplineSet
333 1484 m 1,0,-1
 333 0 l 1,1,-1
 186 0 l 1,2,-1
 186 1484 l 1,3,-1
 333 1484 l 1,0,-1
EndSplineSet
EndChar

StartChar: uni01C1
Encoding: 449 449 385
Width: 788
GlyphClass: 2
Flags: W
LayerCount: 2
Fore
SplineSet
321 1484 m 1,0,-1
 321 0 l 1,1,-1
 181 0 l 1,2,-1
 181 1484 l 1,3,-1
 321 1484 l 1,0,-1
608 1484 m 1,4,-1
 608 0 l 1,5,-1
 468 0 l 1,6,-1
 468 1484 l 1,7,-1
 608 1484 l 1,4,-1
EndSplineSet
EndChar

StartChar: uni01C2
Encoding: 450 450 386
Width: 1195
GlyphClass: 2
Flags: W
LayerCount: 2
Fore
SplineSet
672 422 m 1,0,-1
 672 0 l 1,1,-1
 521 0 l 1,2,-1
 521 422 l 1,3,-1
 125 422 l 1,4,-1
 125 556 l 1,5,-1
 521 556 l 1,6,-1
 521 878 l 1,7,-1
 125 878 l 1,8,-1
 125 1013 l 1,9,-1
 521 1013 l 1,10,-1
 521 1484 l 1,11,-1
 672 1484 l 1,12,-1
 672 1013 l 1,13,-1
 1071 1013 l 1,14,-1
 1071 878 l 1,15,-1
 672 878 l 1,16,-1
 672 556 l 1,17,-1
 1071 556 l 1,18,-1
 1071 422 l 1,19,-1
 672 422 l 1,0,-1
EndSplineSet
EndChar

StartChar: uni01DD
Encoding: 477 477 413
Width: 1139
GlyphClass: 2
Flags: W
LayerCount: 2
Fore
SplineSet
886 574 m 1,0,1
 886 769 886 769 803 877 c 128,-1,2
 720 985 720 985 558 984 c 0,3,4
 427 984 427 984 349 933 c 0,5,6
 271 881 271 881 244 806 c 1,7,-1
 121 859 l 1,8,9
 212 1102 212 1102 554 1102 c 0,10,11
 793 1102 793 1102 916 959 c 0,12,13
 1040 816 1040 816 1040 533 c 0,14,15
 1040 265 1040 265 917 123 c 0,16,17
 794 -20 794 -20 564 -20 c 0,18,19
 324 -20 324 -20 206 121 c 128,-1,20
 88 262 88 262 88 544 c 2,21,-1
 88 574 l 1,22,-1
 886 574 l 1,0,1
246 448 m 1,23,24
 263 264 263 264 341 181 c 128,-1,25
 419 98 419 98 567 98 c 0,26,27
 709 98 709 98 793 192 c 128,-1,28
 877 286 877 286 884 448 c 1,29,-1
 246 448 l 1,23,24
EndSplineSet
EndChar

StartChar: uni01E4
Encoding: 484 484 420
Width: 1593
GlyphClass: 2
Flags: W
LayerCount: 2
Fore
SplineSet
1431 217 m 1,0,1
 1319 103 1319 103 1163 42 c 0,2,3
 1006 -20 1006 -20 818 -20 c 0,4,5
 601 -20 601 -20 442 70 c 128,-1,6
 283 160 283 160 196 325 c 128,-1,7
 109 490 109 490 109 711 c 0,8,9
 109 1052 109 1052 293 1241 c 0,10,11
 476 1430 476 1430 804 1430 c 0,12,13
 1033 1430 1033 1430 1175 1355 c 128,-1,14
 1317 1280 1317 1280 1400 1110 c 1,15,-1
 1248 1065 l 1,16,17
 1183 1189 1183 1189 1073 1244 c 0,18,19
 964 1299 964 1299 797 1299 c 0,20,21
 541 1299 541 1299 405 1144 c 128,-1,22
 269 989 269 989 269 711 c 0,23,24
 269 435 269 435 415 272 c 0,25,26
 560 110 560 110 815 110 c 0,27,28
 957 110 957 110 1081 155 c 128,-1,29
 1205 200 1205 200 1283 278 c 1,30,-1
 1283 300 l 1,31,-1
 840 300 l 1,32,-1
 840 424 l 1,33,-1
 1286 424 l 1,34,-1
 1286 525 l 1,35,-1
 840 525 l 1,36,-1
 840 665 l 1,37,-1
 1431 665 l 1,38,-1
 1431 424 l 1,39,-1
 1563 424 l 1,40,-1
 1563 300 l 1,41,-1
 1431 300 l 1,42,-1
 1431 217 l 1,0,1
EndSplineSet
EndChar

StartChar: uni01E5
Encoding: 485 485 421
Width: 1102
GlyphClass: 2
Flags: W
LayerCount: 2
Fore
SplineSet
532 -422 m 0,0,1
 356 -422 356 -422 255 -351 c 128,-1,2
 154 -280 154 -280 128 -149 c 1,3,-1
 275 -126 l 1,4,5
 308 -300 308 -300 536 -301 c 0,6,7
 751 -301 751 -301 800 -113 c 1,8,-1
 396 -113 l 1,9,-1
 396 29 l 1,10,-1
 819 29 l 1,11,-1
 819 321 l 1,12,-1
 817 321 l 1,13,14
 770 209 770 209 678 151 c 0,15,16
 586 92 586 92 463 92 c 0,17,18
 266 92 266 92 177 207 c 0,19,20
 87 322 87 322 87 588 c 0,21,22
 87 855 87 855 186 976 c 128,-1,23
 285 1097 285 1097 489 1098 c 0,24,25
 603 1098 603 1098 688 1044 c 128,-1,26
 773 990 773 990 820 893 c 1,27,-1
 821 893 l 1,28,29
 821 912 821 912 823 957 c 128,-1,30
 825 1002 825 1002 828 1041 c 0,31,32
 831 1081 831 1081 832 1082 c 1,33,-1
 972 1082 l 1,34,35
 966 1046 966 1046 966 867 c 2,36,-1
 966 29 l 1,37,-1
 1102 29 l 1,38,-1
 1102 -113 l 1,39,-1
 952 -113 l 1,40,41
 922 -266 922 -266 821 -344 c 128,-1,42
 720 -422 720 -422 532 -422 c 0,0,1
819 588 m 0,43,44
 819 772 819 772 732 877 c 0,45,46
 645 983 645 983 514 983 c 0,47,48
 367 983 367 983 302 891 c 128,-1,49
 237 799 237 799 237 590 c 0,50,51
 237 379 237 379 298 292 c 128,-1,52
 359 205 359 205 511 204 c 0,53,54
 647 204 647 204 733 308 c 128,-1,55
 819 412 819 412 819 588 c 0,43,44
EndSplineSet
EndChar

StartChar: uni01F6
Encoding: 502 502 438
Width: 2118
GlyphClass: 2
Flags: W
LayerCount: 2
Fore
SplineSet
1302 376 m 2,0,1
 1302 224 1302 224 1365 158 c 128,-1,2
 1428 92 1428 92 1567 93 c 0,3,4
 1706 93 1706 93 1768 157 c 128,-1,5
 1830 221 1830 221 1830 376 c 2,6,-1
 1830 1082 l 1,7,-1
 1978 1082 l 1,8,-1
 1978 335 l 2,9,10
 1978 178 1978 178 1867 79 c 0,11,12
 1755 -20 1755 -20 1566 -20 c 0,13,14
 1376 -20 1376 -20 1261 78 c 128,-1,15
 1146 176 1146 176 1146 331 c 2,16,-1
 1146 669 l 1,17,-1
 335 669 l 1,18,-1
 335 0 l 1,19,-1
 178 0 l 1,20,-1
 178 1409 l 1,21,-1
 335 1409 l 1,22,-1
 335 801 l 1,23,-1
 1146 801 l 1,24,-1
 1146 1409 l 1,25,-1
 1302 1409 l 1,26,-1
 1302 376 l 2,0,1
EndSplineSet
EndChar

StartChar: uni01F7
Encoding: 503 503 439
Width: 1234
GlyphClass: 2
Flags: W
LayerCount: 2
Fore
SplineSet
1153 943 m 0,0,1
 1153 755 1153 755 1049 532 c 0,2,3
 971 367 971 367 854 227 c 0,4,5
 738 87 738 87 604 -11 c 128,-1,6
 470 -109 470 -109 336 -149 c 1,7,-1
 336 -425 l 1,8,-1
 178 -425 l 1,9,-1
 178 1409 l 1,10,-1
 333 1409 l 1,11,-1
 333 1246 l 1,12,13
 392 1329 392 1329 490 1380 c 0,14,15
 587 1430 587 1430 693 1430 c 0,16,17
 846 1430 846 1430 948 1379 c 128,-1,18
 1050 1328 1050 1328 1101 1221 c 0,19,20
 1153 1114 1153 1114 1153 943 c 0,0,1
993 955 m 0,21,22
 993 1120 993 1120 915 1210 c 0,23,24
 838 1300 838 1300 689 1300 c 0,25,26
 592 1300 592 1300 511 1245 c 0,27,28
 431 1190 431 1190 384 1100 c 128,-1,29
 337 1010 337 1010 336 908 c 2,30,-1
 336 -17 l 1,31,32
 496 32 496 32 650 194 c 0,33,34
 753 301 753 301 830 431 c 0,35,36
 907 562 907 562 950 699 c 0,37,38
 993 835 993 835 993 955 c 0,21,22
EndSplineSet
EndChar

StartChar: Aringacute
Encoding: 506 506 442
Width: 1328
GlyphClass: 2
Flags: W
LayerCount: 2
Fore
SplineSet
662 1599 m 1,0,-1
 566 1600 l 1,1,-1
 566 1611 l 1,2,-1
 772 1768 l 1,3,-1
 962 1768 l 1,4,-1
 962 1751 l 1,5,-1
 662 1599 l 1,0,-1
904 1344 m 128,-1,7
 904 1287 904 1287 870 1237 c 128,-1,8
 836 1187 836 1187 786 1161 c 1,9,-1
 1341 0 l 1,10,-1
 1178 0 l 1,11,-1
 1005 375 l 1,12,-1
 329 375 l 1,13,-1
 154 0 l 1,14,-1
 -12 0 l 1,15,-1
 553 1157 l 1,16,17
 498 1183 498 1183 463 1234 c 128,-1,18
 428 1285 428 1285 428 1344 c 0,19,20
 428 1401 428 1401 460 1448 c 0,21,22
 493 1495 493 1495 547 1522 c 128,-1,23
 601 1549 601 1549 666 1549 c 0,24,25
 732 1549 732 1549 785 1521 c 0,26,27
 839 1493 839 1493 871 1447 c 0,28,6
 904 1401 904 1401 904 1344 c 128,-1,7
802 1344 m 0,29,30
 802 1394 802 1394 762 1429 c 128,-1,31
 722 1464 722 1464 666 1464 c 0,32,33
 607 1464 607 1464 567 1428 c 0,34,35
 527 1393 527 1393 528 1344 c 0,36,37
 528 1300 528 1300 566 1261 c 128,-1,38
 604 1222 604 1222 661 1221 c 0,39,40
 726 1221 726 1221 764 1259 c 128,-1,41
 802 1297 802 1297 802 1344 c 0,29,30
667 1120 m 1,42,43
 652 1073 652 1073 626 1008 c 0,44,45
 600 942 600 942 584 907 c 2,46,-1
 384 480 l 1,47,-1
 951 480 l 1,48,-1
 751 910 l 2,49,50
 738 936 738 936 712 1002 c 128,-1,51
 686 1068 686 1068 667 1120 c 1,42,43
EndSplineSet
EndChar

StartChar: uni021C
Encoding: 540 540 476
Width: 1094
GlyphClass: 2
Flags: W
LayerCount: 2
Fore
SplineSet
145 -427 m 1,0,-1
 145 -279 l 1,1,2
 517 -179 517 -179 695 -32 c 128,-1,3
 873 115 873 115 873 322 c 0,4,5
 873 425 873 425 831 512 c 128,-1,6
 789 599 789 599 720 647 c 1,7,8
 644 608 644 608 563 576 c 128,-1,9
 482 544 482 544 379 514 c 1,10,-1
 379 653 l 1,11,12
 619 719 619 719 728 810 c 128,-1,13
 837 901 837 901 838 1023 c 0,14,15
 838 1148 838 1148 764 1220 c 0,16,17
 691 1292 691 1292 547 1292 c 0,18,19
 427 1292 427 1292 350 1251 c 128,-1,20
 273 1210 273 1210 209 1093 c 1,21,-1
 72 1151 l 1,22,23
 152 1300 152 1300 271 1366 c 0,24,25
 389 1432 389 1432 555 1431 c 0,26,27
 686 1431 686 1431 783 1376 c 0,28,29
 879 1321 879 1321 932 1230 c 128,-1,30
 985 1139 985 1139 984 1030 c 0,31,32
 984 940 984 940 947 862 c 0,33,34
 909 785 909 785 840 722 c 1,35,36
 936 649 936 649 982 545 c 0,37,38
 1028 442 1028 442 1028 336 c 0,39,40
 1028 197 1028 197 974 87 c 0,41,42
 919 -23 919 -23 832 -103 c 0,43,44
 774 -158 774 -158 693 -209 c 128,-1,45
 612 -260 612 -260 481 -313 c 0,46,47
 352 -366 352 -366 145 -427 c 1,0,-1
EndSplineSet
EndChar

StartChar: uni021D
Encoding: 541 541 477
Width: 837
GlyphClass: 2
Flags: W
LayerCount: 2
Fore
SplineSet
257 468 m 1,0,1
 415 522 415 522 474 557 c 0,2,3
 537 593 537 593 576 643 c 0,4,5
 615 694 615 694 615 769 c 0,6,7
 615 884 615 884 567 935 c 128,-1,8
 519 986 519 986 413 986 c 0,9,10
 318 986 318 986 264 944 c 128,-1,11
 210 902 210 902 179 807 c 1,12,-1
 32 833 l 1,13,14
 77 971 77 971 163 1037 c 0,15,16
 249 1102 249 1102 407 1102 c 0,17,18
 593 1102 593 1102 678 1020 c 128,-1,19
 763 938 763 938 763 772 c 0,20,21
 762 690 762 690 724 627 c 0,22,23
 686 563 686 563 611 503 c 1,24,25
 680 434 680 434 722 338 c 0,26,27
 763 243 763 243 763 155 c 0,28,29
 763 26 763 26 694 -80 c 0,30,31
 626 -186 626 -186 482 -269 c 0,32,33
 339 -352 339 -352 82 -424 c 1,34,-1
 82 -290 l 1,35,36
 210 -253 210 -253 290 -222 c 0,37,38
 370 -192 370 -192 458 -138 c 0,39,40
 526 -93 526 -93 572 -22 c 0,41,42
 618 50 618 50 618 144 c 0,43,44
 618 229 618 229 590 301 c 128,-1,45
 562 373 562 373 504 439 c 1,46,47
 445 409 445 409 384 385 c 0,48,49
 323 360 323 360 257 337 c 1,50,-1
 257 468 l 1,0,1
EndSplineSet
EndChar

StartChar: uni0220
Encoding: 544 544 480
Width: 1448
GlyphClass: 2
Flags: W
LayerCount: 2
Fore
SplineSet
1278 943 m 2,0,-1
 1278 -425 l 1,1,-1
 1121 -425 l 1,2,-1
 1121 976 l 2,3,4
 1121 1097 1121 1097 1089 1168 c 0,5,6
 1057 1242 1057 1242 988 1274 c 0,7,8
 919 1307 919 1307 790 1307 c 0,9,10
 671 1307 671 1307 543 1252 c 0,11,12
 415 1198 415 1198 327 1110 c 1,13,-1
 327 0 l 1,14,-1
 172 0 l 1,15,-1
 172 1409 l 1,16,-1
 331 1409 l 1,17,-1
 331 1251 l 1,18,19
 405 1333 405 1333 544 1381 c 0,20,21
 684 1429 684 1429 846 1429 c 0,22,23
 1074 1429 1074 1429 1176 1313 c 0,24,25
 1278 1198 1278 1198 1278 943 c 2,0,-1
EndSplineSet
EndChar

StartChar: uni0221
Encoding: 545 545 481
Width: 1290
GlyphClass: 2
Flags: W
LayerCount: 2
Fore
SplineSet
967 48 m 1,0,1
 1017 52 1017 52 1049 52 c 0,2,3
 1164 52 1164 52 1226 -10 c 128,-1,4
 1288 -72 1288 -72 1288 -184 c 0,5,6
 1288 -303 1288 -303 1217 -364 c 128,-1,7
 1146 -425 1146 -425 1055 -425 c 0,8,9
 966 -425 966 -425 909 -372 c 128,-1,10
 852 -319 852 -319 830 -220 c 1,11,-1
 658 -428 l 1,12,-1
 568 -323 l 1,13,14
 642 -221 642 -221 706 -144 c 0,15,16
 771 -68 771 -68 821 -27 c 1,17,18
 820 11 820 11 822 42 c 128,-1,19
 824 73 824 73 824 102 c 2,20,-1
 824 173 l 1,21,-1
 820 173 l 1,22,23
 769 67 769 67 687 24 c 0,24,25
 606 -20 606 -20 486 -20 c 0,26,27
 276 -20 276 -20 181 115 c 0,28,29
 87 250 87 250 87 535 c 0,30,31
 87 823 87 823 183 962 c 0,32,33
 280 1102 280 1102 479 1102 c 0,34,35
 605 1102 605 1102 686 1058 c 0,36,37
 768 1014 768 1014 819 915 c 1,38,-1
 821 915 l 1,39,-1
 819 1017 l 1,40,-1
 819 1484 l 1,41,-1
 966 1484 l 1,42,-1
 967 48 l 1,0,1
241 543 m 0,43,44
 241 302 241 302 303 201 c 0,45,46
 364 101 364 101 508 102 c 0,47,48
 675 102 675 102 746 210 c 0,49,50
 818 319 818 319 818 556 c 0,51,52
 818 784 818 784 745 886 c 0,53,54
 673 988 673 988 510 988 c 0,55,56
 366 988 366 988 304 885 c 0,57,58
 241 782 241 782 241 543 c 0,43,44
1160 -188 m 0,59,60
 1160 -141 1160 -141 1134 -107 c 128,-1,61
 1108 -73 1108 -73 1052 -73 c 0,62,63
 1021 -73 1021 -73 999 -84 c 128,-1,64
 977 -95 977 -95 947 -107 c 1,65,66
 941 -197 941 -197 968 -247 c 0,67,68
 995 -298 995 -298 1052 -298 c 0,69,70
 1100 -298 1100 -298 1130 -270 c 0,71,72
 1160 -241 1160 -241 1160 -188 c 0,59,60
EndSplineSet
EndChar

StartChar: uni0222
Encoding: 546 546 482
Width: 1220
GlyphClass: 2
Flags: W
LayerCount: 2
Fore
SplineSet
616 1430 m 1,0,1
 835 1423 835 1423 960 1325 c 0,2,3
 1086 1226 1086 1226 1086 1070 c 0,4,5
 1086 943 1086 943 1011 851 c 128,-1,6
 936 759 936 759 807 742 c 1,7,-1
 807 738 l 1,8,9
 955 718 955 718 1040 624 c 128,-1,10
 1125 530 1125 530 1125 389 c 0,11,12
 1125 198 1125 198 987 89 c 128,-1,13
 849 -20 849 -20 609 -20 c 0,14,15
 360 -20 360 -20 226 87 c 128,-1,16
 92 194 92 194 92 387 c 0,17,18
 92 527 92 527 182 623 c 128,-1,19
 272 719 272 719 405 736 c 1,20,-1
 405 740 l 1,21,22
 262 777 262 777 196 835 c 0,23,24
 129 893 129 893 129 988 c 0,25,26
 129 1121 129 1121 242 1193 c 128,-1,27
 355 1265 355 1265 577 1271 c 1,28,-1
 577 1163 l 1,29,30
 274 1154 274 1154 275 984 c 0,31,32
 275 894 275 894 366 846 c 128,-1,33
 457 798 457 798 607 798 c 0,34,35
 764 798 764 798 850 867 c 128,-1,36
 936 936 936 936 937 1061 c 0,37,38
 937 1171 937 1171 854 1241 c 128,-1,39
 771 1311 771 1311 616 1317 c 1,40,-1
 616 1430 l 1,0,1
976 404 m 0,41,42
 976 533 976 533 876 607 c 0,43,44
 776 682 776 682 605 682 c 0,45,46
 438 682 438 682 339 600 c 128,-1,47
 240 518 240 518 240 381 c 0,48,49
 240 250 240 250 337 176 c 0,50,51
 434 101 434 101 611 101 c 0,52,53
 792 101 792 101 884 178 c 128,-1,54
 976 255 976 255 976 404 c 0,41,42
EndSplineSet
EndChar

StartChar: uni0223
Encoding: 547 547 483
Width: 1113
GlyphClass: 2
Flags: W
LayerCount: 2
Fore
SplineSet
559 -20 m 0,0,1
 339 -20 339 -20 219 96 c 128,-1,2
 99 212 99 212 99 428 c 0,3,4
 99 573 99 573 177 674 c 128,-1,5
 255 775 255 775 384 809 c 1,6,-1
 384 813 l 1,7,8
 274 839 274 839 209 926 c 0,9,10
 144 1014 144 1014 144 1147 c 0,11,12
 144 1253 144 1253 201 1337 c 128,-1,13
 258 1421 258 1421 394 1490 c 1,14,-1
 456 1390 l 1,15,16
 381 1362 381 1362 336 1295 c 0,17,18
 290 1228 290 1228 291 1144 c 0,19,20
 291 1018 291 1018 361 947 c 128,-1,21
 431 876 431 876 560 876 c 128,-1,22
 689 876 689 876 761 948 c 128,-1,23
 833 1020 833 1020 833 1144 c 0,24,25
 833 1228 833 1228 787 1295 c 128,-1,26
 741 1362 741 1362 667 1390 c 1,27,-1
 729 1490 l 1,28,29
 865 1421 865 1421 922 1337 c 128,-1,30
 979 1253 979 1253 979 1147 c 0,31,32
 979 1015 979 1015 915 928 c 0,33,34
 850 840 850 840 739 813 c 1,35,-1
 739 809 l 1,36,37
 868 777 868 777 947 674 c 0,38,39
 1025 571 1025 571 1025 428 c 0,40,41
 1025 211 1025 211 903 96 c 0,42,43
 782 -20 782 -20 559 -20 c 0,0,1
563 102 m 0,44,45
 881 102 881 102 880 440 c 0,46,47
 880 574 880 574 793 671 c 0,48,49
 706 767 706 767 561 767 c 0,50,51
 419 767 419 767 331 675 c 128,-1,52
 243 583 243 583 243 440 c 0,53,54
 244 102 244 102 563 102 c 0,44,45
EndSplineSet
EndChar

StartChar: uni0224
Encoding: 548 548 484
Width: 1251
GlyphClass: 2
Flags: W
LayerCount: 2
Fore
SplineSet
1194 -119 m 0,0,1
 1194 -184 1194 -184 1186 -248 c 1,2,-1
 1054 -213 l 1,3,4
 1068 -165 1068 -165 1068 -141 c 0,5,6
 1068 -65 1068 -65 1032 -32 c 0,7,8
 996 0 996 0 915 0 c 2,9,-1
 66 0 l 1,10,-1
 66 121 l 1,11,-1
 956 1278 l 1,12,-1
 138 1278 l 1,13,-1
 138 1409 l 1,14,-1
 1136 1409 l 1,15,-1
 1136 1292 l 1,16,-1
 247 131 l 1,17,-1
 931 131 l 2,18,19
 1056 131 1056 131 1125 68 c 128,-1,20
 1194 5 1194 5 1194 -119 c 0,0,1
EndSplineSet
EndChar

StartChar: uni0225
Encoding: 549 549 485
Width: 1024
GlyphClass: 2
Flags: W
LayerCount: 2
Fore
SplineSet
43 0 m 1,0,-1
 43 117 l 1,1,-1
 744 964 l 1,2,-1
 82 964 l 1,3,-1
 82 1082 l 1,4,-1
 911 1082 l 1,5,-1
 911 966 l 1,6,-1
 208 118 l 1,7,-1
 711 118 l 2,8,9
 851 118 851 118 913 64 c 128,-1,10
 975 10 975 10 974 -102 c 0,11,12
 974 -166 974 -166 961 -234 c 1,13,-1
 827 -200 l 1,14,15
 843 -159 843 -159 844 -127 c 0,16,17
 844 0 844 0 691 0 c 2,18,-1
 43 0 l 1,0,-1
EndSplineSet
EndChar

StartChar: uni0234
Encoding: 564 564 500
Width: 613
GlyphClass: 2
Flags: W
LayerCount: 2
Fore
SplineSet
283 1484 m 1,0,-1
 283 47 l 1,1,2
 335 52 335 52 366 52 c 0,3,4
 481 52 481 52 543 -10 c 128,-1,5
 605 -72 605 -72 605 -184 c 0,6,7
 605 -303 605 -303 535 -364 c 0,8,9
 464 -425 464 -425 372 -425 c 0,10,11
 283 -425 283 -425 223 -376 c 0,12,13
 162 -327 162 -327 148 -220 c 1,14,15
 105 -271 105 -271 62 -324 c 128,-1,16
 19 -377 19 -377 -24 -428 c 1,17,-1
 -115 -323 l 1,18,19
 -38 -216 -38 -216 24 -141 c 0,20,21
 86 -67 86 -67 131 -31 c 1,22,23
 136 20 136 20 136 47 c 2,24,-1
 136 1484 l 1,25,-1
 283 1484 l 1,0,-1
477 -188 m 0,26,27
 477 -141 477 -141 452 -107 c 0,28,29
 426 -73 426 -73 369 -73 c 0,30,31
 338 -73 338 -73 317 -84 c 0,32,33
 295 -95 295 -95 264 -107 c 1,34,35
 258 -197 258 -197 286 -247 c 0,36,37
 313 -298 313 -298 370 -298 c 0,38,39
 418 -298 418 -298 448 -270 c 0,40,41
 477 -241 477 -241 477 -188 c 0,26,27
EndSplineSet
EndChar

StartChar: uni0235
Encoding: 565 565 501
Width: 1301
GlyphClass: 2
Flags: W
LayerCount: 2
Fore
SplineSet
819 712 m 2,0,1
 819 852 819 852 775 919 c 128,-1,2
 731 986 731 986 586 986 c 0,3,4
 447 986 447 986 367 897 c 0,5,6
 288 808 288 808 288 643 c 2,7,-1
 288 0 l 1,8,-1
 142 0 l 1,9,-1
 142 855 l 2,10,11
 142 959 142 959 140 1015 c 0,12,13
 139 1072 139 1072 136 1082 c 1,14,-1
 274 1082 l 1,15,16
 275 1082 275 1082 275 1071 c 128,-1,17
 275 1060 275 1060 277 1022 c 0,18,19
 278 985 278 985 280 907 c 1,20,-1
 283 907 l 1,21,22
 347 1015 347 1015 427 1058 c 128,-1,23
 507 1101 507 1101 628 1102 c 0,24,25
 808 1102 808 1102 888 1019 c 0,26,27
 967 936 967 936 967 732 c 2,28,-1
 967 46 l 1,29,30
 993 48 993 48 1017 50 c 128,-1,31
 1041 52 1041 52 1057 52 c 0,32,33
 1168 52 1168 52 1229 -9 c 128,-1,34
 1290 -70 1290 -70 1289 -184 c 0,35,36
 1289 -303 1289 -303 1218 -364 c 128,-1,37
 1147 -425 1147 -425 1056 -425 c 0,38,39
 969 -425 969 -425 912 -372 c 0,40,41
 854 -319 854 -319 825 -220 c 1,42,-1
 653 -428 l 1,43,-1
 562 -323 l 1,44,45
 636 -222 636 -222 700 -145 c 0,46,47
 764 -69 764 -69 815 -27 c 1,48,49
 819 8 819 8 819 29 c 2,50,-1
 819 712 l 2,0,1
1161 -188 m 0,51,52
 1161 -141 1161 -141 1136 -107 c 0,53,54
 1110 -73 1110 -73 1053 -73 c 0,55,56
 1022 -73 1022 -73 998 -83 c 128,-1,57
 974 -93 974 -93 942 -107 c 1,58,59
 936 -195 936 -195 965 -247 c 0,60,61
 995 -298 995 -298 1054 -298 c 0,62,63
 1102 -298 1102 -298 1132 -270 c 0,64,65
 1161 -241 1161 -241 1161 -188 c 0,51,52
EndSplineSet
EndChar

StartChar: uni0236
Encoding: 566 566 502
Width: 658
GlyphClass: 2
Flags: W
LayerCount: 2
Fore
SplineSet
33 970 m 1,0,-1
 33 1082 l 1,1,-1
 159 1082 l 1,2,-1
 200 1320 l 1,3,-1
 302 1320 l 1,4,-1
 302 1082 l 1,5,-1
 500 1082 l 1,6,-1
 500 970 l 1,7,-1
 302 970 l 1,8,-1
 302 444 l 1,9,10
 327 445 327 445 350 447 c 128,-1,11
 373 449 373 449 383 449 c 0,12,13
 501 449 501 449 563 387 c 128,-1,14
 625 325 625 325 625 212 c 0,15,16
 625 95 625 95 553 33 c 128,-1,17
 481 -29 481 -29 384 -28 c 0,18,19
 302 -28 302 -28 241 23 c 128,-1,20
 180 74 180 74 161 177 c 1,21,-1
 -11 -32 l 1,22,-1
 -102 74 l 1,23,24
 -29 176 -29 176 36 249 c 0,25,26
 101 323 101 323 152 366 c 1,27,28
 154 378 154 378 154 387 c 0,29,30
 154 395 154 395 154 403 c 2,31,-1
 154 970 l 1,32,-1
 33 970 l 1,0,-1
497 209 m 0,33,34
 497 256 497 256 470 290 c 0,35,36
 444 324 444 324 383 324 c 0,37,38
 355 324 355 324 334 312 c 0,39,40
 313 301 313 301 283 290 c 1,41,42
 277 196 277 196 304 147 c 128,-1,43
 331 98 331 98 384 99 c 0,44,45
 436 99 436 99 466 127 c 0,46,47
 497 155 497 155 497 209 c 0,33,34
EndSplineSet
EndChar

StartChar: uni0237
Encoding: 567 567 503
Width: 417
GlyphClass: 2
Flags: W
LayerCount: 2
Fore
SplineSet
57 -425 m 0,0,1
 -14 -425 -14 -425 -56 -416 c 1,2,-1
 -56 -296 l 1,3,4
 -39 -298 -39 -298 -23 -301 c 0,5,6
 -7 -303 -7 -303 10 -303 c 0,7,8
 78 -303 78 -303 106 -266 c 128,-1,9
 134 -229 134 -229 135 -123 c 2,10,-1
 135 1082 l 1,11,-1
 281 1082 l 1,12,-1
 281 -136 l 2,13,14
 281 -292 281 -292 225 -359 c 0,15,16
 170 -425 170 -425 57 -425 c 0,0,1
EndSplineSet
EndChar

StartChar: uni0238
Encoding: 568 568 504
Width: 1770
GlyphClass: 2
Flags: W
LayerCount: 2
Fore
SplineSet
1691 546 m 0,0,1
 1691 258 1691 258 1594 119 c 128,-1,2
 1497 -20 1497 -20 1299 -20 c 0,3,4
 1173 -20 1173 -20 1087 28 c 128,-1,5
 1001 76 1001 76 948 175 c 1,6,-1
 946 175 l 1,7,-1
 946 0 l 1,8,-1
 814 0 l 1,9,-1
 814 173 l 1,10,-1
 810 173 l 1,11,12
 758 66 758 66 677 23 c 128,-1,13
 596 -20 596 -20 479 -20 c 0,14,15
 269 -20 269 -20 174 115 c 0,16,17
 80 250 80 250 80 535 c 0,18,19
 80 823 80 823 176 962 c 0,20,21
 273 1102 273 1102 472 1102 c 0,22,23
 598 1102 598 1102 681 1058 c 0,24,25
 765 1014 765 1014 816 915 c 1,26,-1
 818 915 l 1,27,28
 816 951 816 951 814 987 c 128,-1,29
 812 1023 812 1023 812 1058 c 2,30,-1
 812 1484 l 1,31,-1
 959 1484 l 1,32,-1
 959 1051 l 2,33,34
 959 1025 959 1025 958 990 c 0,35,36
 957 954 957 954 955 913 c 1,37,-1
 959 913 l 1,38,39
 1010 1017 1010 1017 1091 1059 c 0,40,41
 1172 1102 1172 1102 1293 1102 c 0,42,43
 1502 1102 1502 1102 1597 966 c 0,44,45
 1691 831 1691 831 1691 546 c 0,0,1
234 543 m 0,46,47
 234 302 234 302 296 201 c 0,48,49
 357 101 357 101 501 102 c 0,50,51
 668 102 668 102 739 210 c 0,52,53
 811 319 811 319 811 556 c 0,54,55
 811 784 811 784 738 886 c 0,56,57
 666 988 666 988 503 988 c 0,58,59
 359 988 359 988 297 885 c 0,60,61
 234 782 234 782 234 543 c 0,46,47
1536 538 m 0,62,63
 1536 779 1536 779 1474 881 c 0,64,65
 1412 982 1412 982 1270 981 c 0,66,67
 1105 981 1105 981 1033 875 c 0,68,69
 960 768 960 768 960 527 c 0,70,71
 960 300 960 300 1031 197 c 128,-1,72
 1102 94 1102 94 1268 94 c 0,73,74
 1412 94 1412 94 1474 197 c 0,75,76
 1536 299 1536 299 1536 538 c 0,62,63
EndSplineSet
EndChar

StartChar: uni0239
Encoding: 569 569 505
Width: 1770
GlyphClass: 2
Flags: W
LayerCount: 2
Fore
SplineSet
1694 543 m 0,0,1
 1694 257 1694 257 1597 119 c 0,2,3
 1500 -20 1500 -20 1301 -20 c 0,4,5
 1173 -20 1173 -20 1090 26 c 0,6,7
 1006 72 1006 72 963 167 c 1,8,-1
 958 167 l 1,9,10
 960 168 960 168 961 125 c 0,11,12
 962 83 962 83 961 1 c 2,13,-1
 961 -425 l 1,14,-1
 814 -425 l 1,15,-1
 814 -7 l 2,16,17
 814 36 814 36 816 76 c 0,18,19
 817 116 817 116 818 164 c 1,20,-1
 814 164 l 1,21,22
 760 60 760 60 687 20 c 128,-1,23
 614 -20 614 -20 482 -20 c 0,24,25
 270 -20 270 -20 176 115 c 128,-1,26
 82 250 82 250 83 532 c 0,27,28
 83 820 83 820 179 959 c 0,29,30
 275 1099 275 1099 474 1099 c 0,31,32
 600 1099 600 1099 679 1057 c 128,-1,33
 758 1015 758 1015 814 913 c 1,34,-1
 813 1082 l 1,35,-1
 962 1082 l 1,36,-1
 962 906 l 1,37,38
 1011 1007 1011 1007 1089 1052 c 128,-1,39
 1167 1097 1167 1097 1295 1097 c 0,40,41
 1499 1097 1499 1097 1597 967 c 0,42,43
 1694 836 1694 836 1694 543 c 0,0,1
814 554 m 0,44,45
 814 778 814 778 741 882 c 128,-1,46
 668 986 668 986 505 986 c 0,47,48
 360 986 360 986 299 881 c 128,-1,49
 238 776 238 776 237 540 c 0,50,51
 237 301 237 301 299 201 c 0,52,53
 360 101 360 101 503 102 c 0,54,55
 673 102 673 102 743 214 c 0,56,57
 814 326 814 326 814 554 c 0,44,45
1539 538 m 0,58,59
 1539 779 1539 779 1476 878 c 0,60,61
 1413 976 1413 976 1273 976 c 0,62,63
 1104 976 1104 976 1033 873 c 0,64,65
 962 769 962 769 963 522 c 0,66,67
 963 296 963 296 1034 195 c 0,68,69
 1106 94 1106 94 1271 94 c 0,70,71
 1413 94 1413 94 1476 194 c 128,-1,72
 1539 294 1539 294 1539 538 c 0,58,59
EndSplineSet
EndChar

StartChar: uni023A
Encoding: 570 570 506
Width: 1328
GlyphClass: 2
Flags: W
LayerCount: 2
Fore
SplineSet
580 429 m 1,0,-1
 231 -124 l 1,1,-1
 69 -124 l 1,2,-1
 146 0 l 1,3,-1
 -12 0 l 1,4,-1
 584 1409 l 1,5,-1
 757 1409 l 1,6,-1
 870 1135 l 1,7,-1
 1115 1524 l 1,8,-1
 1277 1524 l 1,9,-1
 934 981 l 1,10,-1
 1341 0 l 1,11,-1
 1178 0 l 1,12,-1
 1005 429 l 1,13,-1
 580 429 l 1,0,-1
384 554 m 1,14,-1
 499 554 l 1,15,-1
 775 992 l 1,16,-1
 667 1289 l 1,17,-1
 384 554 l 1,14,-1
662 554 m 1,18,-1
 951 554 l 1,19,-1
 838 838 l 1,20,-1
 662 554 l 1,18,-1
329 429 m 1,21,-1
 168 31 l 1,22,-1
 418 429 l 1,23,-1
 329 429 l 1,21,-1
EndSplineSet
EndChar

StartChar: uni023B
Encoding: 571 571 507
Width: 1479
GlyphClass: 2
Flags: W
LayerCount: 2
Fore
SplineSet
341 128 m 1,0,1
 227 226 227 226 169 376 c 0,2,3
 111 525 111 525 111 711 c 0,4,5
 111 934 111 934 193 1095 c 0,6,7
 276 1256 276 1256 429 1343 c 128,-1,8
 582 1430 582 1430 793 1430 c 0,9,10
 954 1430 954 1430 1084 1380 c 1,11,-1
 1169 1524 l 1,12,-1
 1330 1524 l 1,13,-1
 1207 1314 l 1,14,15
 1322 1231 1322 1231 1382 1095 c 1,16,-1
 1227 1039 l 1,17,18
 1194 1118 1194 1118 1128 1182 c 1,19,-1
 535 180 l 1,20,21
 658 112 658 112 802 112 c 0,22,23
 957 112 957 112 1074 189 c 0,24,25
 1192 266 1192 266 1271 414 c 1,26,-1
 1394 342 l 1,27,28
 1305 167 1305 167 1148 73 c 0,29,30
 992 -20 992 -20 790 -20 c 0,31,32
 605 -20 605 -20 457 51 c 1,33,-1
 354 -124 l 1,34,-1
 192 -124 l 1,35,-1
 341 128 l 1,0,1
793 1299 m 0,36,37
 548 1299 548 1299 409 1140 c 128,-1,38
 270 981 270 981 271 711 c 0,39,40
 271 434 271 434 425 270 c 1,41,-1
 1011 1258 l 1,42,43
 911 1299 911 1299 793 1299 c 0,36,37
EndSplineSet
EndChar

StartChar: uni023C
Encoding: 572 572 508
Width: 986
GlyphClass: 2
Flags: W
LayerCount: 2
Fore
SplineSet
233 90 m 1,0,1
 90 235 90 235 89 544 c 0,2,3
 89 819 89 819 204 960 c 0,4,5
 319 1102 319 1102 535 1102 c 0,6,7
 609 1102 609 1102 664 1086 c 1,8,-1
 836 1484 l 1,9,-1
 971 1484 l 1,10,-1
 777 1034 l 1,11,12
 898 952 898 952 929 792 c 1,13,-1
 776 778 l 1,14,15
 764 858 764 858 723 906 c 1,16,-1
 389 140 l 1,17,18
 448 106 448 106 532 106 c 0,19,20
 633 106 633 106 701 158 c 128,-1,21
 769 210 769 210 785 321 c 1,22,-1
 934 309 l 1,23,24
 920 207 920 207 868 134 c 0,25,26
 815 60 815 60 731 20 c 128,-1,27
 647 -20 647 -20 539 -20 c 0,28,29
 421 -20 421 -20 337 18 c 1,30,-1
 145 -425 l 1,31,-1
 10 -425 l 1,32,-1
 233 90 l 1,0,1
242 546 m 0,33,34
 242 347 242 347 296 238 c 1,35,-1
 614 968 l 1,36,37
 579 978 579 978 531 978 c 0,38,39
 377 978 377 978 309 882 c 0,40,41
 242 785 242 785 242 546 c 0,33,34
EndSplineSet
EndChar

StartChar: uni023D
Encoding: 573 573 509
Width: 1102
GlyphClass: 2
Flags: W
LayerCount: 2
Fore
SplineSet
31 795 m 1,0,-1
 178 795 l 1,1,-1
 178 1409 l 1,2,-1
 335 1409 l 1,3,-1
 335 795 l 1,4,-1
 745 795 l 1,5,-1
 745 654 l 1,6,-1
 335 654 l 1,7,-1
 335 132 l 1,8,-1
 1032 132 l 1,9,-1
 1032 0 l 1,10,-1
 178 0 l 1,11,-1
 178 654 l 1,12,-1
 31 654 l 1,13,-1
 31 795 l 1,0,-1
EndSplineSet
EndChar

StartChar: uni023E
Encoding: 574 574 510
Width: 1251
GlyphClass: 2
Flags: W
LayerCount: 2
Fore
SplineSet
547 436 m 1,0,-1
 210 -124 l 1,1,-1
 49 -124 l 1,2,-1
 547 708 l 1,3,-1
 547 1277 l 1,4,-1
 54 1277 l 1,5,-1
 54 1409 l 1,6,-1
 962 1409 l 1,7,-1
 1032 1524 l 1,8,-1
 1194 1524 l 1,9,-1
 1125 1409 l 1,10,-1
 1196 1409 l 1,11,-1
 1196 1277 l 1,12,-1
 1047 1277 l 1,13,-1
 703 703 l 1,14,-1
 703 0 l 1,15,-1
 547 0 l 1,16,-1
 547 436 l 1,0,-1
703 1277 m 1,17,-1
 703 974 l 1,18,-1
 886 1277 l 1,19,-1
 703 1277 l 1,17,-1
EndSplineSet
EndChar

StartChar: uni023F
Encoding: 575 575 511
Width: 986
GlyphClass: 2
Flags: W
LayerCount: 2
Fore
SplineSet
68 182 m 1,0,-1
 191 248 l 1,1,2
 249 154 249 154 310 127 c 128,-1,3
 371 100 371 100 491 101 c 0,4,5
 635 101 635 101 701 147 c 128,-1,6
 767 193 767 193 768 283 c 0,7,8
 768 351 768 351 724 394 c 128,-1,9
 680 437 680 437 583 465 c 0,10,11
 454 501 454 501 383 523 c 128,-1,12
 312 545 312 545 277 560 c 0,13,14
 242 574 242 574 223 587 c 0,15,16
 164 624 164 624 130 676 c 0,17,18
 95 728 95 728 95 803 c 0,19,20
 95 949 95 949 196 1023 c 0,21,22
 297 1098 297 1098 493 1098 c 0,23,24
 667 1098 667 1098 769 1039 c 128,-1,25
 871 980 871 980 898 842 c 1,26,-1
 765 824 l 1,27,28
 749 898 749 898 677 938 c 128,-1,29
 605 978 605 978 493 979 c 0,30,31
 364 979 364 979 303 938 c 128,-1,32
 242 897 242 897 243 817 c 0,33,34
 243 772 243 772 262 741 c 128,-1,35
 281 710 281 710 314 688 c 0,36,37
 323 679 323 679 375 663 c 128,-1,38
 427 647 427 647 498 629 c 0,39,40
 569 610 569 610 635 591 c 0,41,42
 701 571 701 571 738 555 c 0,43,44
 833 509 833 509 874 447 c 0,45,46
 915 386 915 386 915 293 c 0,47,48
 915 141 915 141 804 61 c 0,49,50
 693 -20 693 -20 491 -20 c 0,51,52
 454 -20 454 -20 367 -7 c 1,53,-1
 608 -265 l 2,54,55
 623 -279 623 -279 654 -285 c 128,-1,56
 685 -291 685 -291 702 -291 c 0,57,58
 741 -291 741 -291 764 -273 c 0,59,60
 787 -256 787 -256 820 -214 c 1,61,-1
 948 -298 l 1,62,63
 888 -374 888 -374 832 -400 c 128,-1,64
 776 -426 776 -426 712 -426 c 0,65,66
 637 -426 637 -426 566 -385 c 128,-1,67
 495 -344 495 -344 432 -262 c 0,68,69
 396 -217 396 -217 364 -180 c 0,70,71
 332 -144 332 -144 306 -117 c 0,72,73
 270 -80 270 -80 239 -42 c 128,-1,74
 208 -4 208 -4 179 36 c 0,75,76
 132 98 132 98 104 134 c 0,77,78
 76 171 76 171 68 182 c 1,0,-1
EndSplineSet
EndChar

StartChar: uni0240
Encoding: 576 576 512
Width: 1024
GlyphClass: 2
Flags: W
LayerCount: 2
Fore
SplineSet
43 0 m 1,0,-1
 43 119 l 1,1,-1
 744 964 l 1,2,-1
 82 964 l 1,3,-1
 82 1082 l 1,4,-1
 911 1082 l 1,5,-1
 911 966 l 1,6,-1
 200 117 l 1,7,8
 232 119 232 119 262 120 c 0,9,10
 291 120 291 120 310 118 c 0,11,12
 344 113 344 113 374 96 c 0,13,14
 403 79 403 79 448 32 c 128,-1,15
 493 -15 493 -15 576 -112 c 0,16,17
 654 -202 654 -202 707 -243 c 0,18,19
 761 -284 761 -284 800 -294 c 0,20,21
 839 -305 839 -305 874 -305 c 0,22,23
 902 -305 902 -305 941 -295 c 128,-1,24
 980 -285 980 -285 1010 -263 c 1,25,-1
 1010 -365 l 1,26,27
 945 -426 945 -426 845 -426 c 0,28,29
 795 -426 795 -426 755 -416 c 128,-1,30
 715 -406 715 -406 687 -392 c 0,31,32
 672 -384 672 -384 647 -365 c 128,-1,33
 622 -346 622 -346 597 -325 c 0,34,35
 572 -303 572 -303 559 -288 c 2,36,-1
 367 -57 l 2,37,38
 336 -21 336 -21 310 -10 c 0,39,40
 284 0 284 0 199 0 c 2,41,-1
 43 0 l 1,0,-1
EndSplineSet
EndChar

StartChar: uni0241
Encoding: 577 577 513
Width: 1145
GlyphClass: 2
Flags: W
LayerCount: 2
Fore
SplineSet
433 0 m 1,0,-1
 433 528 l 1,1,2
 487 514 487 514 566 514 c 0,3,4
 738 514 738 514 821 612 c 128,-1,5
 904 710 904 710 904 911 c 0,6,7
 904 1126 904 1126 815 1223 c 0,8,9
 726 1319 726 1319 537 1319 c 0,10,11
 403 1319 403 1319 316 1259 c 128,-1,12
 229 1199 229 1199 206 1083 c 1,13,-1
 51 1098 l 1,14,15
 80 1255 80 1255 207 1343 c 0,16,17
 334 1430 334 1430 542 1430 c 0,18,19
 795 1430 795 1430 926 1300 c 128,-1,20
 1057 1170 1057 1170 1056 907 c 0,21,22
 1056 744 1056 744 999 629 c 128,-1,23
 942 514 942 514 834 455 c 0,24,25
 726 395 726 395 575 396 c 1,26,-1
 575 0 l 1,27,-1
 433 0 l 1,0,-1
EndSplineSet
EndChar

StartChar: uni0242
Encoding: 578 578 514
Width: 907
GlyphClass: 2
Flags: W
LayerCount: 2
Fore
SplineSet
355 0 m 1,0,-1
 355 433 l 1,1,2
 493 431 493 431 580 507 c 0,3,4
 668 583 668 583 669 705 c 0,5,6
 669 845 669 845 608 912 c 0,7,8
 547 978 547 978 406 978 c 0,9,10
 301 978 301 978 242 929 c 128,-1,11
 183 880 183 880 167 778 c 1,12,-1
 12 792 l 1,13,14
 38 938 38 938 141 1020 c 128,-1,15
 244 1102 244 1102 403 1102 c 0,16,17
 606 1102 606 1102 714 999 c 128,-1,18
 822 896 822 896 821 705 c 0,19,20
 821 561 821 561 738 458 c 0,21,22
 654 356 654 356 501 321 c 1,23,-1
 501 0 l 1,24,-1
 355 0 l 1,0,-1
EndSplineSet
EndChar

StartChar: uni0243
Encoding: 579 579 515
Width: 1328
GlyphClass: 2
Flags: W
LayerCount: 2
Fore
SplineSet
1216 395 m 0,0,1
 1216 208 1216 208 1081 104 c 128,-1,2
 946 0 946 0 706 0 c 2,3,-1
 178 0 l 1,4,-1
 178 347 l 1,5,-1
 44 347 l 1,6,-1
 44 459 l 1,7,-1
 178 459 l 1,8,-1
 178 1409 l 1,9,-1
 646 1409 l 2,10,11
 1133 1409 1133 1409 1133 1071 c 0,12,13
 1133 944 1133 944 1062 858 c 128,-1,14
 991 772 991 772 866 744 c 1,15,16
 1033 724 1033 724 1124 630 c 0,17,18
 1216 535 1216 535 1216 395 c 0,0,1
976 1054 m 0,19,20
 976 1174 976 1174 892 1226 c 128,-1,21
 808 1278 808 1278 651 1278 c 2,22,-1
 335 1278 l 1,23,-1
 335 800 l 1,24,-1
 650 800 l 2,25,26
 812 800 812 800 894 862 c 128,-1,27
 976 924 976 924 976 1054 c 0,19,20
1057 408 m 0,28,29
 1057 672 1057 672 685 672 c 2,30,-1
 335 672 l 1,31,-1
 335 459 l 1,32,-1
 711 459 l 1,33,-1
 711 347 l 1,34,-1
 335 347 l 1,35,-1
 335 133 l 1,36,-1
 701 133 l 2,37,38
 889 133 889 133 973 202 c 128,-1,39
 1057 271 1057 271 1057 408 c 0,28,29
EndSplineSet
EndChar

StartChar: uni0244
Encoding: 580 580 516
Width: 1479
GlyphClass: 2
Flags: W
LayerCount: 2
Fore
SplineSet
1313 526 m 2,0,1
 1313 358 1313 358 1241 235 c 0,2,3
 1168 113 1168 113 1038 47 c 0,4,5
 907 -20 907 -20 734 -20 c 0,6,7
 567 -20 567 -20 438 45 c 0,8,9
 310 110 310 110 238 227 c 0,10,11
 166 345 166 345 166 507 c 2,12,-1
 166 650 l 1,13,-1
 48 650 l 1,14,-1
 48 786 l 1,15,-1
 166 786 l 1,16,-1
 166 1409 l 1,17,-1
 323 1409 l 1,18,-1
 323 786 l 1,19,-1
 1158 786 l 1,20,-1
 1158 1409 l 1,21,-1
 1313 1409 l 1,22,-1
 1313 786 l 1,23,-1
 1431 786 l 1,24,-1
 1431 650 l 1,25,-1
 1313 650 l 1,26,-1
 1313 526 l 2,0,1
730 110 m 0,27,28
 932 110 932 110 1045 218 c 128,-1,29
 1158 326 1158 326 1158 534 c 2,30,-1
 1158 650 l 1,31,-1
 323 650 l 1,32,-1
 323 520 l 2,33,34
 323 319 323 319 428 215 c 0,35,36
 534 110 534 110 730 110 c 0,27,28
EndSplineSet
EndChar

StartChar: uni0245
Encoding: 581 581 517
Width: 1368
GlyphClass: 2
Flags: W
LayerCount: 2
Fore
SplineSet
1359 0 m 1,0,-1
 1192 0 l 1,1,-1
 769 1027 l 2,2,3
 745 1085 745 1085 724 1147 c 0,4,5
 704 1209 704 1209 681 1270 c 1,6,7
 665 1228 665 1228 652 1190 c 0,8,9
 639 1151 639 1151 625 1111 c 128,-1,10
 611 1071 611 1071 593 1026 c 2,11,-1
 173 0 l 1,12,-1
 7 0 l 1,13,-1
 600 1409 l 1,14,-1
 765 1409 l 1,15,-1
 1359 0 l 1,0,-1
EndSplineSet
EndChar

StartChar: uni0246
Encoding: 582 582 518
Width: 1366
GlyphClass: 2
Flags: W
LayerCount: 2
Fore
SplineSet
219 -262 m 1,0,-1
 344 0 l 1,1,-1
 178 0 l 1,2,-1
 178 1409 l 1,3,-1
 1015 1409 l 1,4,-1
 1093 1570 l 1,5,-1
 1228 1570 l 1,6,-1
 1150 1409 l 1,7,-1
 1234 1409 l 1,8,-1
 1234 1277 l 1,9,-1
 1088 1277 l 1,10,-1
 857 792 l 1,11,-1
 1175 792 l 1,12,-1
 1175 663 l 1,13,-1
 795 663 l 1,14,-1
 542 132 l 1,15,-1
 1275 132 l 1,16,-1
 1275 0 l 1,17,-1
 481 0 l 1,18,-1
 356 -262 l 1,19,-1
 219 -262 l 1,0,-1
335 792 m 1,20,-1
 722 792 l 1,21,-1
 953 1277 l 1,22,-1
 335 1277 l 1,23,-1
 335 792 l 1,20,-1
335 663 m 1,24,-1
 335 129 l 1,25,-1
 405 129 l 1,26,-1
 660 663 l 1,27,-1
 335 663 l 1,24,-1
EndSplineSet
EndChar

StartChar: uni0247
Encoding: 583 583 519
Width: 1139
GlyphClass: 2
Flags: W
LayerCount: 2
Fore
SplineSet
575 -20 m 0,0,1
 487 -20 487 -20 408 0 c 1,2,-1
 224 -424 l 1,3,-1
 87 -424 l 1,4,-1
 293 51 l 1,5,6
 89 183 89 183 89 549 c 0,7,8
 89 817 89 817 212 959 c 0,9,10
 335 1102 335 1102 565 1102 c 0,11,12
 666 1102 666 1102 737 1079 c 1,13,-1
 913 1484 l 1,14,-1
 1048 1484 l 1,15,-1
 851 1026 l 1,16,17
 1041 893 1041 893 1041 538 c 2,18,-1
 1041 508 l 1,19,-1
 626 508 l 1,20,-1
 454 113 l 1,21,22
 509 98 509 98 571 98 c 0,23,24
 702 98 702 98 780 149 c 0,25,26
 858 201 858 201 885 276 c 1,27,-1
 1008 223 l 1,28,29
 962 102 962 102 855 41 c 128,-1,30
 748 -20 748 -20 575 -20 c 0,0,1
544 634 m 1,31,-1
 689 964 l 1,32,33
 633 984 633 984 562 984 c 0,34,35
 420 984 420 984 336 890 c 128,-1,36
 252 796 252 796 245 634 c 1,37,-1
 544 634 l 1,31,-1
883 634 m 1,38,39
 866 809 866 809 796 898 c 1,40,-1
 680 634 l 1,41,-1
 883 634 l 1,38,39
243 508 m 1,42,43
 243 285 243 285 341 169 c 1,44,-1
 492 508 l 1,45,-1
 243 508 l 1,42,43
EndSplineSet
EndChar

StartChar: uni0248
Encoding: 584 584 520
Width: 986
GlyphClass: 2
Flags: W
LayerCount: 2
Fore
SplineSet
435 -20 m 0,0,1
 269 -20 269 -20 167 72 c 0,2,3
 65 163 65 163 32 339 c 1,4,-1
 184 366 l 1,5,6
 202 248 202 248 270 179 c 128,-1,7
 338 110 338 110 436 110 c 0,8,9
 545 110 545 110 610 186 c 0,10,11
 674 261 674 261 674 408 c 2,12,-1
 674 651 l 1,13,-1
 405 651 l 1,14,-1
 405 786 l 1,15,-1
 674 786 l 1,16,-1
 674 1409 l 5,17,-1
 830 1409 l 1,18,-1
 830 786 l 1,19,-1
 967 786 l 1,20,-1
 967 651 l 1,21,-1
 830 651 l 1,22,-1
 830 411 l 2,23,24
 830 211 830 211 724 96 c 0,25,26
 617 -20 617 -20 435 -20 c 0,0,1
EndSplineSet
EndChar

StartChar: uni0249
Encoding: 585 585 521
Width: 417
GlyphClass: 2
Flags: W
LayerCount: 2
Fore
SplineSet
281 1484 m 1,0,-1
 281 1324 l 1,1,-1
 135 1324 l 1,2,-1
 135 1484 l 1,3,-1
 281 1484 l 1,0,-1
57 -425 m 0,4,5
 -14 -425 -14 -425 -56 -416 c 1,6,-1
 -56 -296 l 1,7,8
 -39 -297 -39 -297 -23 -300 c 128,-1,9
 -7 -303 -7 -303 10 -303 c 0,10,11
 78 -303 78 -303 106 -266 c 128,-1,12
 134 -229 134 -229 135 -123 c 2,13,-1
 135 494 l 1,14,-1
 26 494 l 1,15,-1
 26 603 l 1,16,-1
 135 603 l 1,17,-1
 135 1082 l 1,18,-1
 281 1082 l 1,19,-1
 281 603 l 1,20,-1
 389 603 l 1,21,-1
 389 494 l 1,22,-1
 281 494 l 1,23,-1
 281 -136 l 2,24,25
 281 -292 281 -292 225 -359 c 0,26,27
 170 -425 170 -425 57 -425 c 0,4,5
EndSplineSet
EndChar

StartChar: uni024A
Encoding: 586 586 522
Width: 1484
GlyphClass: 2
Flags: W
LayerCount: 2
Fore
SplineSet
1309 -142 m 2,0,1
 1309 -224 1309 -224 1337 -256 c 128,-1,2
 1365 -288 1365 -288 1419 -288 c 0,3,4
 1475 -288 1475 -288 1517 -273 c 1,5,-1
 1517 -413 l 1,6,7
 1491 -419 1491 -419 1465 -422 c 128,-1,8
 1439 -425 1439 -425 1397 -425 c 0,9,10
 1278 -425 1278 -425 1213 -353 c 0,11,12
 1147 -281 1147 -281 1148 -154 c 2,13,-1
 1148 69 l 1,14,15
 959 -20 959 -20 801 -20 c 0,16,17
 579 -20 579 -20 423 68 c 128,-1,18
 267 156 267 156 184 320 c 0,19,20
 101 485 101 485 101 714 c 0,21,22
 101 939 101 939 184 1099 c 128,-1,23
 267 1259 267 1259 423 1344 c 0,24,25
 579 1430 579 1430 798 1430 c 0,26,27
 982 1430 982 1430 1143 1360 c 1,28,-1
 1289 1409 l 1,29,-1
 1309 1409 l 1,30,-1
 1309 -142 l 2,0,1
800 111 m 0,31,32
 920 111 920 111 1007 136 c 0,33,34
 1094 162 1094 162 1152 216 c 1,35,-1
 1152 1199 l 1,36,37
 1095 1250 1095 1250 1009 1277 c 0,38,39
 922 1303 922 1303 798 1303 c 0,40,41
 542 1303 542 1303 402 1149 c 128,-1,42
 262 995 262 995 261 714 c 0,43,44
 261 524 261 524 326 389 c 128,-1,45
 391 254 391 254 512 183 c 0,46,47
 633 111 633 111 800 111 c 0,31,32
EndSplineSet
EndChar

StartChar: uni024B
Encoding: 587 587 523
Width: 1102
GlyphClass: 2
Flags: W
LayerCount: 2
Fore
SplineSet
1158 -416 m 1,0,1
 1137 -421 1137 -421 1115 -423 c 128,-1,2
 1093 -425 1093 -425 1054 -425 c 0,3,4
 944 -425 944 -425 881 -354 c 128,-1,5
 818 -283 818 -283 818 -154 c 2,6,-1
 824 179 l 1,7,-1
 822 179 l 1,8,9
 765 69 765 69 689 24 c 0,10,11
 612 -20 612 -20 486 -20 c 0,12,13
 274 -20 274 -20 180 116 c 128,-1,14
 86 252 86 252 87 535 c 0,15,16
 87 823 87 823 183 962 c 0,17,18
 280 1102 280 1102 479 1102 c 0,19,20
 605 1102 605 1102 683 1060 c 0,21,22
 762 1018 762 1018 819 915 c 1,23,-1
 820 915 l 1,24,25
 820 934 820 934 822 979 c 128,-1,26
 824 1024 824 1024 827 1062 c 128,-1,27
 830 1100 830 1100 831 1101 c 1,28,-1
 973 1101 l 1,29,30
 969 1080 969 1080 967 1001 c 0,31,32
 965 923 965 923 966 791 c 2,33,-1
 966 -142 l 2,34,35
 966 -224 966 -224 994 -256 c 128,-1,36
 1022 -288 1022 -288 1076 -288 c 0,37,38
 1116 -288 1116 -288 1158 -276 c 1,39,-1
 1158 -416 l 1,0,1
818 556 m 0,40,41
 818 779 818 779 745 884 c 0,42,43
 673 988 673 988 510 988 c 0,44,45
 365 988 365 988 303 883 c 128,-1,46
 241 778 241 778 241 543 c 0,47,48
 241 302 241 302 303 201 c 0,49,50
 365 101 365 101 508 102 c 0,51,52
 675 102 675 102 746 214 c 0,53,54
 818 327 818 327 818 556 c 0,40,41
EndSplineSet
EndChar

StartChar: uni024C
Encoding: 588 588 524
Width: 1479
GlyphClass: 2
Flags: W
LayerCount: 2
Fore
SplineSet
305 602 m 1,0,-1
 305 0 l 1,1,-1
 149 0 l 1,2,-1
 149 602 l 1,3,-1
 0 602 l 1,4,-1
 0 725 l 1,5,-1
 149 725 l 1,6,-1
 149 1409 l 1,7,-1
 828 1409 l 2,8,9
 1061 1409 1061 1409 1188 1303 c 128,-1,10
 1315 1197 1315 1197 1315 1012 c 0,11,12
 1315 852 1315 852 1221 745 c 128,-1,13
 1127 638 1127 638 960 612 c 1,14,-1
 1367 0 l 1,15,-1
 1183 0 l 1,16,-1
 805 602 l 1,17,-1
 305 602 l 1,0,-1
1158 1013 m 0,18,19
 1158 1143 1158 1143 1068 1212 c 128,-1,20
 978 1281 978 1281 813 1281 c 2,21,-1
 305 1281 l 1,22,-1
 305 727 l 1,23,-1
 821 727 l 2,24,25
 981 727 981 727 1069 802 c 0,26,27
 1158 877 1158 877 1158 1013 c 0,18,19
EndSplineSet
EndChar

StartChar: uni024D
Encoding: 589 589 525
Width: 644
GlyphClass: 2
Flags: W
LayerCount: 2
Fore
SplineSet
142 0 m 1,0,-1
 142 526 l 1,1,-1
 18 526 l 1,2,-1
 18 653 l 1,3,-1
 142 653 l 1,4,-1
 142 831 l 2,5,6
 142 882 142 882 140 945 c 0,7,8
 139 1008 139 1008 136 1082 c 1,9,-1
 274 1082 l 1,10,11
 276 1024 276 1024 277 985 c 128,-1,12
 278 946 278 946 279 922 c 128,-1,13
 280 898 280 898 280 885 c 128,-1,14
 280 872 280 872 280 864 c 1,15,-1
 284 864 l 1,16,17
 315 969 315 969 357 1025 c 0,18,19
 390 1068 390 1068 435 1085 c 0,20,21
 479 1102 479 1102 541 1102 c 0,22,23
 572 1102 572 1102 609 1093 c 1,24,-1
 609 951 l 1,25,26
 586 959 586 959 521 960 c 0,27,28
 417 960 417 960 360 883 c 128,-1,29
 303 806 303 806 291 653 c 1,30,-1
 481 653 l 1,31,-1
 481 526 l 1,32,-1
 288 526 l 1,33,-1
 288 0 l 1,34,-1
 142 0 l 1,0,-1
EndSplineSet
EndChar

StartChar: uni024E
Encoding: 590 590 526
Width: 1366
GlyphClass: 2
Flags: W
LayerCount: 2
Fore
SplineSet
759 586 m 1,0,-1
 759 0 l 1,1,-1
 604 0 l 1,2,-1
 604 586 l 1,3,-1
 308 1022 l 1,4,-1
 66 1022 l 1,5,-1
 66 1150 l 1,6,-1
 221 1150 l 1,7,-1
 48 1409 l 1,8,-1
 226 1409 l 1,9,-1
 395 1150 l 1,10,-1
 971 1150 l 1,11,-1
 1140 1409 l 1,12,-1
 1317 1409 l 1,13,-1
 1143 1150 l 1,14,-1
 1300 1150 l 1,15,-1
 1300 1022 l 1,16,-1
 1056 1022 l 1,17,-1
 759 586 l 1,0,-1
480 1022 m 1,18,-1
 685 713 l 1,19,-1
 886 1022 l 1,20,-1
 480 1022 l 1,18,-1
EndSplineSet
EndChar

StartChar: uni024F
Encoding: 591 591 527
Width: 986
GlyphClass: 2
Flags: W
LayerCount: 2
Fore
SplineSet
572 19 m 2,0,1
 500 -166 500 -166 435 -262 c 128,-1,2
 370 -358 370 -358 303 -391 c 0,3,4
 236 -425 236 -425 161 -425 c 0,5,6
 99 -425 99 -425 54 -415 c 1,7,-1
 54 -301 l 1,8,9
 86 -306 86 -306 134 -306 c 0,10,11
 217 -306 217 -306 289 -238 c 128,-1,12
 361 -170 361 -170 414 -38 c 2,13,-1
 431 3 l 1,14,-1
 193 602 l 1,15,-1
 44 602 l 1,16,-1
 44 729 l 1,17,-1
 142 729 l 1,18,-1
 1 1082 l 1,19,-1
 159 1082 l 1,20,-1
 298 729 l 1,21,-1
 705 729 l 1,22,-1
 829 1082 l 1,23,-1
 984 1082 l 1,24,-1
 848 729 l 1,25,-1
 960 729 l 1,26,-1
 960 602 l 1,27,-1
 799 602 l 1,28,-1
 572 19 l 2,0,1
349 602 m 1,29,-1
 503 181 l 1,30,-1
 659 602 l 1,31,-1
 349 602 l 1,29,-1
EndSplineSet
EndChar

StartChar: uni0250
Encoding: 592 592 528
Width: 1139
GlyphClass: 2
Flags: W
LayerCount: 2
Fore
SplineSet
721 1102 m 0,0,1
 886 1102 886 1102 966 1016 c 128,-1,2
 1046 930 1046 930 1046 781 c 0,3,4
 1046 606 1046 606 930 518 c 0,5,6
 814 429 814 429 566 425 c 2,7,-1
 319 421 l 1,8,-1
 319 360 l 2,9,10
 319 219 319 219 382 161 c 0,11,12
 444 102 444 102 576 102 c 0,13,14
 714 102 714 102 774 146 c 128,-1,15
 834 190 834 190 845 280 c 1,16,-1
 998 262 l 1,17,18
 955 -20 955 -20 574 -20 c 0,19,20
 370 -20 370 -20 270 71 c 128,-1,21
 170 162 170 162 170 336 c 2,22,-1
 170 826 l 2,23,24
 170 902 170 902 149 945 c 0,25,26
 128 987 128 987 65 987 c 0,27,28
 38 987 38 987 7 980 c 1,29,-1
 7 1079 l 1,30,31
 35 1085 35 1085 69 1088 c 128,-1,32
 103 1091 103 1091 132 1091 c 0,33,34
 230 1091 230 1091 274 1039 c 0,35,36
 318 986 318 986 323 870 c 1,37,-1
 329 870 l 1,38,39
 395 994 395 994 488 1048 c 0,40,41
 582 1102 582 1102 721 1102 c 0,0,1
319 537 m 1,42,-1
 534 542 l 2,43,44
 669 542 669 542 745 569 c 0,45,46
 818 595 818 595 857 649 c 128,-1,47
 896 703 896 703 896 793 c 0,48,49
 896 885 896 885 845 936 c 128,-1,50
 794 987 794 987 696 987 c 0,51,52
 586 987 586 987 501 939 c 0,53,54
 417 891 417 891 368 808 c 128,-1,55
 319 725 319 725 319 637 c 2,56,-1
 319 537 l 1,42,-1
EndSplineSet
EndChar

StartChar: uni0251
Encoding: 593 593 529
Width: 1102
GlyphClass: 2
Flags: W
LayerCount: 2
Fore
SplineSet
486 -20 m 0,0,1
 274 -20 274 -20 180 116 c 128,-1,2
 86 252 86 252 87 535 c 0,3,4
 87 823 87 823 183 962 c 0,5,6
 280 1102 280 1102 479 1102 c 0,7,8
 605 1102 605 1102 686 1058 c 128,-1,9
 767 1014 767 1014 819 915 c 1,10,-1
 820 915 l 1,11,-1
 818 1082 l 1,12,-1
 966 1082 l 1,13,-1
 966 244 l 2,14,15
 966 167 966 167 992 97 c 128,-1,16
 1018 27 1018 27 1046 0 c 1,17,-1
 881 0 l 1,18,19
 863 18 863 18 845 67 c 128,-1,20
 827 116 827 116 824 173 c 1,21,-1
 820 173 l 1,22,23
 770 69 770 69 688 25 c 0,24,25
 608 -20 608 -20 486 -20 c 0,0,1
508 102 m 0,26,27
 679 102 679 102 748 211 c 0,28,29
 818 321 818 321 818 556 c 0,30,31
 818 782 818 782 746 885 c 128,-1,32
 674 988 674 988 510 988 c 0,33,34
 364 988 364 988 302 883 c 0,35,36
 241 777 241 777 241 543 c 0,37,38
 241 303 241 303 301 202 c 0,39,40
 362 102 362 102 508 102 c 0,26,27
EndSplineSet
EndChar

StartChar: uni0252
Encoding: 594 594 530
Width: 1102
GlyphClass: 2
Flags: W
LayerCount: 2
Fore
SplineSet
623 -20 m 0,0,1
 497 -20 497 -20 416 24 c 128,-1,2
 335 68 335 68 283 167 c 1,3,-1
 282 167 l 1,4,-1
 284 0 l 1,5,-1
 136 0 l 1,6,-1
 136 838 l 2,7,8
 136 915 136 915 111 985 c 0,9,10
 85 1055 85 1055 56 1082 c 1,11,-1
 221 1082 l 1,12,13
 239 1064 239 1064 256 1016 c 0,14,15
 273 967 273 967 278 909 c 1,16,-1
 282 909 l 1,17,18
 332 1013 332 1013 414 1057 c 0,19,20
 495 1102 495 1102 616 1102 c 0,21,22
 828 1102 828 1102 922 966 c 128,-1,23
 1016 830 1016 830 1015 547 c 0,24,25
 1015 259 1015 259 919 120 c 0,26,27
 822 -20 822 -20 623 -20 c 0,0,1
592 94 m 0,28,29
 738 94 738 94 800 199 c 0,30,31
 861 305 861 305 861 539 c 0,32,33
 861 779 861 779 801 880 c 128,-1,34
 741 981 741 981 594 980 c 0,35,36
 423 980 423 980 354 871 c 0,37,38
 284 761 284 761 284 526 c 0,39,40
 284 302 284 302 355 198 c 0,41,42
 424 94 424 94 592 94 c 0,28,29
EndSplineSet
EndChar

